<svg width="376" height="209" viewBox="0 0 376 209" fill="none" xmlns="http://www.w3.org/2000/svg">
<rect x="0.322021" y="0.22876" width="375.678" height="208.331" rx="10.2458" fill="#F1F2F3" fill-opacity="0.29"/>
<rect x="78.8729" y="61.7034" width="221.992" height="95.6271" rx="6.83051" fill="#E6E8EB"/>
<rect x="68.6271" y="54.8729" width="239.068" height="95.6271" rx="6.83051" fill="#ECEEF0"/>
<rect x="59.2352" y="45.4809" width="257.852" height="93.9195" rx="5.97669" fill="white" stroke="#F6F7F8" stroke-width="1.70763"/>
<rect x="75.4576" y="58.2881" width="17.0763" height="17.0763" rx="2.00452" fill="#161616"/>
<path d="M85.7028 71.0546C85.7028 71.1192 85.6771 71.1813 85.6314 71.227C85.5856 71.2728 85.5236 71.2985 85.4589 71.2985H82.2066C82.142 71.2985 82.0799 71.2728 82.0342 71.227C81.9884 71.1813 81.9627 71.1192 81.9627 71.0546C81.9627 70.9899 81.9884 70.9278 82.0342 70.8821C82.0799 70.8363 82.142 70.8106 82.2066 70.8106H85.4589C85.5236 70.8106 85.5856 70.8363 85.6314 70.8821C85.6771 70.9278 85.7028 70.9899 85.7028 71.0546ZM87.329 65.8509C87.3303 66.3808 87.2106 66.904 86.9789 67.3806C86.7473 67.8571 86.4098 68.2745 85.9923 68.6007C85.9027 68.6695 85.8301 68.7579 85.7799 68.8591C85.7298 68.9603 85.7034 69.0716 85.7028 69.1845V69.4284C85.7028 69.5794 85.6429 69.7241 85.5361 69.8309C85.4294 69.9376 85.2846 69.9976 85.1337 69.9976H82.5319C82.3809 69.9976 82.2362 69.9376 82.1294 69.8309C82.0227 69.7241 81.9627 69.5794 81.9627 69.4284V69.1845C81.9626 69.0728 81.9369 68.9625 81.8876 68.8622C81.8383 68.762 81.7666 68.6743 81.6782 68.606C81.262 68.2819 80.9249 67.8674 80.6925 67.3938C80.4601 66.9202 80.3384 66.4 80.3366 65.8725C80.326 63.9772 81.8566 62.4003 83.7486 62.3548C84.2148 62.3435 84.6785 62.4257 85.1124 62.5964C85.5463 62.767 85.9418 63.0228 86.2754 63.3485C86.609 63.6743 86.8741 64.0635 87.055 64.4933C87.2359 64.923 87.3291 65.3847 87.329 65.8509ZM86.8411 65.8509C86.8412 65.4497 86.7611 65.0525 86.6054 64.6826C86.4496 64.3128 86.2215 63.9779 85.9344 63.6976C85.6473 63.4173 85.307 63.1972 84.9336 63.0504C84.5602 62.9035 84.1611 62.8329 83.76 62.8426C82.1323 62.8833 80.8155 64.2386 80.8244 65.868C80.826 66.322 80.9307 66.7697 81.1307 67.1773C81.3308 67.5849 81.6208 67.9416 81.979 68.2206C82.1261 68.3345 82.2451 68.4806 82.3268 68.6478C82.4086 68.8149 82.4509 68.9985 82.4506 69.1845V69.4284C82.4506 69.45 82.4591 69.4707 82.4744 69.4859C82.4896 69.5012 82.5103 69.5097 82.5319 69.5097H85.1337C85.1552 69.5097 85.1759 69.5012 85.1912 69.4859C85.2064 69.4707 85.215 69.45 85.215 69.4284V69.1845C85.2155 68.9978 85.2586 68.8137 85.341 68.6461C85.4234 68.4786 85.543 68.3321 85.6906 68.2178C86.0501 67.9371 86.3407 67.5779 86.5401 67.1677C86.7395 66.7574 86.8425 66.3071 86.8411 65.8509ZM86.0248 65.4851C85.9435 65.0306 85.7248 64.6119 85.3983 64.2854C85.0718 63.9589 84.6532 63.7403 84.1987 63.6589C84.1671 63.6536 84.1347 63.6545 84.1035 63.6617C84.0722 63.6689 84.0427 63.6821 84.0166 63.7007C83.9638 63.7382 83.9281 63.7951 83.9173 63.8589C83.9066 63.9228 83.9216 63.9883 83.9591 64.041C83.9966 64.0938 84.0535 64.1295 84.1173 64.1403C84.8239 64.259 85.4235 64.859 85.5435 65.5664C85.5531 65.6232 85.5825 65.6747 85.6264 65.7119C85.6704 65.7491 85.7261 65.7696 85.7837 65.7696C85.7973 65.7695 85.8109 65.7685 85.8244 65.7664C85.856 65.7611 85.8863 65.7497 85.9135 65.7327C85.9408 65.7156 85.9643 65.6934 85.983 65.6673C86.0016 65.6412 86.0149 65.6116 86.022 65.5804C86.0292 65.5491 86.0302 65.5167 86.0248 65.4851Z" fill="white"/>
<path d="M109.56 65.9907C109.488 65.7581 109.389 65.5499 109.263 65.3661C109.139 65.1794 108.99 65.02 108.815 64.8879C108.643 64.7558 108.444 64.6567 108.22 64.5907C107.996 64.5218 107.752 64.4873 107.488 64.4873C107.014 64.4873 106.592 64.6065 106.222 64.8448C105.851 65.0832 105.56 65.4336 105.347 65.8959C105.137 66.3554 105.033 66.9154 105.033 67.576C105.033 68.2422 105.137 68.8065 105.347 69.2689C105.557 69.7313 105.848 70.0831 106.222 70.3243C106.595 70.5627 107.029 70.6819 107.523 70.6819C107.971 70.6819 108.358 70.5957 108.686 70.4234C109.016 70.2511 109.27 70.007 109.448 69.6911C109.626 69.3723 109.715 68.999 109.715 68.5711L110.077 68.6271H107.682V67.3778H111.262V68.4375C111.262 69.1928 111.101 69.8462 110.779 70.3975C110.458 70.9489 110.015 71.374 109.452 71.6726C108.89 71.9684 108.243 72.1163 107.514 72.1163C106.701 72.1163 105.988 71.934 105.373 71.5693C104.761 71.2017 104.283 70.6804 103.938 70.0055C103.597 69.3278 103.426 68.5237 103.426 67.5932C103.426 66.881 103.526 66.2449 103.727 65.6849C103.931 65.1248 104.216 64.6496 104.58 64.259C104.945 63.8655 105.373 63.5669 105.864 63.363C106.355 63.1562 106.889 63.0528 107.467 63.0528C107.955 63.0528 108.41 63.1246 108.832 63.2682C109.254 63.4089 109.629 63.6099 109.956 63.8713C110.287 64.1326 110.558 64.4428 110.771 64.8018C110.983 65.1607 111.122 65.5571 111.188 65.9907H109.56ZM115.667 72.125C115.004 72.125 114.431 71.9871 113.949 71.7114C113.469 71.4328 113.1 71.0394 112.842 70.5311C112.583 70.0199 112.454 69.4182 112.454 68.7261C112.454 68.0455 112.583 67.4482 112.842 66.9341C113.103 66.4172 113.468 66.0151 113.936 65.7279C114.404 65.4379 114.954 65.2928 115.586 65.2928C115.993 65.2928 116.378 65.3589 116.74 65.491C117.105 65.6202 117.426 65.8213 117.705 66.0941C117.986 66.3669 118.208 66.7144 118.368 67.1366C118.529 67.5559 118.61 68.0556 118.61 68.6357V69.1138H113.186V68.0627H117.115C117.112 67.7641 117.047 67.4984 116.921 67.2658C116.795 67.0303 116.618 66.8451 116.391 66.7101C116.167 66.5751 115.906 66.5076 115.607 66.5076C115.288 66.5076 115.008 66.5852 114.767 66.7403C114.526 66.8925 114.338 67.0935 114.203 67.3433C114.071 67.5903 114.003 67.8617 114 68.1575V69.0751C114 69.4599 114.071 69.7902 114.211 70.0658C114.352 70.3387 114.549 70.5483 114.802 70.6948C115.054 70.8384 115.35 70.9102 115.689 70.9102C115.916 70.9102 116.121 70.8786 116.305 70.8154C116.489 70.7493 116.648 70.6531 116.783 70.5268C116.918 70.4004 117.02 70.2439 117.089 70.0572L118.545 70.2209C118.453 70.6058 118.278 70.9418 118.019 71.2289C117.764 71.5133 117.436 71.7344 117.037 71.8923C116.638 72.0474 116.181 72.125 115.667 72.125ZM121.488 68.1187V71.9957H119.929V65.379H121.419V66.5033H121.497C121.649 66.1329 121.892 65.8385 122.225 65.6202C122.561 65.402 122.976 65.2928 123.47 65.2928C123.926 65.2928 124.324 65.3905 124.663 65.5858C125.005 65.7811 125.269 66.0639 125.456 66.4344C125.645 66.8049 125.739 67.2543 125.736 67.7827V71.9957H124.176V68.024C124.176 67.5817 124.061 67.2356 123.832 66.9858C123.605 66.7359 123.29 66.611 122.888 66.611C122.615 66.611 122.373 66.6713 122.16 66.7919C121.951 66.9097 121.786 67.0806 121.665 67.3046C121.547 67.5286 121.488 67.8 121.488 68.1187ZM130.25 72.125C129.587 72.125 129.014 71.9871 128.531 71.7114C128.052 71.4328 127.683 71.0394 127.424 70.5311C127.166 70.0199 127.037 69.4182 127.037 68.7261C127.037 68.0455 127.166 67.4482 127.424 66.9341C127.686 66.4172 128.05 66.0151 128.519 65.7279C128.987 65.4379 129.537 65.2928 130.168 65.2928C130.576 65.2928 130.961 65.3589 131.323 65.491C131.688 65.6202 132.009 65.8213 132.288 66.0941C132.569 66.3669 132.79 66.7144 132.951 67.1366C133.112 67.5559 133.192 68.0556 133.192 68.6357V69.1138H127.769V68.0627H131.698C131.695 67.7641 131.63 67.4984 131.504 67.2658C131.377 67.0303 131.201 66.8451 130.974 66.7101C130.75 66.5751 130.489 66.5076 130.19 66.5076C129.871 66.5076 129.591 66.5852 129.35 66.7403C129.109 66.8925 128.921 67.0935 128.786 67.3433C128.654 67.5903 128.586 67.8617 128.583 68.1575V69.0751C128.583 69.4599 128.654 69.7902 128.794 70.0658C128.935 70.3387 129.132 70.5483 129.384 70.6948C129.637 70.8384 129.933 70.9102 130.272 70.9102C130.499 70.9102 130.704 70.8786 130.888 70.8154C131.072 70.7493 131.231 70.6531 131.366 70.5268C131.501 70.4004 131.603 70.2439 131.672 70.0572L133.128 70.2209C133.036 70.6058 132.861 70.9418 132.602 71.2289C132.347 71.5133 132.019 71.7344 131.62 71.8923C131.221 72.0474 130.764 72.125 130.25 72.125ZM134.512 71.9957V65.379H136.024V66.4818H136.093C136.213 66.0998 136.42 65.8055 136.713 65.5987C137.009 65.3891 137.346 65.2842 137.725 65.2842C137.811 65.2842 137.908 65.2885 138.014 65.2972C138.123 65.3029 138.214 65.3129 138.285 65.3273V66.7618C138.219 66.7388 138.114 66.7187 137.971 66.7015C137.83 66.6814 137.694 66.6713 137.562 66.6713C137.277 66.6713 137.022 66.7331 136.795 66.8566C136.571 66.9772 136.394 67.1452 136.265 67.3606C136.136 67.576 136.071 67.8244 136.071 68.1058V71.9957H134.512ZM141.107 72.1293C140.688 72.1293 140.31 72.0546 139.974 71.9053C139.641 71.7531 139.377 71.5291 139.181 71.2333C138.989 70.9375 138.893 70.5727 138.893 70.1391C138.893 69.7657 138.962 69.457 139.1 69.2129C139.237 68.9688 139.425 68.7735 139.664 68.6271C139.902 68.4806 140.171 68.37 140.469 68.2954C140.771 68.2178 141.083 68.1618 141.404 68.1274C141.792 68.0871 142.106 68.0513 142.348 68.0197C142.589 67.9852 142.764 67.9335 142.873 67.8646C142.985 67.7928 143.041 67.6822 143.041 67.5329V67.507C143.041 67.1825 142.945 66.9312 142.752 66.7532C142.56 66.5751 142.283 66.4861 141.921 66.4861C141.539 66.4861 141.236 66.5694 141.012 66.7359C140.791 66.9025 140.642 67.0992 140.564 67.3261L139.108 67.1193C139.223 66.7173 139.413 66.3813 139.677 66.1113C139.941 65.8385 140.264 65.6346 140.646 65.4996C141.028 65.3618 141.45 65.2928 141.912 65.2928C142.231 65.2928 142.549 65.3302 142.864 65.4048C143.18 65.4795 143.469 65.603 143.73 65.7753C143.992 65.9448 144.201 66.1759 144.359 66.4689C144.52 66.7618 144.601 67.128 144.601 67.5673V71.9957H143.101V71.0868H143.05C142.955 71.2706 142.821 71.4429 142.649 71.6037C142.48 71.7617 142.266 71.8895 142.007 71.9871C141.752 72.0819 141.452 72.1293 141.107 72.1293ZM141.512 70.9834C141.825 70.9834 142.096 70.9217 142.326 70.7982C142.556 70.6718 142.732 70.5052 142.856 70.2985C142.982 70.0917 143.045 69.8663 143.045 69.6221V68.8424C142.997 68.8826 142.913 68.92 142.796 68.9544C142.681 68.9889 142.551 69.0191 142.408 69.0449C142.264 69.0708 142.122 69.0937 141.981 69.1138C141.841 69.1339 141.719 69.1512 141.615 69.1655C141.383 69.1971 141.174 69.2488 140.991 69.3206C140.807 69.3924 140.662 69.4929 140.556 69.6221C140.449 69.7485 140.396 69.9122 140.396 70.1132C140.396 70.4004 140.501 70.6172 140.711 70.7637C140.92 70.9102 141.187 70.9834 141.512 70.9834ZM149.473 65.379V66.5852H145.669V65.379H149.473ZM146.608 63.7937H148.167V70.0055C148.167 70.2152 148.199 70.376 148.262 70.488C148.328 70.5971 148.414 70.6718 148.521 70.712C148.627 70.7522 148.745 70.7723 148.874 70.7723C148.971 70.7723 149.06 70.7651 149.141 70.7508C149.224 70.7364 149.287 70.7235 149.33 70.712L149.593 71.9311C149.51 71.9598 149.391 71.9914 149.236 72.0259C149.083 72.0603 148.897 72.0804 148.676 72.0862C148.285 72.0977 147.933 72.0388 147.62 71.9096C147.307 71.7775 147.059 71.5736 146.875 71.2979C146.694 71.0222 146.605 70.6776 146.608 70.264V63.7937ZM150.777 71.9957V65.379H152.336V71.9957H150.777ZM151.561 64.4399C151.314 64.4399 151.101 64.3581 150.923 64.1944C150.745 64.0278 150.656 63.8282 150.656 63.5956C150.656 63.3601 150.745 63.1605 150.923 62.9968C151.101 62.8302 151.314 62.747 151.561 62.747C151.811 62.747 152.023 62.8302 152.198 62.9968C152.376 63.1605 152.465 63.3601 152.465 63.5956C152.465 63.8282 152.376 64.0278 152.198 64.1944C152.023 64.3581 151.811 64.4399 151.561 64.4399ZM155.499 68.1187V71.9957H153.94V65.379H155.43V66.5033H155.508C155.66 66.1329 155.903 65.8385 156.236 65.6202C156.572 65.402 156.987 65.2928 157.481 65.2928C157.937 65.2928 158.335 65.3905 158.674 65.5858C159.016 65.7811 159.28 66.0639 159.467 66.4344C159.656 66.8049 159.749 67.2543 159.747 67.7827V71.9957H158.187V68.024C158.187 67.5817 158.072 67.2356 157.843 66.9858C157.616 66.7359 157.301 66.611 156.899 66.611C156.626 66.611 156.384 66.6713 156.171 66.7919C155.962 66.9097 155.796 67.0806 155.676 67.3046C155.558 67.5286 155.499 67.8 155.499 68.1187ZM164.209 74.6148C163.649 74.6148 163.168 74.5387 162.766 74.3865C162.364 74.2372 162.041 74.0362 161.797 73.7834C161.553 73.5307 161.384 73.2507 161.289 72.9434L162.693 72.6031C162.756 72.7324 162.848 72.8602 162.969 72.9865C163.089 73.1157 163.252 73.222 163.456 73.3053C163.662 73.3914 163.922 73.4345 164.235 73.4345C164.678 73.4345 165.044 73.3268 165.334 73.1114C165.624 72.8989 165.769 72.5486 165.769 72.0603V70.8068H165.691C165.611 70.9676 165.493 71.1327 165.338 71.3022C165.186 71.4716 164.983 71.6138 164.731 71.7286C164.481 71.8435 164.166 71.901 163.787 71.901C163.279 71.901 162.818 71.7818 162.405 71.5434C161.994 71.3022 161.666 70.9432 161.422 70.4665C161.181 69.9869 161.06 69.3867 161.06 68.6658C161.06 67.9392 161.181 67.3261 161.422 66.8264C161.666 66.3238 161.995 65.9433 162.409 65.6849C162.822 65.4235 163.283 65.2928 163.792 65.2928C164.179 65.2928 164.498 65.3589 164.748 65.491C165.001 65.6202 165.202 65.7768 165.351 65.9605C165.5 66.1415 165.614 66.3124 165.691 66.4732H165.777V65.379H167.315V72.1034C167.315 72.6692 167.18 73.1373 166.91 73.5078C166.64 73.8782 166.271 74.1554 165.803 74.3392C165.335 74.5229 164.804 74.6148 164.209 74.6148ZM164.222 70.6776C164.553 70.6776 164.834 70.5971 165.067 70.4363C165.299 70.2755 165.476 70.0443 165.597 69.7428C165.717 69.4412 165.777 69.0794 165.777 68.6572C165.777 68.2408 165.717 67.8761 165.597 67.563C165.479 67.25 165.304 67.0073 165.071 66.835C164.841 66.6598 164.558 66.5723 164.222 66.5723C163.875 66.5723 163.585 66.6627 163.352 66.8436C163.12 67.0246 162.944 67.273 162.827 67.5889C162.709 67.9019 162.65 68.258 162.65 68.6572C162.65 69.0621 162.709 69.4168 162.827 69.7212C162.947 70.0228 163.124 70.2583 163.357 70.4277C163.592 70.5943 163.881 70.6776 164.222 70.6776ZM173.59 63.1734V71.9957H171.991V63.1734H173.59ZM176.811 68.1187V71.9957H175.251V65.379H176.742V66.5033H176.819C176.972 66.1329 177.214 65.8385 177.547 65.6202C177.883 65.402 178.298 65.2928 178.792 65.2928C179.249 65.2928 179.647 65.3905 179.986 65.5858C180.327 65.7811 180.592 66.0639 180.778 66.4344C180.968 66.8049 181.061 67.2543 181.058 67.7827V71.9957H179.499V68.024C179.499 67.5817 179.384 67.2356 179.154 66.9858C178.927 66.7359 178.613 66.611 178.211 66.611C177.938 66.611 177.695 66.6713 177.483 66.7919C177.273 66.9097 177.108 67.0806 176.987 67.3046C176.87 67.5286 176.811 67.8 176.811 68.1187ZM187.873 67.128L186.452 67.283C186.411 67.1394 186.341 67.0045 186.24 66.8781C186.143 66.7517 186.011 66.6498 185.844 66.5723C185.678 66.4947 185.474 66.4559 185.232 66.4559C184.908 66.4559 184.635 66.5263 184.414 66.667C184.196 66.8077 184.088 66.9901 184.091 67.2141C184.088 67.4065 184.158 67.563 184.302 67.6837C184.448 67.8043 184.69 67.9034 185.026 67.9809L186.154 68.2221C186.78 68.3571 187.246 68.5711 187.55 68.864C187.857 69.1569 188.012 69.5403 188.015 70.0142C188.012 70.4306 187.89 70.7982 187.649 71.1169C187.411 71.4328 187.079 71.6798 186.654 71.8579C186.229 72.0359 185.741 72.125 185.189 72.125C184.379 72.125 183.728 71.9555 183.234 71.6166C182.74 71.2749 182.445 70.7996 182.351 70.1908L183.871 70.0443C183.94 70.343 184.087 70.5684 184.311 70.7206C184.535 70.8728 184.826 70.9489 185.185 70.9489C185.556 70.9489 185.853 70.8728 186.077 70.7206C186.304 70.5684 186.417 70.3803 186.417 70.1563C186.417 69.9668 186.344 69.8103 186.197 69.6868C186.054 69.5633 185.83 69.4685 185.525 69.4025L184.397 69.1655C183.762 69.0334 183.292 68.8109 182.988 68.4978C182.684 68.1819 182.533 67.7827 182.536 67.3003C182.533 66.8925 182.643 66.5392 182.867 66.2406C183.094 65.939 183.409 65.7064 183.811 65.5427C184.216 65.3761 184.682 65.2928 185.211 65.2928C185.986 65.2928 186.597 65.458 187.042 65.7882C187.49 66.1185 187.767 66.5651 187.873 67.128ZM189.301 71.9957V65.379H190.861V71.9957H189.301ZM190.085 64.4399C189.838 64.4399 189.626 64.3581 189.448 64.1944C189.27 64.0278 189.18 63.8282 189.18 63.5956C189.18 63.3601 189.27 63.1605 189.448 62.9968C189.626 62.8302 189.838 62.747 190.085 62.747C190.335 62.747 190.547 62.8302 190.723 62.9968C190.901 63.1605 190.99 63.3601 190.99 63.5956C190.99 63.8282 190.901 64.0278 190.723 64.1944C190.547 64.3581 190.335 64.4399 190.085 64.4399ZM195.342 74.6148C194.782 74.6148 194.301 74.5387 193.899 74.3865C193.497 74.2372 193.173 74.0362 192.929 73.7834C192.685 73.5307 192.516 73.2507 192.421 72.9434L193.825 72.6031C193.889 72.7324 193.98 72.8602 194.101 72.9865C194.222 73.1157 194.384 73.222 194.588 73.3053C194.795 73.3914 195.054 73.4345 195.368 73.4345C195.81 73.4345 196.176 73.3268 196.466 73.1114C196.756 72.8989 196.901 72.5486 196.901 72.0603V70.8068H196.824C196.743 70.9676 196.625 71.1327 196.47 71.3022C196.318 71.4716 196.116 71.6138 195.863 71.7286C195.613 71.8435 195.299 71.901 194.92 71.901C194.411 71.901 193.95 71.7818 193.537 71.5434C193.126 71.3022 192.799 70.9432 192.555 70.4665C192.313 69.9869 192.193 69.3867 192.193 68.6658C192.193 67.9392 192.313 67.3261 192.555 66.8264C192.799 66.3238 193.127 65.9433 193.541 65.6849C193.955 65.4235 194.416 65.2928 194.924 65.2928C195.312 65.2928 195.63 65.3589 195.88 65.491C196.133 65.6202 196.334 65.7768 196.483 65.9605C196.633 66.1415 196.746 66.3124 196.824 66.4732H196.91V65.379H198.448V72.1034C198.448 72.6692 198.313 73.1373 198.043 73.5078C197.773 73.8782 197.404 74.1554 196.936 74.3392C196.467 74.5229 195.936 74.6148 195.342 74.6148ZM195.355 70.6776C195.685 70.6776 195.966 70.5971 196.199 70.4363C196.432 70.2755 196.608 70.0443 196.729 69.7428C196.849 69.4412 196.91 69.0794 196.91 68.6572C196.91 68.2408 196.849 67.8761 196.729 67.563C196.611 67.25 196.436 67.0073 196.203 66.835C195.973 66.6598 195.691 66.5723 195.355 66.5723C195.007 66.5723 194.717 66.6627 194.484 66.8436C194.252 67.0246 194.077 67.273 193.959 67.5889C193.841 67.9019 193.782 68.258 193.782 68.6572C193.782 69.0621 193.841 69.4168 193.959 69.7212C194.079 70.0228 194.256 70.2583 194.489 70.4277C194.724 70.5943 195.013 70.6776 195.355 70.6776ZM201.605 68.1187V71.9957H200.046V63.1734H201.571V66.5033H201.648C201.803 66.13 202.043 65.8356 202.368 65.6202C202.695 65.402 203.111 65.2928 203.617 65.2928C204.076 65.2928 204.477 65.3891 204.819 65.5815C205.161 65.7739 205.425 66.0553 205.611 66.4258C205.801 66.7963 205.896 67.2486 205.896 67.7827V71.9957H204.336V68.024C204.336 67.5788 204.221 67.2328 203.992 66.9858C203.765 66.7359 203.446 66.611 203.035 66.611C202.76 66.611 202.513 66.6713 202.294 66.7919C202.079 66.9097 201.91 67.0806 201.786 67.3046C201.665 67.5286 201.605 67.8 201.605 68.1187ZM210.789 65.379V66.5852H206.986V65.379H210.789ZM207.925 63.7937H209.484V70.0055C209.484 70.2152 209.516 70.376 209.579 70.488C209.645 70.5971 209.731 70.6718 209.837 70.712C209.944 70.7522 210.061 70.7723 210.191 70.7723C210.288 70.7723 210.377 70.7651 210.458 70.7508C210.541 70.7364 210.604 70.7235 210.647 70.712L210.91 71.9311C210.827 71.9598 210.707 71.9914 210.552 72.0259C210.4 72.0603 210.214 72.0804 209.992 72.0862C209.602 72.0977 209.25 72.0388 208.937 71.9096C208.624 71.7775 208.376 71.5736 208.192 71.2979C208.011 71.0222 207.922 70.6776 207.925 70.264V63.7937ZM217.228 67.128L215.807 67.283C215.767 67.1394 215.696 67.0045 215.596 66.8781C215.498 66.7517 215.366 66.6498 215.199 66.5723C215.033 66.4947 214.829 66.4559 214.588 66.4559C214.263 66.4559 213.99 66.5263 213.769 66.667C213.551 66.8077 213.443 66.9901 213.446 67.2141C213.443 67.4065 213.514 67.563 213.657 67.6837C213.804 67.8043 214.045 67.9034 214.381 67.9809L215.51 68.2221C216.136 68.3571 216.601 68.5711 216.905 68.864C217.213 69.1569 217.368 69.5403 217.371 70.0142C217.368 70.4306 217.246 70.7982 217.004 71.1169C216.766 71.4328 216.434 71.6798 216.009 71.8579C215.584 72.0359 215.096 72.125 214.545 72.125C213.735 72.125 213.083 71.9555 212.589 71.6166C212.095 71.2749 211.801 70.7996 211.706 70.1908L213.226 70.0443C213.295 70.343 213.442 70.5684 213.666 70.7206C213.89 70.8728 214.181 70.9489 214.54 70.9489C214.911 70.9489 215.208 70.8728 215.432 70.7206C215.659 70.5684 215.772 70.3803 215.772 70.1563C215.772 69.9668 215.699 69.8103 215.553 69.6868C215.409 69.5633 215.185 69.4685 214.881 69.4025L213.752 69.1655C213.117 69.0334 212.648 68.8109 212.343 68.4978C212.039 68.1819 211.888 67.7827 211.891 67.3003C211.888 66.8925 211.999 66.5392 212.223 66.2406C212.45 65.939 212.764 65.7064 213.166 65.5427C213.571 65.3761 214.038 65.2928 214.566 65.2928C215.342 65.2928 215.952 65.458 216.397 65.7882C216.845 66.1185 217.122 66.5651 217.228 67.128Z" fill="#3F4445"/>
<rect x="102.78" y="82.1949" width="198.085" height="5.12288" rx="2.56144" fill="#ECEEF0"/>
<rect x="103.121" y="82.5365" width="94.9441" height="4.43983" rx="2.21992" fill="#399A6D" stroke="#40CF8E" stroke-width="0.683051"/>
<path d="M109.62 100.947H108.512C108.47 100.711 108.39 100.502 108.274 100.322C108.158 100.142 108.016 99.9896 107.848 99.8641C107.68 99.7386 107.492 99.6439 107.283 99.58C107.077 99.516 106.858 99.4841 106.626 99.4841C106.207 99.4841 105.832 99.5894 105.5 99.8002C105.171 100.011 104.911 100.32 104.719 100.727C104.53 101.134 104.435 101.632 104.435 102.219C104.435 102.811 104.53 103.311 104.719 103.718C104.911 104.125 105.172 104.433 105.504 104.641C105.835 104.85 106.208 104.954 106.623 104.954C106.852 104.954 107.07 104.923 107.276 104.861C107.485 104.798 107.673 104.704 107.841 104.581C108.009 104.458 108.151 104.307 108.267 104.13C108.386 103.95 108.467 103.744 108.512 103.512L109.62 103.515C109.561 103.873 109.446 104.202 109.276 104.503C109.108 104.801 108.891 105.059 108.626 105.277C108.363 105.492 108.062 105.659 107.724 105.778C107.385 105.896 107.016 105.955 106.616 105.955C105.986 105.955 105.425 105.806 104.932 105.508C104.44 105.207 104.051 104.777 103.767 104.219C103.485 103.66 103.344 102.993 103.344 102.219C103.344 101.442 103.486 100.776 103.771 100.219C104.055 99.6605 104.443 99.2319 104.936 98.9335C105.428 98.6328 105.988 98.4825 106.616 98.4825C107.002 98.4825 107.361 98.5381 107.695 98.6494C108.032 98.7583 108.333 98.9193 108.601 99.1324C108.869 99.3432 109.09 99.6013 109.265 99.9067C109.44 100.21 109.559 100.557 109.62 100.947ZM110.848 105.856V100.4H111.875V101.267H111.932C112.031 100.973 112.206 100.743 112.457 100.574C112.711 100.404 112.997 100.319 113.317 100.319C113.383 100.319 113.461 100.321 113.551 100.326C113.644 100.331 113.716 100.336 113.768 100.344V101.359C113.725 101.348 113.65 101.335 113.541 101.32C113.432 101.304 113.323 101.295 113.214 101.295C112.963 101.295 112.739 101.349 112.543 101.455C112.348 101.559 112.195 101.705 112.081 101.892C111.967 102.077 111.91 102.288 111.91 102.524V105.856H110.848ZM116.843 105.966C116.305 105.966 115.843 105.851 115.454 105.622C115.068 105.389 114.77 105.064 114.559 104.645C114.351 104.223 114.247 103.73 114.247 103.164C114.247 102.605 114.351 102.112 114.559 101.686C114.77 101.26 115.063 100.927 115.44 100.688C115.819 100.449 116.262 100.329 116.768 100.329C117.076 100.329 117.375 100.38 117.663 100.482C117.952 100.584 118.212 100.744 118.441 100.962C118.671 101.179 118.852 101.462 118.985 101.81C119.117 102.156 119.184 102.576 119.184 103.071V103.448H114.847V102.652H118.143C118.143 102.373 118.086 102.125 117.972 101.91C117.859 101.692 117.699 101.52 117.493 101.395C117.289 101.269 117.05 101.207 116.775 101.207C116.477 101.207 116.217 101.28 115.994 101.427C115.774 101.571 115.603 101.761 115.483 101.995C115.364 102.227 115.305 102.479 115.305 102.752V103.373C115.305 103.738 115.369 104.048 115.497 104.304C115.627 104.56 115.808 104.755 116.04 104.89C116.272 105.022 116.543 105.089 116.854 105.089C117.055 105.089 117.238 105.06 117.404 105.004C117.57 104.944 117.713 104.857 117.834 104.741C117.955 104.625 118.047 104.481 118.111 104.311L119.116 104.492C119.036 104.788 118.891 105.047 118.683 105.27C118.477 105.49 118.217 105.662 117.905 105.785C117.595 105.906 117.241 105.966 116.843 105.966ZM121.95 105.977C121.604 105.977 121.291 105.913 121.012 105.785C120.732 105.655 120.511 105.466 120.348 105.22C120.187 104.974 120.106 104.672 120.106 104.314C120.106 104.007 120.165 103.753 120.284 103.554C120.402 103.356 120.562 103.198 120.763 103.082C120.964 102.966 121.189 102.878 121.438 102.819C121.687 102.76 121.94 102.715 122.198 102.684C122.525 102.646 122.79 102.616 122.994 102.592C123.197 102.566 123.345 102.524 123.438 102.468C123.53 102.411 123.576 102.318 123.576 102.191V102.166C123.576 101.855 123.489 101.615 123.313 101.445C123.141 101.274 122.882 101.189 122.539 101.189C122.182 101.189 121.9 101.268 121.694 101.427C121.49 101.583 121.349 101.757 121.271 101.949L120.273 101.722C120.391 101.39 120.564 101.123 120.792 100.919C121.021 100.713 121.285 100.564 121.584 100.471C121.882 100.377 122.196 100.329 122.525 100.329C122.743 100.329 122.974 100.355 123.218 100.408C123.464 100.457 123.693 100.55 123.907 100.685C124.122 100.82 124.298 101.013 124.436 101.264C124.573 101.512 124.642 101.835 124.642 102.233V105.856H123.605V105.11H123.562C123.493 105.247 123.39 105.382 123.253 105.515C123.116 105.648 122.939 105.758 122.724 105.845C122.508 105.933 122.25 105.977 121.95 105.977ZM122.18 105.124C122.474 105.124 122.725 105.066 122.933 104.95C123.144 104.834 123.304 104.683 123.413 104.496C123.524 104.306 123.58 104.104 123.58 103.888V103.185C123.542 103.223 123.468 103.258 123.36 103.292C123.253 103.322 123.131 103.35 122.994 103.373C122.856 103.395 122.723 103.415 122.592 103.434C122.462 103.45 122.353 103.464 122.266 103.476C122.06 103.502 121.871 103.546 121.701 103.608C121.533 103.669 121.398 103.758 121.296 103.874C121.197 103.988 121.147 104.139 121.147 104.329C121.147 104.592 121.244 104.79 121.438 104.925C121.632 105.058 121.88 105.124 122.18 105.124ZM128.603 100.4V101.253H125.623V100.4H128.603ZM126.422 99.0934H127.484V104.254C127.484 104.46 127.515 104.615 127.576 104.719C127.638 104.821 127.717 104.891 127.814 104.929C127.914 104.964 128.022 104.982 128.138 104.982C128.223 104.982 128.297 104.976 128.361 104.964C128.425 104.953 128.475 104.943 128.511 104.936L128.702 105.813C128.641 105.837 128.553 105.861 128.44 105.884C128.326 105.91 128.184 105.925 128.013 105.927C127.734 105.932 127.473 105.882 127.232 105.778C126.99 105.674 126.795 105.513 126.646 105.295C126.497 105.077 126.422 104.803 126.422 104.474V99.0934ZM129.778 105.856V100.4H130.84V105.856H129.778ZM130.314 99.5586C130.129 99.5586 129.971 99.4971 129.838 99.374C129.708 99.2485 129.643 99.0993 129.643 98.9264C129.643 98.7512 129.708 98.602 129.838 98.4789C129.971 98.3534 130.129 98.2907 130.314 98.2907C130.499 98.2907 130.656 98.3534 130.786 98.4789C130.919 98.602 130.985 98.7512 130.985 98.9264C130.985 99.0993 130.919 99.2485 130.786 99.374C130.656 99.4971 130.499 99.5586 130.314 99.5586ZM133.33 102.617V105.856H132.268V100.4H133.288V101.288H133.355C133.481 100.999 133.677 100.767 133.945 100.592C134.215 100.417 134.554 100.329 134.964 100.329C135.336 100.329 135.661 100.408 135.941 100.564C136.22 100.718 136.437 100.947 136.591 101.253C136.745 101.558 136.822 101.936 136.822 102.386V105.856H135.76V102.514C135.76 102.118 135.657 101.809 135.451 101.587C135.245 101.362 134.962 101.249 134.602 101.249C134.356 101.249 134.137 101.303 133.945 101.409C133.755 101.516 133.605 101.672 133.494 101.878C133.385 102.082 133.33 102.328 133.33 102.617ZM140.533 108.015C140.1 108.015 139.727 107.959 139.415 107.845C139.104 107.731 138.851 107.581 138.654 107.394C138.458 107.207 138.311 107.002 138.214 106.779L139.127 106.403C139.191 106.507 139.276 106.617 139.383 106.733C139.491 106.852 139.638 106.952 139.823 107.035C140.01 107.118 140.25 107.159 140.544 107.159C140.947 107.159 141.279 107.061 141.542 106.865C141.805 106.67 141.936 106.36 141.936 105.934V104.861H141.869C141.805 104.977 141.713 105.107 141.592 105.249C141.473 105.391 141.31 105.514 141.102 105.618C140.893 105.722 140.622 105.774 140.288 105.774C139.857 105.774 139.469 105.674 139.123 105.472C138.78 105.269 138.508 104.969 138.306 104.574C138.107 104.176 138.008 103.687 138.008 103.107C138.008 102.527 138.106 102.03 138.303 101.615C138.502 101.201 138.774 100.883 139.12 100.663C139.465 100.441 139.857 100.329 140.295 100.329C140.634 100.329 140.907 100.386 141.116 100.5C141.324 100.611 141.486 100.741 141.602 100.891C141.721 101.04 141.812 101.171 141.876 101.285H141.954V100.4H142.995V105.977C142.995 106.446 142.886 106.83 142.668 107.131C142.45 107.432 142.155 107.654 141.784 107.799C141.414 107.943 140.997 108.015 140.533 108.015ZM140.523 104.893C140.828 104.893 141.086 104.822 141.297 104.68C141.51 104.536 141.671 104.33 141.78 104.062C141.891 103.792 141.947 103.469 141.947 103.093C141.947 102.726 141.892 102.402 141.784 102.123C141.675 101.844 141.515 101.626 141.304 101.47C141.093 101.311 140.833 101.232 140.523 101.232C140.203 101.232 139.937 101.314 139.724 101.48C139.51 101.644 139.349 101.866 139.24 102.148C139.134 102.43 139.081 102.745 139.081 103.093C139.081 103.45 139.135 103.764 139.244 104.034C139.353 104.304 139.514 104.515 139.727 104.666C139.943 104.818 140.208 104.893 140.523 104.893ZM149.613 100.4V101.253H146.633V100.4H149.613ZM147.432 99.0934H148.494V104.254C148.494 104.46 148.525 104.615 148.586 104.719C148.648 104.821 148.727 104.891 148.824 104.929C148.924 104.964 149.031 104.982 149.147 104.982C149.233 104.982 149.307 104.976 149.371 104.964C149.435 104.953 149.485 104.943 149.52 104.936L149.712 105.813C149.65 105.837 149.563 105.861 149.449 105.884C149.336 105.91 149.193 105.925 149.023 105.927C148.744 105.932 148.483 105.882 148.242 105.778C148 105.674 147.805 105.513 147.656 105.295C147.506 105.077 147.432 104.803 147.432 104.474V99.0934ZM150.787 105.856V100.4H151.849V105.856H150.787ZM151.324 99.5586C151.139 99.5586 150.98 99.4971 150.848 99.374C150.717 99.2485 150.652 99.0993 150.652 98.9264C150.652 98.7512 150.717 98.602 150.848 98.4789C150.98 98.3534 151.139 98.2907 151.324 98.2907C151.508 98.2907 151.666 98.3534 151.796 98.4789C151.929 98.602 151.995 98.7512 151.995 98.9264C151.995 99.0993 151.929 99.2485 151.796 99.374C151.666 99.4971 151.508 99.5586 151.324 99.5586ZM153.278 107.902V100.4H154.315V101.285H154.404C154.465 101.171 154.554 101.04 154.67 100.891C154.786 100.741 154.947 100.611 155.153 100.5C155.359 100.386 155.632 100.329 155.97 100.329C156.411 100.329 156.804 100.441 157.149 100.663C157.495 100.886 157.766 101.207 157.963 101.626C158.162 102.045 158.261 102.549 158.261 103.139C158.261 103.728 158.163 104.234 157.966 104.655C157.77 105.075 157.5 105.398 157.157 105.625C156.813 105.85 156.421 105.963 155.981 105.963C155.649 105.963 155.378 105.907 155.168 105.796C154.959 105.684 154.796 105.554 154.677 105.405C154.559 105.256 154.468 105.123 154.404 105.007H154.34V107.902H153.278ZM154.319 103.128C154.319 103.512 154.374 103.848 154.486 104.137C154.597 104.426 154.758 104.652 154.969 104.815C155.179 104.976 155.437 105.057 155.743 105.057C156.06 105.057 156.325 104.973 156.539 104.805C156.752 104.634 156.913 104.403 157.022 104.112C157.133 103.821 157.189 103.493 157.189 103.128C157.189 102.768 157.134 102.445 157.025 102.159C156.919 101.872 156.758 101.646 156.542 101.48C156.329 101.314 156.063 101.232 155.743 101.232C155.435 101.232 155.175 101.311 154.962 101.47C154.751 101.628 154.591 101.85 154.482 102.134C154.373 102.418 154.319 102.749 154.319 103.128ZM163.539 101.732L162.577 101.903C162.536 101.78 162.472 101.662 162.385 101.551C162.3 101.44 162.183 101.349 162.037 101.278C161.89 101.207 161.706 101.171 161.486 101.171C161.185 101.171 160.934 101.239 160.733 101.374C160.532 101.506 160.431 101.678 160.431 101.889C160.431 102.071 160.499 102.218 160.634 102.329C160.769 102.44 160.987 102.531 161.287 102.603L162.154 102.801C162.656 102.917 163.03 103.096 163.276 103.338C163.523 103.579 163.646 103.893 163.646 104.279C163.646 104.606 163.551 104.897 163.362 105.153C163.174 105.406 162.913 105.605 162.577 105.749C162.243 105.894 161.856 105.966 161.415 105.966C160.804 105.966 160.306 105.836 159.92 105.575C159.534 105.313 159.297 104.94 159.209 104.457L160.236 104.3C160.3 104.568 160.431 104.77 160.63 104.908C160.829 105.043 161.088 105.11 161.408 105.11C161.756 105.11 162.034 105.038 162.243 104.893C162.451 104.747 162.555 104.568 162.555 104.357C162.555 104.187 162.491 104.043 162.363 103.927C162.238 103.811 162.045 103.724 161.785 103.665L160.861 103.462C160.352 103.346 159.975 103.161 159.732 102.908C159.49 102.655 159.369 102.334 159.369 101.945C159.369 101.623 159.459 101.342 159.639 101.1C159.819 100.859 160.068 100.67 160.385 100.535C160.702 100.398 161.066 100.329 161.476 100.329C162.065 100.329 162.529 100.457 162.868 100.713C163.206 100.966 163.43 101.306 163.539 101.732ZM167.546 105.856V98.5819H168.607V101.285H168.671C168.733 101.171 168.822 101.04 168.938 100.891C169.054 100.741 169.215 100.611 169.421 100.5C169.627 100.386 169.899 100.329 170.238 100.329C170.678 100.329 171.071 100.441 171.417 100.663C171.763 100.886 172.034 101.207 172.23 101.626C172.429 102.045 172.529 102.549 172.529 103.139C172.529 103.728 172.43 104.234 172.234 104.655C172.037 105.075 171.767 105.398 171.424 105.625C171.081 105.85 170.689 105.963 170.248 105.963C169.917 105.963 169.646 105.907 169.435 105.796C169.227 105.684 169.063 105.554 168.945 105.405C168.827 105.256 168.735 105.123 168.671 105.007H168.583V105.856H167.546ZM168.586 103.128C168.586 103.512 168.642 103.848 168.753 104.137C168.864 104.426 169.025 104.652 169.236 104.815C169.447 104.976 169.705 105.057 170.01 105.057C170.328 105.057 170.593 104.973 170.806 104.805C171.019 104.634 171.18 104.403 171.289 104.112C171.4 103.821 171.456 103.493 171.456 103.128C171.456 102.768 171.402 102.445 171.293 102.159C171.186 101.872 171.025 101.646 170.81 101.48C170.596 101.314 170.33 101.232 170.01 101.232C169.703 101.232 169.442 101.311 169.229 101.47C169.018 101.628 168.858 101.85 168.75 102.134C168.641 102.418 168.586 102.749 168.586 103.128ZM175.309 105.977C174.963 105.977 174.651 105.913 174.371 105.785C174.092 105.655 173.87 105.466 173.707 105.22C173.546 104.974 173.465 104.672 173.465 104.314C173.465 104.007 173.525 103.753 173.643 103.554C173.761 103.356 173.921 103.198 174.123 103.082C174.324 102.966 174.549 102.878 174.797 102.819C175.046 102.76 175.299 102.715 175.557 102.684C175.884 102.646 176.149 102.616 176.353 102.592C176.557 102.566 176.705 102.524 176.797 102.468C176.889 102.411 176.936 102.318 176.936 102.191V102.166C176.936 101.855 176.848 101.615 176.673 101.445C176.5 101.274 176.242 101.189 175.898 101.189C175.541 101.189 175.259 101.268 175.053 101.427C174.849 101.583 174.709 101.757 174.63 101.949L173.632 101.722C173.751 101.39 173.924 101.123 174.151 100.919C174.381 100.713 174.645 100.564 174.943 100.471C175.241 100.377 175.555 100.329 175.884 100.329C176.102 100.329 176.333 100.355 176.577 100.408C176.823 100.457 177.053 100.55 177.266 100.685C177.481 100.82 177.658 101.013 177.795 101.264C177.932 101.512 178.001 101.835 178.001 102.233V105.856H176.964V105.11H176.921C176.853 105.247 176.75 105.382 176.612 105.515C176.475 105.648 176.299 105.758 176.083 105.845C175.868 105.933 175.61 105.977 175.309 105.977ZM175.54 105.124C175.833 105.124 176.084 105.066 176.293 104.95C176.503 104.834 176.663 104.683 176.772 104.496C176.883 104.306 176.939 104.104 176.939 103.888V103.185C176.901 103.223 176.828 103.258 176.719 103.292C176.612 103.322 176.49 103.35 176.353 103.373C176.216 103.395 176.082 103.415 175.952 103.434C175.821 103.45 175.713 103.464 175.625 103.476C175.419 103.502 175.231 103.546 175.06 103.608C174.892 103.669 174.757 103.758 174.655 103.874C174.556 103.988 174.506 104.139 174.506 104.329C174.506 104.592 174.603 104.79 174.797 104.925C174.992 105.058 175.239 105.124 175.54 105.124ZM183.504 101.732L182.541 101.903C182.501 101.78 182.437 101.662 182.349 101.551C182.264 101.44 182.148 101.349 182.001 101.278C181.854 101.207 181.671 101.171 181.451 101.171C181.15 101.171 180.899 101.239 180.698 101.374C180.496 101.506 180.396 101.678 180.396 101.889C180.396 102.071 180.463 102.218 180.598 102.329C180.733 102.44 180.951 102.531 181.252 102.603L182.118 102.801C182.62 102.917 182.995 103.096 183.241 103.338C183.487 103.579 183.61 103.893 183.61 104.279C183.61 104.606 183.516 104.897 183.326 105.153C183.139 105.406 182.877 105.605 182.541 105.749C182.207 105.894 181.82 105.966 181.38 105.966C180.769 105.966 180.27 105.836 179.884 105.575C179.498 105.313 179.262 104.94 179.174 104.457L180.201 104.3C180.264 104.568 180.396 104.77 180.595 104.908C180.794 105.043 181.053 105.11 181.373 105.11C181.721 105.11 181.999 105.038 182.207 104.893C182.416 104.747 182.52 104.568 182.52 104.357C182.52 104.187 182.456 104.043 182.328 103.927C182.203 103.811 182.01 103.724 181.749 103.665L180.826 103.462C180.317 103.346 179.94 103.161 179.696 102.908C179.455 102.655 179.334 102.334 179.334 101.945C179.334 101.623 179.424 101.342 179.604 101.1C179.784 100.859 180.032 100.67 180.35 100.535C180.667 100.398 181.03 100.329 181.44 100.329C182.03 100.329 182.494 100.457 182.832 100.713C183.171 100.966 183.395 101.306 183.504 101.732ZM187.129 105.966C186.592 105.966 186.129 105.851 185.74 105.622C185.354 105.389 185.056 105.064 184.845 104.645C184.637 104.223 184.533 103.73 184.533 103.164C184.533 102.605 184.637 102.112 184.845 101.686C185.056 101.26 185.35 100.927 185.726 100.688C186.105 100.449 186.548 100.329 187.055 100.329C187.362 100.329 187.661 100.38 187.95 100.482C188.238 100.584 188.498 100.744 188.727 100.962C188.957 101.179 189.138 101.462 189.271 101.81C189.403 102.156 189.47 102.576 189.47 103.071V103.448H185.133V102.652H188.429C188.429 102.373 188.372 102.125 188.259 101.91C188.145 101.692 187.985 101.52 187.779 101.395C187.575 101.269 187.336 101.207 187.062 101.207C186.763 101.207 186.503 101.28 186.28 101.427C186.06 101.571 185.89 101.761 185.769 101.995C185.65 102.227 185.591 102.479 185.591 102.752V103.373C185.591 103.738 185.655 104.048 185.783 104.304C185.913 104.56 186.094 104.755 186.326 104.89C186.558 105.022 186.83 105.089 187.14 105.089C187.341 105.089 187.525 105.06 187.69 105.004C187.856 104.944 187.999 104.857 188.12 104.741C188.241 104.625 188.333 104.481 188.397 104.311L189.402 104.492C189.322 104.788 189.177 105.047 188.969 105.27C188.763 105.49 188.504 105.662 188.191 105.785C187.881 105.906 187.527 105.966 187.129 105.966ZM192.69 105.963C192.25 105.963 191.857 105.85 191.511 105.625C191.168 105.398 190.898 105.075 190.701 104.655C190.507 104.234 190.41 103.728 190.41 103.139C190.41 102.549 190.508 102.045 190.705 101.626C190.904 101.207 191.176 100.886 191.522 100.663C191.868 100.441 192.259 100.329 192.697 100.329C193.036 100.329 193.308 100.386 193.514 100.5C193.723 100.611 193.884 100.741 193.997 100.891C194.113 101.04 194.203 101.171 194.267 101.285H194.331V98.5819H195.393V105.856H194.356V105.007H194.267C194.203 105.123 194.111 105.256 193.99 105.405C193.872 105.554 193.709 105.684 193.5 105.796C193.292 105.907 193.022 105.963 192.69 105.963ZM192.925 105.057C193.23 105.057 193.488 104.976 193.699 104.815C193.912 104.652 194.073 104.426 194.182 104.137C194.293 103.848 194.349 103.512 194.349 103.128C194.349 102.749 194.295 102.418 194.186 102.134C194.077 101.85 193.917 101.628 193.706 101.47C193.495 101.311 193.235 101.232 192.925 101.232C192.605 101.232 192.339 101.314 192.126 101.48C191.913 101.646 191.751 101.872 191.643 102.159C191.536 102.445 191.483 102.768 191.483 103.128C191.483 103.493 191.537 103.821 191.646 104.112C191.755 104.403 191.916 104.634 192.129 104.805C192.345 104.973 192.61 105.057 192.925 105.057ZM201.854 105.966C201.342 105.966 200.896 105.849 200.515 105.614C200.134 105.38 199.838 105.052 199.627 104.631C199.416 104.209 199.311 103.717 199.311 103.153C199.311 102.587 199.416 102.092 199.627 101.668C199.838 101.245 200.134 100.915 200.515 100.681C200.896 100.447 201.342 100.329 201.854 100.329C202.365 100.329 202.812 100.447 203.193 100.681C203.574 100.915 203.87 101.245 204.081 101.668C204.292 102.092 204.397 102.587 204.397 103.153C204.397 103.717 204.292 104.209 204.081 104.631C203.87 105.052 203.574 105.38 203.193 105.614C202.812 105.849 202.365 105.966 201.854 105.966ZM201.857 105.075C202.189 105.075 202.464 104.987 202.682 104.812C202.899 104.637 203.06 104.403 203.165 104.112C203.271 103.821 203.324 103.5 203.324 103.149C203.324 102.801 203.271 102.482 203.165 102.191C203.06 101.897 202.899 101.661 202.682 101.484C202.464 101.306 202.189 101.217 201.857 101.217C201.524 101.217 201.247 101.306 201.026 101.484C200.809 101.661 200.646 101.897 200.54 102.191C200.436 102.482 200.383 102.801 200.383 103.149C200.383 103.5 200.436 103.821 200.54 104.112C200.646 104.403 200.809 104.637 201.026 104.812C201.247 104.987 201.524 105.075 201.857 105.075ZM206.644 102.617V105.856H205.582V100.4H206.602V101.288H206.669C206.795 100.999 206.991 100.767 207.259 100.592C207.529 100.417 207.869 100.329 208.278 100.329C208.65 100.329 208.976 100.408 209.255 100.564C209.534 100.718 209.751 100.947 209.905 101.253C210.059 101.558 210.136 101.936 210.136 102.386V105.856H209.074V102.514C209.074 102.118 208.971 101.809 208.765 101.587C208.559 101.362 208.276 101.249 207.916 101.249C207.67 101.249 207.451 101.303 207.259 101.409C207.069 101.516 206.919 101.672 206.808 101.878C206.699 102.082 206.644 102.328 206.644 102.617ZM214.878 107.902C214.72 107.902 214.575 107.889 214.445 107.863C214.315 107.839 214.218 107.813 214.154 107.785L214.409 106.914C214.604 106.966 214.777 106.989 214.928 106.982C215.08 106.975 215.213 106.918 215.329 106.811C215.448 106.705 215.552 106.531 215.642 106.289L215.773 105.927L213.777 100.4H214.914L216.295 104.634H216.352L217.734 100.4H218.874L216.626 106.584C216.522 106.868 216.389 107.109 216.228 107.305C216.067 107.504 215.875 107.653 215.653 107.753C215.43 107.852 215.172 107.902 214.878 107.902ZM221.985 105.966C221.473 105.966 221.027 105.849 220.646 105.614C220.264 105.38 219.968 105.052 219.758 104.631C219.547 104.209 219.441 103.717 219.441 103.153C219.441 102.587 219.547 102.092 219.758 101.668C219.968 101.245 220.264 100.915 220.646 100.681C221.027 100.447 221.473 100.329 221.985 100.329C222.496 100.329 222.942 100.447 223.324 100.681C223.705 100.915 224.001 101.245 224.212 101.668C224.422 102.092 224.528 102.587 224.528 103.153C224.528 103.717 224.422 104.209 224.212 104.631C224.001 105.052 223.705 105.38 223.324 105.614C222.942 105.849 222.496 105.966 221.985 105.966ZM221.988 105.075C222.32 105.075 222.594 104.987 222.812 104.812C223.03 104.637 223.191 104.403 223.295 104.112C223.402 103.821 223.455 103.5 223.455 103.149C223.455 102.801 223.402 102.482 223.295 102.191C223.191 101.897 223.03 101.661 222.812 101.484C222.594 101.306 222.32 101.217 221.988 101.217C221.654 101.217 221.377 101.306 221.157 101.484C220.939 101.661 220.777 101.897 220.67 102.191C220.566 102.482 220.514 102.801 220.514 103.149C220.514 103.5 220.566 103.821 220.67 104.112C220.777 104.403 220.939 104.637 221.157 104.812C221.377 104.987 221.654 105.075 221.988 105.075ZM229.169 103.593V100.4H230.234V105.856H229.19V104.911H229.133C229.008 105.202 228.807 105.445 228.53 105.639C228.255 105.831 227.913 105.927 227.503 105.927C227.153 105.927 226.842 105.85 226.573 105.696C226.305 105.54 226.094 105.309 225.94 105.004C225.789 104.698 225.713 104.32 225.713 103.871V100.4H226.775V103.743C226.775 104.114 226.878 104.41 227.084 104.631C227.29 104.851 227.558 104.961 227.887 104.961C228.086 104.961 228.283 104.911 228.48 104.812C228.679 104.712 228.843 104.562 228.974 104.361C229.106 104.159 229.171 103.904 229.169 103.593ZM231.661 105.856V100.4H232.688V101.267H232.745C232.844 100.973 233.019 100.743 233.27 100.574C233.524 100.404 233.81 100.319 234.13 100.319C234.196 100.319 234.274 100.321 234.364 100.326C234.457 100.331 234.529 100.336 234.581 100.344V101.359C234.538 101.348 234.463 101.335 234.354 101.32C234.245 101.304 234.136 101.295 234.027 101.295C233.776 101.295 233.552 101.349 233.356 101.455C233.161 101.559 233.007 101.705 232.894 101.892C232.78 102.077 232.723 102.288 232.723 102.524V105.856H231.661ZM238.147 107.902V100.4H239.184V101.285H239.273C239.334 101.171 239.423 101.04 239.539 100.891C239.655 100.741 239.816 100.611 240.022 100.5C240.228 100.386 240.501 100.329 240.839 100.329C241.28 100.329 241.673 100.441 242.018 100.663C242.364 100.886 242.635 101.207 242.832 101.626C243.031 102.045 243.13 102.549 243.13 103.139C243.13 103.728 243.032 104.234 242.835 104.655C242.639 105.075 242.369 105.398 242.025 105.625C241.682 105.85 241.29 105.963 240.85 105.963C240.518 105.963 240.247 105.907 240.036 105.796C239.828 105.684 239.665 105.554 239.546 105.405C239.428 105.256 239.337 105.123 239.273 105.007H239.209V107.902H238.147ZM239.188 103.128C239.188 103.512 239.243 103.848 239.355 104.137C239.466 104.426 239.627 104.652 239.838 104.815C240.048 104.976 240.306 105.057 240.612 105.057C240.929 105.057 241.194 104.973 241.407 104.805C241.621 104.634 241.782 104.403 241.89 104.112C242.002 103.821 242.057 103.493 242.057 103.128C242.057 102.768 242.003 102.445 241.894 102.159C241.787 101.872 241.626 101.646 241.411 101.48C241.198 101.314 240.932 101.232 240.612 101.232C240.304 101.232 240.044 101.311 239.83 101.47C239.62 101.628 239.46 101.85 239.351 102.134C239.242 102.418 239.188 102.749 239.188 103.128ZM244.32 105.856V100.4H245.346V101.267H245.403C245.503 100.973 245.678 100.743 245.929 100.574C246.182 100.404 246.469 100.319 246.788 100.319C246.855 100.319 246.933 100.321 247.023 100.326C247.115 100.331 247.187 100.336 247.239 100.344V101.359C247.197 101.348 247.121 101.335 247.012 101.32C246.903 101.304 246.794 101.295 246.685 101.295C246.434 101.295 246.211 101.349 246.014 101.455C245.82 101.559 245.666 101.705 245.552 101.892C245.439 102.077 245.382 102.288 245.382 102.524V105.856H244.32ZM250.314 105.966C249.777 105.966 249.314 105.851 248.926 105.622C248.54 105.389 248.241 105.064 248.031 104.645C247.822 104.223 247.718 103.73 247.718 103.164C247.718 102.605 247.822 102.112 248.031 101.686C248.241 101.26 248.535 100.927 248.911 100.688C249.29 100.449 249.733 100.329 250.24 100.329C250.548 100.329 250.846 100.38 251.135 100.482C251.424 100.584 251.683 100.744 251.913 100.962C252.142 101.179 252.324 101.462 252.456 101.81C252.589 102.156 252.655 102.576 252.655 103.071V103.448H248.318V102.652H251.614C251.614 102.373 251.558 102.125 251.444 101.91C251.33 101.692 251.17 101.52 250.964 101.395C250.761 101.269 250.522 101.207 250.247 101.207C249.949 101.207 249.688 101.28 249.466 101.427C249.245 101.571 249.075 101.761 248.954 101.995C248.836 102.227 248.777 102.479 248.777 102.752V103.373C248.777 103.738 248.84 104.048 248.968 104.304C249.099 104.56 249.28 104.755 249.512 104.89C249.744 105.022 250.015 105.089 250.325 105.089C250.526 105.089 250.71 105.06 250.876 105.004C251.041 104.944 251.185 104.857 251.305 104.741C251.426 104.625 251.518 104.481 251.582 104.311L252.588 104.492C252.507 104.788 252.363 105.047 252.154 105.27C251.948 105.49 251.689 105.662 251.376 105.785C251.066 105.906 250.712 105.966 250.314 105.966ZM258.344 100.4L256.366 105.856H255.229L253.247 100.4H254.387L255.769 104.599H255.826L257.204 100.4H258.344ZM259.342 105.856V100.4H260.404V105.856H259.342ZM259.878 99.5586C259.694 99.5586 259.535 99.4971 259.403 99.374C259.272 99.2485 259.207 99.0993 259.207 98.9264C259.207 98.7512 259.272 98.602 259.403 98.4789C259.535 98.3534 259.694 98.2907 259.878 98.2907C260.063 98.2907 260.221 98.3534 260.351 98.4789C260.483 98.602 260.55 98.7512 260.55 98.9264C260.55 99.0993 260.483 99.2485 260.351 99.374C260.221 99.4971 260.063 99.5586 259.878 99.5586ZM264.131 105.966C263.619 105.966 263.173 105.849 262.792 105.614C262.411 105.38 262.115 105.052 261.904 104.631C261.693 104.209 261.588 103.717 261.588 103.153C261.588 102.587 261.693 102.092 261.904 101.668C262.115 101.245 262.411 100.915 262.792 100.681C263.173 100.447 263.619 100.329 264.131 100.329C264.642 100.329 265.089 100.447 265.47 100.681C265.851 100.915 266.147 101.245 266.358 101.668C266.569 102.092 266.674 102.587 266.674 103.153C266.674 103.717 266.569 104.209 266.358 104.631C266.147 105.052 265.851 105.38 265.47 105.614C265.089 105.849 264.642 105.966 264.131 105.966ZM264.134 105.075C264.466 105.075 264.741 104.987 264.958 104.812C265.176 104.637 265.337 104.403 265.441 104.112C265.548 103.821 265.601 103.5 265.601 103.149C265.601 102.801 265.548 102.482 265.441 102.191C265.337 101.897 265.176 101.661 264.958 101.484C264.741 101.306 264.466 101.217 264.134 101.217C263.801 101.217 263.524 101.306 263.303 101.484C263.085 101.661 262.923 101.897 262.817 102.191C262.713 102.482 262.66 102.801 262.66 103.149C262.66 103.5 262.713 103.821 262.817 104.112C262.923 104.403 263.085 104.637 263.303 104.812C263.524 104.987 263.801 105.075 264.134 105.075ZM271.315 103.593V100.4H272.381V105.856H271.337V104.911H271.28C271.154 105.202 270.953 105.445 270.676 105.639C270.401 105.831 270.059 105.927 269.649 105.927C269.299 105.927 268.989 105.85 268.719 105.696C268.451 105.54 268.241 105.309 268.087 105.004C267.935 104.698 267.859 104.32 267.859 103.871V100.4H268.921V103.743C268.921 104.114 269.024 104.41 269.23 104.631C269.436 104.851 269.704 104.961 270.033 104.961C270.232 104.961 270.43 104.911 270.626 104.812C270.825 104.712 270.99 104.562 271.12 104.361C271.252 104.159 271.318 103.904 271.315 103.593ZM277.896 101.732L276.933 101.903C276.893 101.78 276.829 101.662 276.741 101.551C276.656 101.44 276.54 101.349 276.393 101.278C276.247 101.207 276.063 101.171 275.843 101.171C275.542 101.171 275.291 101.239 275.09 101.374C274.889 101.506 274.788 101.678 274.788 101.889C274.788 102.071 274.855 102.218 274.99 102.329C275.125 102.44 275.343 102.531 275.644 102.603L276.511 102.801C277.013 102.917 277.387 103.096 277.633 103.338C277.879 103.579 278.002 103.893 278.002 104.279C278.002 104.606 277.908 104.897 277.718 105.153C277.531 105.406 277.269 105.605 276.933 105.749C276.599 105.894 276.212 105.966 275.772 105.966C275.161 105.966 274.662 105.836 274.277 105.575C273.891 105.313 273.654 104.94 273.566 104.457L274.593 104.3C274.657 104.568 274.788 104.77 274.987 104.908C275.186 105.043 275.445 105.11 275.765 105.11C276.113 105.11 276.391 105.038 276.599 104.893C276.808 104.747 276.912 104.568 276.912 104.357C276.912 104.187 276.848 104.043 276.72 103.927C276.595 103.811 276.402 103.724 276.141 103.665L275.218 103.462C274.709 103.346 274.332 103.161 274.088 102.908C273.847 102.655 273.726 102.334 273.726 101.945C273.726 101.623 273.816 101.342 273.996 101.1C274.176 100.859 274.425 100.67 274.742 100.535C275.059 100.398 275.423 100.329 275.832 100.329C276.422 100.329 276.886 100.457 277.225 100.713C277.563 100.966 277.787 101.306 277.896 101.732ZM105.845 117.966C105.307 117.966 104.844 117.851 104.456 117.622C104.07 117.389 103.772 117.064 103.561 116.645C103.353 116.223 103.248 115.73 103.248 115.164C103.248 114.605 103.353 114.112 103.561 113.686C103.772 113.26 104.065 112.927 104.442 112.688C104.821 112.449 105.264 112.329 105.77 112.329C106.078 112.329 106.376 112.38 106.665 112.482C106.954 112.584 107.213 112.744 107.443 112.962C107.673 113.179 107.854 113.462 107.987 113.81C108.119 114.156 108.185 114.576 108.185 115.071V115.448H103.849V114.652H107.145C107.145 114.373 107.088 114.125 106.974 113.91C106.861 113.692 106.701 113.52 106.495 113.395C106.291 113.269 106.052 113.207 105.777 113.207C105.479 113.207 105.219 113.28 104.996 113.427C104.776 113.571 104.605 113.761 104.485 113.995C104.366 114.227 104.307 114.479 104.307 114.752V115.373C104.307 115.738 104.371 116.048 104.499 116.304C104.629 116.56 104.81 116.755 105.042 116.89C105.274 117.022 105.545 117.089 105.856 117.089C106.057 117.089 106.24 117.06 106.406 117.004C106.572 116.944 106.715 116.857 106.836 116.741C106.957 116.625 107.049 116.481 107.113 116.311L108.118 116.492C108.037 116.788 107.893 117.047 107.685 117.27C107.479 117.49 107.219 117.662 106.907 117.785C106.597 117.906 106.243 117.966 105.845 117.966ZM110.075 112.4L111.279 114.524L112.494 112.4H113.655L111.954 115.128L113.669 117.856H112.508L111.279 115.817L110.054 117.856H108.889L110.586 115.128L108.91 112.4H110.075ZM114.746 119.902V112.4H115.783V113.285H115.872C115.933 113.171 116.022 113.04 116.138 112.891C116.254 112.741 116.415 112.611 116.621 112.5C116.827 112.386 117.099 112.329 117.438 112.329C117.878 112.329 118.271 112.441 118.617 112.663C118.963 112.886 119.234 113.207 119.43 113.626C119.629 114.045 119.729 114.549 119.729 115.139C119.729 115.728 119.63 116.234 119.434 116.655C119.237 117.075 118.967 117.398 118.624 117.625C118.281 117.85 117.889 117.963 117.449 117.963C117.117 117.963 116.846 117.907 116.635 117.796C116.427 117.684 116.263 117.554 116.145 117.405C116.027 117.256 115.935 117.123 115.872 117.007H115.808V119.902H114.746ZM115.786 115.128C115.786 115.512 115.842 115.848 115.953 116.137C116.065 116.426 116.226 116.652 116.436 116.815C116.647 116.976 116.905 117.057 117.211 117.057C117.528 117.057 117.793 116.973 118.006 116.805C118.219 116.634 118.38 116.403 118.489 116.112C118.6 115.821 118.656 115.493 118.656 115.128C118.656 114.768 118.602 114.445 118.493 114.159C118.386 113.872 118.225 113.646 118.01 113.48C117.797 113.314 117.53 113.232 117.211 113.232C116.903 113.232 116.642 113.311 116.429 113.47C116.218 113.628 116.059 113.85 115.95 114.134C115.841 114.418 115.786 114.749 115.786 115.128ZM123.27 117.966C122.732 117.966 122.269 117.851 121.881 117.622C121.495 117.389 121.197 117.064 120.986 116.645C120.778 116.223 120.674 115.73 120.674 115.164C120.674 114.605 120.778 114.112 120.986 113.686C121.197 113.26 121.49 112.927 121.867 112.688C122.246 112.449 122.689 112.329 123.195 112.329C123.503 112.329 123.801 112.38 124.09 112.482C124.379 112.584 124.639 112.744 124.868 112.962C125.098 113.179 125.279 113.462 125.412 113.81C125.544 114.156 125.611 114.576 125.611 115.071V115.448H121.274V114.652H124.57C124.57 114.373 124.513 114.125 124.399 113.91C124.286 113.692 124.126 113.52 123.92 113.395C123.716 113.269 123.477 113.207 123.202 113.207C122.904 113.207 122.644 113.28 122.421 113.427C122.201 113.571 122.03 113.761 121.91 113.995C121.791 114.227 121.732 114.479 121.732 114.752V115.373C121.732 115.738 121.796 116.048 121.924 116.304C122.054 116.56 122.235 116.755 122.467 116.89C122.699 117.022 122.97 117.089 123.281 117.089C123.482 117.089 123.665 117.06 123.831 117.004C123.997 116.944 124.14 116.857 124.261 116.741C124.382 116.625 124.474 116.481 124.538 116.311L125.543 116.492C125.463 116.788 125.318 117.047 125.11 117.27C124.904 117.49 124.644 117.662 124.332 117.785C124.022 117.906 123.668 117.966 123.27 117.966ZM126.789 117.856V112.4H127.815V113.267H127.872C127.972 112.973 128.147 112.743 128.398 112.574C128.651 112.404 128.938 112.319 129.257 112.319C129.324 112.319 129.402 112.321 129.492 112.326C129.584 112.331 129.656 112.336 129.708 112.344V113.359C129.666 113.348 129.59 113.335 129.481 113.32C129.372 113.304 129.263 113.295 129.154 113.295C128.903 113.295 128.68 113.349 128.483 113.455C128.289 113.559 128.135 113.705 128.021 113.892C127.908 114.077 127.851 114.288 127.851 114.524V117.856H126.789ZM130.627 117.856V112.4H131.689V117.856H130.627ZM131.164 111.559C130.979 111.559 130.82 111.497 130.688 111.374C130.558 111.248 130.492 111.099 130.492 110.926C130.492 110.751 130.558 110.602 130.688 110.479C130.82 110.353 130.979 110.291 131.164 110.291C131.348 110.291 131.506 110.353 131.636 110.479C131.769 110.602 131.835 110.751 131.835 110.926C131.835 111.099 131.769 111.248 131.636 111.374C131.506 111.497 131.348 111.559 131.164 111.559ZM135.469 117.966C134.932 117.966 134.469 117.851 134.081 117.622C133.695 117.389 133.396 117.064 133.186 116.645C132.977 116.223 132.873 115.73 132.873 115.164C132.873 114.605 132.977 114.112 133.186 113.686C133.396 113.26 133.69 112.927 134.066 112.688C134.445 112.449 134.888 112.329 135.395 112.329C135.703 112.329 136.001 112.38 136.29 112.482C136.579 112.584 136.838 112.744 137.068 112.962C137.297 113.179 137.478 113.462 137.611 113.81C137.744 114.156 137.81 114.576 137.81 115.071V115.448H133.473V114.652H136.769C136.769 114.373 136.712 114.125 136.599 113.91C136.485 113.692 136.325 113.52 136.119 113.395C135.916 113.269 135.677 113.207 135.402 113.207C135.104 113.207 134.843 113.28 134.62 113.427C134.4 113.571 134.23 113.761 134.109 113.995C133.991 114.227 133.931 114.479 133.931 114.752V115.373C133.931 115.738 133.995 116.048 134.123 116.304C134.253 116.56 134.435 116.755 134.667 116.89C134.899 117.022 135.17 117.089 135.48 117.089C135.681 117.089 135.865 117.06 136.031 117.004C136.196 116.944 136.34 116.857 136.46 116.741C136.581 116.625 136.673 116.481 136.737 116.311L137.743 116.492C137.662 116.788 137.518 117.047 137.309 117.27C137.103 117.49 136.844 117.662 136.531 117.785C136.221 117.906 135.867 117.966 135.469 117.966ZM140.05 114.617V117.856H138.988V112.4H140.008V113.288H140.075C140.201 112.999 140.397 112.767 140.665 112.592C140.935 112.417 141.274 112.329 141.684 112.329C142.056 112.329 142.381 112.408 142.661 112.564C142.94 112.718 143.157 112.947 143.311 113.253C143.465 113.558 143.542 113.936 143.542 114.386V117.856H142.48V114.514C142.48 114.118 142.377 113.809 142.171 113.587C141.965 113.362 141.682 113.249 141.322 113.249C141.076 113.249 140.857 113.303 140.665 113.409C140.475 113.516 140.325 113.672 140.214 113.878C140.105 114.082 140.05 114.328 140.05 114.617ZM147.264 117.966C146.736 117.966 146.281 117.846 145.9 117.607C145.521 117.366 145.23 117.033 145.026 116.609C144.823 116.185 144.721 115.7 144.721 115.153C144.721 114.599 144.825 114.11 145.033 113.686C145.242 113.26 145.535 112.927 145.914 112.688C146.293 112.449 146.739 112.329 147.253 112.329C147.668 112.329 148.037 112.406 148.361 112.56C148.686 112.712 148.947 112.925 149.146 113.2C149.348 113.474 149.467 113.795 149.505 114.162H148.472C148.415 113.906 148.284 113.686 148.081 113.501C147.88 113.317 147.61 113.224 147.271 113.224C146.975 113.224 146.716 113.303 146.493 113.459C146.273 113.613 146.101 113.833 145.978 114.119C145.855 114.404 145.794 114.74 145.794 115.128C145.794 115.526 145.854 115.869 145.975 116.158C146.095 116.447 146.266 116.671 146.486 116.829C146.709 116.988 146.97 117.067 147.271 117.067C147.472 117.067 147.655 117.031 147.818 116.957C147.984 116.882 148.122 116.774 148.234 116.634C148.347 116.494 148.427 116.326 148.472 116.13H149.505C149.467 116.483 149.352 116.798 149.161 117.075C148.969 117.352 148.712 117.569 148.39 117.728C148.07 117.887 147.695 117.966 147.264 117.966ZM152.992 117.966C152.455 117.966 151.992 117.851 151.603 117.622C151.217 117.389 150.919 117.064 150.708 116.645C150.5 116.223 150.396 115.73 150.396 115.164C150.396 114.605 150.5 114.112 150.708 113.686C150.919 113.26 151.213 112.927 151.589 112.688C151.968 112.449 152.411 112.329 152.917 112.329C153.225 112.329 153.524 112.38 153.813 112.482C154.101 112.584 154.361 112.744 154.59 112.962C154.82 113.179 155.001 113.462 155.134 113.81C155.266 114.156 155.333 114.576 155.333 115.071V115.448H150.996V114.652H154.292C154.292 114.373 154.235 114.125 154.122 113.91C154.008 113.692 153.848 113.52 153.642 113.395C153.438 113.269 153.199 113.207 152.925 113.207C152.626 113.207 152.366 113.28 152.143 113.427C151.923 113.571 151.753 113.761 151.632 113.995C151.513 114.227 151.454 114.479 151.454 114.752V115.373C151.454 115.738 151.518 116.048 151.646 116.304C151.776 116.56 151.957 116.755 152.189 116.89C152.421 117.022 152.693 117.089 153.003 117.089C153.204 117.089 153.388 117.06 153.553 117.004C153.719 116.944 153.862 116.857 153.983 116.741C154.104 116.625 154.196 116.481 154.26 116.311L155.265 116.492C155.185 116.788 155.04 117.047 154.832 117.27C154.626 117.49 154.367 117.662 154.054 117.785C153.744 117.906 153.39 117.966 152.992 117.966ZM160.746 117.977C160.4 117.977 160.087 117.913 159.808 117.785C159.529 117.655 159.307 117.466 159.144 117.22C158.983 116.974 158.902 116.672 158.902 116.314C158.902 116.007 158.961 115.753 159.08 115.554C159.198 115.356 159.358 115.198 159.559 115.082C159.761 114.966 159.986 114.878 160.234 114.819C160.483 114.76 160.736 114.715 160.994 114.684C161.321 114.646 161.586 114.616 161.79 114.592C161.993 114.566 162.141 114.524 162.234 114.468C162.326 114.411 162.372 114.318 162.372 114.191V114.166C162.372 113.855 162.285 113.615 162.11 113.445C161.937 113.274 161.679 113.189 161.335 113.189C160.978 113.189 160.696 113.268 160.49 113.427C160.286 113.583 160.145 113.757 160.067 113.949L159.069 113.722C159.188 113.39 159.36 113.123 159.588 112.919C159.817 112.713 160.081 112.564 160.38 112.471C160.678 112.377 160.992 112.329 161.321 112.329C161.539 112.329 161.77 112.355 162.014 112.408C162.26 112.457 162.49 112.55 162.703 112.685C162.918 112.82 163.095 113.013 163.232 113.264C163.369 113.512 163.438 113.835 163.438 114.233V117.856H162.401V117.11H162.358C162.289 117.247 162.186 117.382 162.049 117.515C161.912 117.648 161.735 117.758 161.52 117.845C161.304 117.933 161.046 117.977 160.746 117.977ZM160.976 117.124C161.27 117.124 161.521 117.066 161.729 116.95C161.94 116.834 162.1 116.683 162.209 116.496C162.32 116.306 162.376 116.104 162.376 115.888V115.185C162.338 115.223 162.265 115.258 162.156 115.292C162.049 115.322 161.927 115.35 161.79 115.373C161.653 115.395 161.519 115.415 161.388 115.434C161.258 115.45 161.149 115.464 161.062 115.476C160.856 115.502 160.667 115.546 160.497 115.608C160.329 115.669 160.194 115.758 160.092 115.874C159.993 115.988 159.943 116.139 159.943 116.329C159.943 116.592 160.04 116.79 160.234 116.925C160.428 117.058 160.676 117.124 160.976 117.124ZM165.914 114.617V117.856H164.852V112.4H165.872V113.288H165.939C166.065 112.999 166.261 112.767 166.529 112.592C166.799 112.417 167.139 112.329 167.548 112.329C167.92 112.329 168.246 112.408 168.525 112.564C168.804 112.718 169.021 112.947 169.175 113.253C169.329 113.558 169.406 113.936 169.406 114.386V117.856H168.344V114.514C168.344 114.118 168.241 113.809 168.035 113.587C167.829 113.362 167.546 113.249 167.186 113.249C166.94 113.249 166.721 113.303 166.529 113.409C166.339 113.516 166.189 113.672 166.078 113.878C165.969 114.082 165.914 114.328 165.914 114.617ZM172.872 117.963C172.432 117.963 172.039 117.85 171.693 117.625C171.35 117.398 171.08 117.075 170.883 116.655C170.689 116.234 170.592 115.728 170.592 115.139C170.592 114.549 170.69 114.045 170.887 113.626C171.086 113.207 171.358 112.886 171.704 112.663C172.049 112.441 172.441 112.329 172.879 112.329C173.218 112.329 173.49 112.386 173.696 112.5C173.905 112.611 174.066 112.741 174.179 112.891C174.295 113.04 174.385 113.171 174.449 113.285H174.513V110.582H175.575V117.856H174.538V117.007H174.449C174.385 117.123 174.293 117.256 174.172 117.405C174.054 117.554 173.89 117.684 173.682 117.796C173.474 117.907 173.204 117.963 172.872 117.963ZM173.107 117.057C173.412 117.057 173.67 116.976 173.881 116.815C174.094 116.652 174.255 116.426 174.364 116.137C174.475 115.848 174.531 115.512 174.531 115.128C174.531 114.749 174.477 114.418 174.368 114.134C174.259 113.85 174.099 113.628 173.888 113.47C173.677 113.311 173.417 113.232 173.107 113.232C172.787 113.232 172.521 113.314 172.308 113.48C172.094 113.646 171.933 113.872 171.825 114.159C171.718 114.445 171.665 114.768 171.665 115.128C171.665 115.493 171.719 115.821 171.828 116.112C171.937 116.403 172.098 116.634 172.311 116.805C172.527 116.973 172.792 117.057 173.107 117.057ZM181.78 117.963C181.34 117.963 180.947 117.85 180.601 117.625C180.258 117.398 179.988 117.075 179.791 116.655C179.597 116.234 179.5 115.728 179.5 115.139C179.5 114.549 179.598 114.045 179.795 113.626C179.994 113.207 180.266 112.886 180.612 112.663C180.957 112.441 181.349 112.329 181.787 112.329C182.126 112.329 182.398 112.386 182.604 112.5C182.813 112.611 182.974 112.741 183.087 112.891C183.203 113.04 183.293 113.171 183.357 113.285H183.421V110.582H184.483V117.856H183.446V117.007H183.357C183.293 117.123 183.201 117.256 183.08 117.405C182.962 117.554 182.798 117.684 182.59 117.796C182.382 117.907 182.112 117.963 181.78 117.963ZM182.015 117.057C182.32 117.057 182.578 116.976 182.789 116.815C183.002 116.652 183.163 116.426 183.272 116.137C183.383 115.848 183.439 115.512 183.439 115.128C183.439 114.749 183.384 114.418 183.275 114.134C183.167 113.85 183.007 113.628 182.796 113.47C182.585 113.311 182.325 113.232 182.015 113.232C181.695 113.232 181.429 113.314 181.215 113.48C181.002 113.646 180.841 113.872 180.732 114.159C180.626 114.445 180.573 114.768 180.573 115.128C180.573 115.493 180.627 115.821 180.736 116.112C180.845 116.403 181.006 116.634 181.219 116.805C181.434 116.973 181.7 117.057 182.015 117.057ZM188.35 117.966C187.813 117.966 187.35 117.851 186.961 117.622C186.575 117.389 186.277 117.064 186.066 116.645C185.858 116.223 185.754 115.73 185.754 115.164C185.754 114.605 185.858 114.112 186.066 113.686C186.277 113.26 186.571 112.927 186.947 112.688C187.326 112.449 187.769 112.329 188.275 112.329C188.583 112.329 188.882 112.38 189.171 112.482C189.459 112.584 189.719 112.744 189.948 112.962C190.178 113.179 190.359 113.462 190.492 113.81C190.624 114.156 190.691 114.576 190.691 115.071V115.448H186.354V114.652H189.65C189.65 114.373 189.593 114.125 189.48 113.91C189.366 113.692 189.206 113.52 189 113.395C188.796 113.269 188.557 113.207 188.283 113.207C187.984 113.207 187.724 113.28 187.501 113.427C187.281 113.571 187.11 113.761 186.99 113.995C186.871 114.227 186.812 114.479 186.812 114.752V115.373C186.812 115.738 186.876 116.048 187.004 116.304C187.134 116.56 187.315 116.755 187.547 116.89C187.779 117.022 188.051 117.089 188.361 117.089C188.562 117.089 188.745 117.06 188.911 117.004C189.077 116.944 189.22 116.857 189.341 116.741C189.462 116.625 189.554 116.481 189.618 116.311L190.623 116.492C190.543 116.788 190.398 117.047 190.19 117.27C189.984 117.49 189.725 117.662 189.412 117.785C189.102 117.906 188.748 117.966 188.35 117.966ZM195.957 113.732L194.995 113.903C194.954 113.78 194.89 113.662 194.803 113.551C194.718 113.44 194.601 113.349 194.455 113.278C194.308 113.207 194.124 113.171 193.904 113.171C193.603 113.171 193.352 113.239 193.151 113.374C192.95 113.506 192.849 113.678 192.849 113.889C192.849 114.071 192.917 114.218 193.052 114.329C193.187 114.44 193.405 114.531 193.705 114.603L194.572 114.801C195.074 114.917 195.448 115.096 195.694 115.338C195.941 115.579 196.064 115.893 196.064 116.279C196.064 116.606 195.969 116.897 195.78 117.153C195.592 117.406 195.331 117.605 194.995 117.749C194.661 117.894 194.274 117.966 193.833 117.966C193.222 117.966 192.724 117.836 192.338 117.575C191.952 117.313 191.715 116.94 191.627 116.457L192.654 116.3C192.718 116.568 192.849 116.77 193.048 116.908C193.247 117.043 193.506 117.11 193.826 117.11C194.174 117.11 194.452 117.038 194.661 116.893C194.869 116.747 194.973 116.568 194.973 116.357C194.973 116.187 194.909 116.043 194.781 115.927C194.656 115.811 194.463 115.724 194.203 115.665L193.279 115.462C192.77 115.346 192.393 115.161 192.15 114.908C191.908 114.655 191.787 114.334 191.787 113.945C191.787 113.623 191.877 113.342 192.057 113.1C192.237 112.859 192.486 112.67 192.803 112.535C193.12 112.398 193.484 112.329 193.894 112.329C194.483 112.329 194.947 112.457 195.286 112.713C195.624 112.966 195.848 113.306 195.957 113.732ZM197.231 117.856V112.4H198.293V117.856H197.231ZM197.768 111.559C197.583 111.559 197.424 111.497 197.292 111.374C197.161 111.248 197.096 111.099 197.096 110.926C197.096 110.751 197.161 110.602 197.292 110.479C197.424 110.353 197.583 110.291 197.768 110.291C197.952 110.291 198.11 110.353 198.24 110.479C198.373 110.602 198.439 110.751 198.439 110.926C198.439 111.099 198.373 111.248 198.24 111.374C198.11 111.497 197.952 111.559 197.768 111.559ZM199.722 117.856V112.4H200.748V113.267H200.805C200.905 112.973 201.08 112.743 201.331 112.574C201.584 112.404 201.871 112.319 202.19 112.319C202.257 112.319 202.335 112.321 202.425 112.326C202.517 112.331 202.589 112.336 202.642 112.344V113.359C202.599 113.348 202.523 113.335 202.414 113.32C202.305 113.304 202.196 113.295 202.087 113.295C201.836 113.295 201.613 113.349 201.416 113.455C201.222 113.559 201.068 113.705 200.954 113.892C200.841 114.077 200.784 114.288 200.784 114.524V117.856H199.722ZM205.717 117.966C205.179 117.966 204.716 117.851 204.328 117.622C203.942 117.389 203.643 117.064 203.433 116.645C203.224 116.223 203.12 115.73 203.12 115.164C203.12 114.605 203.224 114.112 203.433 113.686C203.643 113.26 203.937 112.927 204.314 112.688C204.692 112.449 205.135 112.329 205.642 112.329C205.95 112.329 206.248 112.38 206.537 112.482C206.826 112.584 207.085 112.744 207.315 112.962C207.544 113.179 207.726 113.462 207.858 113.81C207.991 114.156 208.057 114.576 208.057 115.071V115.448H203.72V114.652H207.016C207.016 114.373 206.96 114.125 206.846 113.91C206.732 113.692 206.572 113.52 206.366 113.395C206.163 113.269 205.924 113.207 205.649 113.207C205.351 113.207 205.09 113.28 204.868 113.427C204.647 113.571 204.477 113.761 204.356 113.995C204.238 114.227 204.179 114.479 204.179 114.752V115.373C204.179 115.738 204.243 116.048 204.37 116.304C204.501 116.56 204.682 116.755 204.914 116.89C205.146 117.022 205.417 117.089 205.727 117.089C205.928 117.089 206.112 117.06 206.278 117.004C206.443 116.944 206.587 116.857 206.707 116.741C206.828 116.625 206.921 116.481 206.984 116.311L207.99 116.492C207.909 116.788 207.765 117.047 207.556 117.27C207.35 117.49 207.091 117.662 206.778 117.785C206.468 117.906 206.114 117.966 205.717 117.966ZM211.278 117.963C210.837 117.963 210.444 117.85 210.099 117.625C209.755 117.398 209.485 117.075 209.289 116.655C209.095 116.234 208.997 115.728 208.997 115.139C208.997 114.549 209.096 114.045 209.292 113.626C209.491 113.207 209.763 112.886 210.109 112.663C210.455 112.441 210.847 112.329 211.285 112.329C211.623 112.329 211.896 112.386 212.102 112.5C212.31 112.611 212.471 112.741 212.585 112.891C212.701 113.04 212.791 113.171 212.855 113.285H212.919V110.582H213.981V117.856H212.943V117.007H212.855C212.791 117.123 212.698 117.256 212.578 117.405C212.459 117.554 212.296 117.684 212.088 117.796C211.879 117.907 211.609 117.963 211.278 117.963ZM211.512 117.057C211.818 117.057 212.076 116.976 212.286 116.815C212.5 116.652 212.661 116.426 212.769 116.137C212.881 115.848 212.936 115.512 212.936 115.128C212.936 114.749 212.882 114.418 212.773 114.134C212.664 113.85 212.504 113.628 212.294 113.47C212.083 113.311 211.822 113.232 211.512 113.232C211.192 113.232 210.926 113.314 210.713 113.48C210.5 113.646 210.339 113.872 210.23 114.159C210.123 114.445 210.07 114.768 210.07 115.128C210.07 115.493 210.125 115.821 210.233 116.112C210.342 116.403 210.503 116.634 210.717 116.805C210.932 116.973 211.197 117.057 211.512 117.057ZM218.143 117.856V112.4H219.17V113.267H219.227C219.326 112.973 219.501 112.743 219.752 112.574C220.006 112.404 220.292 112.319 220.612 112.319C220.678 112.319 220.756 112.321 220.846 112.326C220.939 112.331 221.011 112.336 221.063 112.344V113.359C221.02 113.348 220.944 113.335 220.836 113.32C220.727 113.304 220.618 113.295 220.509 113.295C220.258 113.295 220.034 113.349 219.837 113.455C219.643 113.559 219.489 113.705 219.376 113.892C219.262 114.077 219.205 114.288 219.205 114.524V117.856H218.143ZM224.085 117.966C223.573 117.966 223.127 117.849 222.746 117.614C222.364 117.38 222.068 117.052 221.858 116.631C221.647 116.209 221.541 115.717 221.541 115.153C221.541 114.587 221.647 114.092 221.858 113.668C222.068 113.245 222.364 112.915 222.746 112.681C223.127 112.447 223.573 112.329 224.085 112.329C224.596 112.329 225.042 112.447 225.424 112.681C225.805 112.915 226.101 113.245 226.312 113.668C226.522 114.092 226.628 114.587 226.628 115.153C226.628 115.717 226.522 116.209 226.312 116.631C226.101 117.052 225.805 117.38 225.424 117.614C225.042 117.849 224.596 117.966 224.085 117.966ZM224.088 117.075C224.42 117.075 224.694 116.987 224.912 116.812C225.13 116.637 225.291 116.403 225.395 116.112C225.502 115.821 225.555 115.5 225.555 115.149C225.555 114.801 225.502 114.482 225.395 114.191C225.291 113.897 225.13 113.661 224.912 113.484C224.694 113.306 224.42 113.217 224.088 113.217C223.754 113.217 223.477 113.306 223.257 113.484C223.039 113.661 222.877 113.897 222.77 114.191C222.666 114.482 222.614 114.801 222.614 115.149C222.614 115.5 222.666 115.821 222.77 116.112C222.877 116.403 223.039 116.637 223.257 116.812C223.477 116.987 223.754 117.075 224.088 117.075ZM228.875 110.582V117.856H227.813V110.582H228.875ZM232.655 117.966C232.117 117.966 231.655 117.851 231.266 117.622C230.88 117.389 230.582 117.064 230.371 116.645C230.163 116.223 230.059 115.73 230.059 115.164C230.059 114.605 230.163 114.112 230.371 113.686C230.582 113.26 230.876 112.927 231.252 112.688C231.631 112.449 232.074 112.329 232.58 112.329C232.888 112.329 233.187 112.38 233.475 112.482C233.764 112.584 234.024 112.744 234.253 112.962C234.483 113.179 234.664 113.462 234.797 113.81C234.929 114.156 234.996 114.576 234.996 115.071V115.448H230.659V114.652H233.955C233.955 114.373 233.898 114.125 233.784 113.91C233.671 113.692 233.511 113.52 233.305 113.395C233.101 113.269 232.862 113.207 232.588 113.207C232.289 113.207 232.029 113.28 231.806 113.427C231.586 113.571 231.415 113.761 231.295 113.995C231.176 114.227 231.117 114.479 231.117 114.752V115.373C231.117 115.738 231.181 116.048 231.309 116.304C231.439 116.56 231.62 116.755 231.852 116.89C232.084 117.022 232.355 117.089 232.666 117.089C232.867 117.089 233.05 117.06 233.216 117.004C233.382 116.944 233.525 116.857 233.646 116.741C233.767 116.625 233.859 116.481 233.923 116.311L234.928 116.492C234.848 116.788 234.703 117.047 234.495 117.27C234.289 117.49 234.03 117.662 233.717 117.785C233.407 117.906 233.053 117.966 232.655 117.966Z" fill="#B2B7BB"/>
</svg>
