<svg width="377" height="209" viewBox="0 0 377 209" fill="none" xmlns="http://www.w3.org/2000/svg">
<rect x="0.661011" y="0.22876" width="375.678" height="208.331" rx="10.2458" fill="#F1F2F3" fill-opacity="0.29"/>
<rect x="89.4576" y="27.5509" width="113.557" height="154.113" fill="white"/>
<rect x="97.5689" y="38.3657" width="94.631" height="5.40749" rx="2.70374" fill="#ECEEF0"/>
<rect x="97.5689" y="49.1805" width="51.3711" height="5.40749" rx="2.70374" fill="#ECEEF0"/>
<rect x="97.5689" y="59.9957" width="35.1487" height="5.40749" rx="2.70374" fill="#ECEEF0"/>
<rect x="97.5689" y="70.8105" width="94.631" height="5.40749" rx="2.70374" fill="#ECEEF0"/>
<rect x="97.5689" y="81.6255" width="94.631" height="5.40749" rx="2.70374" fill="#ECEEF0"/>
<rect x="97.5689" y="92.4407" width="94.631" height="5.40749" rx="2.70374" fill="#ECEEF0"/>
<rect x="97.5689" y="124.886" width="94.631" height="5.40749" rx="2.70374" fill="#ECEEF0"/>
<rect x="97.9068" y="103.593" width="93.9551" height="15.5465" rx="7.77326" fill="#ECEEF0" fill-opacity="0.41" stroke="#399A6D" stroke-width="0.675936"/>
<path d="M197.357 133.189L189.496 110.856L213.078 118.157L201.721 121.279L197.357 133.189Z" fill="#399A6D" stroke="#399A6D" stroke-width="2.2459"/>
<rect x="208.422" y="127.59" width="75.7048" height="27.0374" rx="13.5187" fill="#399A6D"/>
<path d="M270.608 143.812C270.608 143.812 267.577 147.677 263.849 147.868C258.656 148.133 263.566 136.579 258.442 135.701C252.813 134.736 255.986 147.078 250.33 147.868C244.034 148.746 245.359 133.196 239.515 135.701C234.912 137.674 239.694 145.193 235.46 147.868C229.116 151.874 220.589 135.701 220.589 135.701" stroke="white" stroke-width="2.70374"/>
</svg>
