<svg width="376" height="209" viewBox="0 0 376 209" fill="none" xmlns="http://www.w3.org/2000/svg">
<rect y="0.22876" width="375.678" height="208.331" rx="10.2458" fill="#F1F2F3" fill-opacity="0.29"/>
<rect x="12" y="17" width="321" height="35" rx="8" fill="white"/>
<path d="M31.4683 30.1777V39H29.8702V30.1777H31.4683ZM34.4526 30.1777V31.0565C34.4526 31.3092 34.4037 31.572 34.3061 31.8448C34.2113 32.1148 34.0806 32.3732 33.9141 32.6202C33.7475 32.8643 33.558 33.074 33.3455 33.2491L32.6218 32.7796C32.7797 32.5412 32.9176 32.2842 33.0353 32.0085C33.153 31.7299 33.2119 31.4155 33.2119 31.0651V30.1777H34.4526ZM35.4638 39V32.3833H36.9543V33.5076H37.0318C37.1697 33.1285 37.398 32.8327 37.7168 32.6202C38.0355 32.4048 38.4161 32.2971 38.8583 32.2971C39.3063 32.2971 39.684 32.4062 39.9913 32.6245C40.3014 32.8399 40.5197 33.1343 40.646 33.5076H40.715C40.8614 33.14 41.1084 32.8471 41.4559 32.6288C41.8063 32.4077 42.2212 32.2971 42.7008 32.2971C43.3097 32.2971 43.8065 32.4895 44.1913 32.8744C44.5762 33.2592 44.7686 33.8206 44.7686 34.5587V39H43.2049V34.7999C43.2049 34.3893 43.0957 34.0891 42.8775 33.8996C42.6592 33.7072 42.3921 33.611 42.0762 33.611C41.7 33.611 41.4056 33.7287 41.1931 33.9642C40.9835 34.1968 40.8787 34.4998 40.8787 34.8732V39H39.3494V34.7353C39.3494 34.3936 39.246 34.1207 39.0392 33.9168C38.8353 33.7129 38.5683 33.611 38.238 33.611C38.014 33.611 37.8101 33.6684 37.6263 33.7833C37.4425 33.8953 37.296 34.0547 37.1869 34.2615C37.0778 34.4654 37.0232 34.7037 37.0232 34.9765V39H35.4638ZM51.2636 39.1335C50.8443 39.1335 50.4667 39.0589 50.1307 38.9095C49.7975 38.7573 49.5333 38.5333 49.338 38.2375C49.1456 37.9417 49.0494 37.577 49.0494 37.1434C49.0494 36.77 49.1183 36.4613 49.2562 36.2172C49.394 35.9731 49.5821 35.7778 49.8205 35.6313C50.0589 35.4849 50.3274 35.3743 50.6261 35.2996C50.9276 35.2221 51.2392 35.1661 51.5608 35.1316C51.9485 35.0914 52.263 35.0555 52.5042 35.0239C52.7455 34.9895 52.9207 34.9378 53.0298 34.8689C53.1418 34.7971 53.1978 34.6865 53.1978 34.5372V34.5113C53.1978 34.1868 53.1016 33.9355 52.9092 33.7575C52.7168 33.5794 52.4396 33.4904 52.0778 33.4904C51.6958 33.4904 51.3928 33.5737 51.1688 33.7402C50.9477 33.9068 50.7984 34.1035 50.7208 34.3304L49.2648 34.1236C49.3797 33.7216 49.5692 33.3855 49.8334 33.1156C50.0976 32.8428 50.4207 32.6389 50.8027 32.5039C51.1846 32.366 51.6068 32.2971 52.0692 32.2971C52.3879 32.2971 52.7053 32.3345 53.0212 32.4091C53.3371 32.4838 53.6257 32.6073 53.887 32.7796C54.1484 32.949 54.358 33.1802 54.516 33.4731C54.6768 33.7661 54.7572 34.1322 54.7572 34.5716V39H53.2581V38.0911H53.2064C53.1116 38.2749 52.9781 38.4472 52.8058 38.608C52.6363 38.7659 52.4224 38.8937 52.1639 38.9914C51.9083 39.0862 51.6082 39.1335 51.2636 39.1335ZM51.6685 37.9877C51.9816 37.9877 52.253 37.9259 52.4827 37.8024C52.7124 37.6761 52.8891 37.5095 53.0126 37.3027C53.1389 37.096 53.2021 36.8705 53.2021 36.6264V35.8467C53.1533 35.8869 53.07 35.9243 52.9522 35.9587C52.8374 35.9932 52.7081 36.0233 52.5645 36.0492C52.421 36.075 52.2788 36.098 52.1381 36.1181C51.9974 36.1382 51.8753 36.1554 51.7719 36.1698C51.5393 36.2014 51.3311 36.2531 51.1473 36.3249C50.9635 36.3967 50.8185 36.4972 50.7122 36.6264C50.606 36.7528 50.5528 36.9165 50.5528 37.1175C50.5528 37.4047 50.6576 37.6215 50.8673 37.768C51.0769 37.9144 51.344 37.9877 51.6685 37.9877ZM59.4031 39V30.1777H65.1411V31.5174H61.0013V33.9125H64.8438V35.2522H61.0013V37.6603H65.1755V39H59.4031ZM68.262 30.1777V39H66.7026V30.1777H68.262ZM72.7949 39.1292C72.1315 39.1292 71.5586 38.9914 71.0761 38.7157C70.5965 38.4371 70.2275 38.0437 69.969 37.5354C69.7105 37.0242 69.5813 36.4225 69.5813 35.7304C69.5813 35.0498 69.7105 34.4524 69.969 33.9384C70.2303 33.4214 70.5951 33.0194 71.0632 32.7322C71.5313 32.4421 72.0812 32.2971 72.713 32.2971C73.1208 32.2971 73.5057 32.3632 73.8675 32.4953C74.2322 32.6245 74.5539 32.8255 74.8325 33.0984C75.1139 33.3712 75.335 33.7187 75.4959 34.1408C75.6567 34.5601 75.7371 35.0598 75.7371 35.6399V36.1181H70.3136V35.067H74.2423C74.2394 34.7683 74.1748 34.5027 74.0484 34.2701C73.9221 34.0346 73.7455 33.8493 73.5186 33.7144C73.2946 33.5794 73.0333 33.5119 72.7346 33.5119C72.4158 33.5119 72.1358 33.5894 71.8946 33.7445C71.6533 33.8967 71.4652 34.0978 71.3302 34.3476C71.1981 34.5946 71.1307 34.866 71.1278 35.1618V36.0793C71.1278 36.4642 71.1981 36.7944 71.3389 37.0701C71.4796 37.3429 71.6763 37.5526 71.929 37.6991C72.1818 37.8426 72.4776 37.9144 72.8164 37.9144C73.0433 37.9144 73.2486 37.8829 73.4324 37.8197C73.6162 37.7536 73.7756 37.6574 73.9106 37.5311C74.0456 37.4047 74.1475 37.2482 74.2165 37.0615L75.6725 37.2252C75.5806 37.61 75.4054 37.946 75.1469 38.2332C74.8913 38.5175 74.5639 38.7387 74.1648 38.8966C73.7656 39.0517 73.3089 39.1292 72.7949 39.1292ZM79.9425 39.1292C79.282 39.1292 78.7148 38.9842 78.241 38.6941C77.77 38.4041 77.4067 38.0035 77.1511 37.4923C76.8984 36.9782 76.772 36.3866 76.772 35.7175C76.772 35.0455 76.9013 34.4524 77.1597 33.9384C77.4182 33.4214 77.7829 33.0194 78.2539 32.7322C78.7278 32.4421 79.2878 32.2971 79.9339 32.2971C80.471 32.2971 80.9463 32.3962 81.3598 32.5944C81.7762 32.7896 82.1079 33.0668 82.3549 33.4258C82.6019 33.7819 82.7426 34.1983 82.7771 34.675H81.2866C81.2263 34.3562 81.0827 34.0906 80.8558 33.8781C80.6318 33.6627 80.3317 33.555 79.9555 33.555C79.6367 33.555 79.3567 33.6411 79.1155 33.8135C78.8742 33.9829 78.6861 34.227 78.5511 34.5458C78.419 34.8645 78.353 35.2465 78.353 35.6916C78.353 36.1425 78.419 36.5302 78.5511 36.8547C78.6832 37.1764 78.8685 37.4248 79.1068 37.6C79.3481 37.7723 79.631 37.8584 79.9555 37.8584C80.1852 37.8584 80.3906 37.8154 80.5715 37.7292C80.7553 37.6402 80.9089 37.5124 81.0324 37.3458C81.1559 37.1793 81.2406 36.9768 81.2866 36.7384H82.7771C82.7397 37.2065 82.6019 37.6215 82.3635 37.9834C82.1251 38.3423 81.8006 38.6238 81.39 38.8277C80.9793 39.0287 80.4968 39.1292 79.9425 39.1292ZM87.3616 32.3833V33.5894H83.5578V32.3833H87.3616ZM84.4969 30.798H86.0563V37.0098C86.0563 37.2195 86.0879 37.3803 86.1511 37.4923C86.2172 37.6014 86.3033 37.6761 86.4096 37.7163C86.5158 37.7565 86.6336 37.7766 86.7628 37.7766C86.8605 37.7766 86.9495 37.7694 87.0299 37.7551C87.1132 37.7407 87.1764 37.7278 87.2194 37.7163L87.4822 38.9354C87.3989 38.9641 87.2797 38.9957 87.1247 39.0302C86.9725 39.0646 86.7858 39.0847 86.5647 39.0905C86.1741 39.102 85.8223 39.0431 85.5093 38.9138C85.1962 38.7817 84.9478 38.5778 84.764 38.3021C84.5831 38.0264 84.4941 37.6818 84.4969 37.2683V30.798ZM88.6658 39V32.3833H90.1778V33.4861H90.2467C90.3673 33.1041 90.5741 32.8097 90.867 32.603C91.1628 32.3933 91.5003 32.2885 91.8794 32.2885C91.9655 32.2885 92.0617 32.2928 92.168 32.3014C92.2771 32.3072 92.3676 32.3172 92.4394 32.3316V33.7661C92.3733 33.7431 92.2685 33.723 92.1249 33.7058C91.9842 33.6857 91.8478 33.6756 91.7157 33.6756C91.4314 33.6756 91.1758 33.7373 90.9489 33.8608C90.7249 33.9815 90.5483 34.1495 90.419 34.3648C90.2898 34.5802 90.2252 34.8286 90.2252 35.1101V39H88.6658ZM93.4754 39V32.3833H95.0348V39H93.4754ZM94.2594 31.4442C94.0124 31.4442 93.7999 31.3623 93.6219 31.1986C93.4438 31.0321 93.3548 30.8325 93.3548 30.5999C93.3548 30.3644 93.4438 30.1648 93.6219 30.0011C93.7999 29.8345 94.0124 29.7512 94.2594 29.7512C94.5093 29.7512 94.7218 29.8345 94.897 30.0011C95.075 30.1648 95.164 30.3644 95.164 30.5999C95.164 30.8325 95.075 31.0321 94.897 31.1986C94.7218 31.3623 94.5093 31.4442 94.2594 31.4442ZM99.5246 39.1292C98.864 39.1292 98.2969 38.9842 97.823 38.6941C97.352 38.4041 96.9887 38.0035 96.7331 37.4923C96.4804 36.9782 96.3541 36.3866 96.3541 35.7175C96.3541 35.0455 96.4833 34.4524 96.7418 33.9384C97.0002 33.4214 97.3649 33.0194 97.8359 32.7322C98.3098 32.4421 98.8698 32.2971 99.516 32.2971C100.053 32.2971 100.528 32.3962 100.942 32.5944C101.358 32.7896 101.69 33.0668 101.937 33.4258C102.184 33.7819 102.325 34.1983 102.359 34.675H100.869C100.808 34.3562 100.665 34.0906 100.438 33.8781C100.214 33.6627 99.9137 33.555 99.5375 33.555C99.2187 33.555 98.9387 33.6411 98.6975 33.8135C98.4562 33.9829 98.2681 34.227 98.1332 34.5458C98.0011 34.8645 97.935 35.2465 97.935 35.6916C97.935 36.1425 98.0011 36.5302 98.1332 36.8547C98.2653 37.1764 98.4505 37.4248 98.6889 37.6C98.9301 37.7723 99.213 37.8584 99.5375 37.8584C99.7672 37.8584 99.9726 37.8154 100.154 37.7292C100.337 37.6402 100.491 37.5124 100.614 37.3458C100.738 37.1793 100.823 36.9768 100.869 36.7384H102.359C102.322 37.2065 102.184 37.6215 101.946 37.9834C101.707 38.3423 101.383 38.6238 100.972 38.8277C100.561 39.0287 100.079 39.1292 99.5246 39.1292ZM103.64 39V32.3833H105.199V39H103.64ZM104.424 31.4442C104.177 31.4442 103.964 31.3623 103.786 31.1986C103.608 31.0321 103.519 30.8325 103.519 30.5999C103.519 30.3644 103.608 30.1648 103.786 30.0011C103.964 29.8345 104.177 29.7512 104.424 29.7512C104.673 29.7512 104.886 29.8345 105.061 30.0011C105.239 30.1648 105.328 30.3644 105.328 30.5999C105.328 30.8325 105.239 31.0321 105.061 31.1986C104.886 31.3623 104.673 31.4442 104.424 31.4442ZM108.707 39.1335C108.287 39.1335 107.91 39.0589 107.574 38.9095C107.24 38.7573 106.976 38.5333 106.781 38.2375C106.589 37.9417 106.492 37.577 106.492 37.1434C106.492 36.77 106.561 36.4613 106.699 36.2172C106.837 35.9731 107.025 35.7778 107.263 35.6313C107.502 35.4849 107.77 35.3743 108.069 35.2996C108.371 35.2221 108.682 35.1661 109.004 35.1316C109.392 35.0914 109.706 35.0555 109.947 35.0239C110.188 34.9895 110.364 34.9378 110.473 34.8689C110.585 34.7971 110.641 34.6865 110.641 34.5372V34.5113C110.641 34.1868 110.545 33.9355 110.352 33.7575C110.16 33.5794 109.883 33.4904 109.521 33.4904C109.139 33.4904 108.836 33.5737 108.612 33.7402C108.391 33.9068 108.241 34.1035 108.164 34.3304L106.708 34.1236C106.823 33.7216 107.012 33.3855 107.276 33.1156C107.541 32.8428 107.864 32.6389 108.246 32.5039C108.628 32.366 109.05 32.2971 109.512 32.2971C109.831 32.2971 110.148 32.3345 110.464 32.4091C110.78 32.4838 111.069 32.6073 111.33 32.7796C111.591 32.949 111.801 33.1802 111.959 33.4731C112.12 33.7661 112.2 34.1322 112.2 34.5716V39H110.701V38.0911H110.649C110.555 38.2749 110.421 38.4472 110.249 38.608C110.079 38.7659 109.865 38.8937 109.607 38.9914C109.351 39.0862 109.051 39.1335 108.707 39.1335ZM109.111 37.9877C109.425 37.9877 109.696 37.9259 109.926 37.8024C110.155 37.6761 110.332 37.5095 110.456 37.3027C110.582 37.096 110.645 36.8705 110.645 36.6264V35.8467C110.596 35.8869 110.513 35.9243 110.395 35.9587C110.28 35.9932 110.151 36.0233 110.008 36.0492C109.864 36.075 109.722 36.098 109.581 36.1181C109.44 36.1382 109.318 36.1554 109.215 36.1698C108.982 36.2014 108.774 36.2531 108.59 36.3249C108.406 36.3967 108.261 36.4972 108.155 36.6264C108.049 36.7528 107.996 36.9165 107.996 37.1175C107.996 37.4047 108.101 37.6215 108.31 37.768C108.52 37.9144 108.787 37.9877 109.111 37.9877ZM115.328 35.123V39H113.768V32.3833H115.259V33.5076H115.336C115.488 33.1371 115.731 32.8428 116.064 32.6245C116.4 32.4062 116.815 32.2971 117.309 32.2971C117.766 32.2971 118.164 32.3948 118.502 32.59C118.844 32.7853 119.108 33.0682 119.295 33.4387C119.485 33.8091 119.578 34.2586 119.575 34.787V39H118.016V35.0282C118.016 34.586 117.901 34.2399 117.671 33.9901C117.444 33.7402 117.13 33.6153 116.728 33.6153C116.455 33.6153 116.212 33.6756 116 33.7962C115.79 33.914 115.625 34.0848 115.504 34.3088C115.386 34.5328 115.328 34.8042 115.328 35.123ZM125.729 30.1777V39H124.169V30.1777H125.729ZM130.218 39.1292C129.572 39.1292 129.012 38.9871 128.538 38.7028C128.065 38.4185 127.697 38.0207 127.436 37.5095C127.177 36.9983 127.048 36.401 127.048 35.7175C127.048 35.034 127.177 34.4352 127.436 33.9211C127.697 33.4071 128.065 33.0079 128.538 32.7236C129.012 32.4393 129.572 32.2971 130.218 32.2971C130.865 32.2971 131.425 32.4393 131.898 32.7236C132.372 33.0079 132.739 33.4071 132.997 33.9211C133.258 34.4352 133.389 35.034 133.389 35.7175C133.389 36.401 133.258 36.9983 132.997 37.5095C132.739 38.0207 132.372 38.4185 131.898 38.7028C131.425 38.9871 130.865 39.1292 130.218 39.1292ZM130.227 37.88C130.577 37.88 130.87 37.7838 131.106 37.5914C131.341 37.3961 131.517 37.1347 131.631 36.8073C131.749 36.48 131.808 36.1152 131.808 35.7132C131.808 35.3082 131.749 34.9421 131.631 34.6147C131.517 34.2844 131.341 34.0217 131.106 33.8264C130.87 33.6311 130.577 33.5334 130.227 33.5334C129.868 33.5334 129.569 33.6311 129.331 33.8264C129.096 34.0217 128.919 34.2844 128.801 34.6147C128.686 34.9421 128.629 35.3082 128.629 35.7132C128.629 36.1152 128.686 36.48 128.801 36.8073C128.919 37.1347 129.096 37.3961 129.331 37.5914C129.569 37.7838 129.868 37.88 130.227 37.88ZM137.599 39.1292C136.953 39.1292 136.393 38.9871 135.919 38.7028C135.445 38.4185 135.077 38.0207 134.816 37.5095C134.557 36.9983 134.428 36.401 134.428 35.7175C134.428 35.034 134.557 34.4352 134.816 33.9211C135.077 33.4071 135.445 33.0079 135.919 32.7236C136.393 32.4393 136.953 32.2971 137.599 32.2971C138.245 32.2971 138.805 32.4393 139.279 32.7236C139.753 33.0079 140.119 33.4071 140.377 33.9211C140.639 34.4352 140.769 35.034 140.769 35.7175C140.769 36.401 140.639 36.9983 140.377 37.5095C140.119 38.0207 139.753 38.4185 139.279 38.7028C138.805 38.9871 138.245 39.1292 137.599 39.1292ZM137.607 37.88C137.958 37.88 138.251 37.7838 138.486 37.5914C138.722 37.3961 138.897 37.1347 139.012 36.8073C139.129 36.48 139.188 36.1152 139.188 35.7132C139.188 35.3082 139.129 34.9421 139.012 34.6147C138.897 34.2844 138.722 34.0217 138.486 33.8264C138.251 33.6311 137.958 33.5334 137.607 33.5334C137.248 33.5334 136.95 33.6311 136.711 33.8264C136.476 34.0217 136.299 34.2844 136.181 34.6147C136.067 34.9421 136.009 35.3082 136.009 35.7132C136.009 36.1152 136.067 36.48 136.181 36.8073C136.299 37.1347 136.476 37.3961 136.711 37.5914C136.95 37.7838 137.248 37.88 137.607 37.88ZM143.514 36.9237L143.51 35.0412H143.76L146.138 32.3833H147.96L145.035 35.6399H144.712L143.514 36.9237ZM142.093 39V30.1777H143.652V39H142.093ZM146.246 39L144.092 35.9889L145.143 34.8904L148.111 39H146.246ZM148.999 39V32.3833H150.559V39H148.999ZM149.783 31.4442C149.536 31.4442 149.324 31.3623 149.146 31.1986C148.968 31.0321 148.879 30.8325 148.879 30.5999C148.879 30.3644 148.968 30.1648 149.146 30.0011C149.324 29.8345 149.536 29.7512 149.783 29.7512C150.033 29.7512 150.246 29.8345 150.421 30.0011C150.599 30.1648 150.688 30.3644 150.688 30.5999C150.688 30.8325 150.599 31.0321 150.421 31.1986C150.246 31.3623 150.033 31.4442 149.783 31.4442ZM153.722 35.123V39H152.162V32.3833H153.653V33.5076H153.73C153.882 33.1371 154.125 32.8428 154.458 32.6245C154.794 32.4062 155.209 32.2971 155.703 32.2971C156.16 32.2971 156.558 32.3948 156.896 32.59C157.238 32.7853 157.502 33.0682 157.689 33.4387C157.879 33.8091 157.972 34.2586 157.969 34.787V39H156.41V35.0282C156.41 34.586 156.295 34.2399 156.065 33.9901C155.838 33.7402 155.524 33.6153 155.122 33.6153C154.849 33.6153 154.606 33.6756 154.394 33.7962C154.184 33.914 154.019 34.0848 153.898 34.3088C153.781 34.5328 153.722 34.8042 153.722 35.123ZM162.432 41.6191C161.872 41.6191 161.391 41.543 160.989 41.3908C160.587 41.2415 160.264 41.0404 160.02 40.7877C159.775 40.535 159.606 40.255 159.511 39.9477L160.916 39.6074C160.979 39.7366 161.071 39.8644 161.191 39.9908C161.312 40.12 161.474 40.2263 161.678 40.3096C161.885 40.3957 162.145 40.4388 162.458 40.4388C162.9 40.4388 163.266 40.3311 163.556 40.1157C163.846 39.9032 163.991 39.5528 163.991 39.0646V37.8111H163.914C163.833 37.9719 163.716 38.137 163.561 38.3064C163.408 38.4759 163.206 38.618 162.953 38.7329C162.703 38.8478 162.389 38.9052 162.01 38.9052C161.501 38.9052 161.041 38.786 160.627 38.5477C160.216 38.3064 159.889 37.9475 159.645 37.4707C159.404 36.9911 159.283 36.3909 159.283 35.6701C159.283 34.9435 159.404 34.3304 159.645 33.8307C159.889 33.3281 160.218 32.9476 160.631 32.6891C161.045 32.4278 161.506 32.2971 162.014 32.2971C162.402 32.2971 162.721 32.3632 162.97 32.4953C163.223 32.6245 163.424 32.781 163.573 32.9648C163.723 33.1457 163.836 33.3166 163.914 33.4774H164V32.3833H165.538V39.1077C165.538 39.6734 165.403 40.1416 165.133 40.512C164.863 40.8825 164.494 41.1596 164.026 41.3434C163.558 41.5272 163.026 41.6191 162.432 41.6191ZM162.445 37.6818C162.775 37.6818 163.057 37.6014 163.289 37.4406C163.522 37.2798 163.698 37.0486 163.819 36.747C163.94 36.4455 164 36.0836 164 35.6615C164 35.2451 163.94 34.8803 163.819 34.5673C163.701 34.2543 163.526 34.0116 163.293 33.8393C163.064 33.6641 162.781 33.5765 162.445 33.5765C162.097 33.5765 161.807 33.667 161.575 33.8479C161.342 34.0288 161.167 34.2773 161.049 34.5932C160.931 34.9062 160.873 35.2623 160.873 35.6615C160.873 36.0664 160.931 36.4211 161.049 36.7255C161.17 37.027 161.346 37.2625 161.579 37.432C161.814 37.5985 162.103 37.6818 162.445 37.6818ZM173.449 32.3833V33.5894H169.645V32.3833H173.449ZM170.584 30.798H172.144V37.0098C172.144 37.2195 172.175 37.3803 172.239 37.4923C172.305 37.6014 172.391 37.6761 172.497 37.7163C172.603 37.7565 172.721 37.7766 172.85 37.7766C172.948 37.7766 173.037 37.7694 173.117 37.7551C173.201 37.7407 173.264 37.7278 173.307 37.7163L173.57 38.9354C173.486 38.9641 173.367 38.9957 173.212 39.0302C173.06 39.0646 172.873 39.0847 172.652 39.0905C172.262 39.102 171.91 39.0431 171.597 38.9138C171.284 38.7817 171.035 38.5778 170.851 38.3021C170.671 38.0264 170.581 37.6818 170.584 37.2683V30.798ZM177.568 39.1292C176.922 39.1292 176.362 38.9871 175.888 38.7028C175.414 38.4185 175.047 38.0207 174.786 37.5095C174.527 36.9983 174.398 36.401 174.398 35.7175C174.398 35.034 174.527 34.4352 174.786 33.9211C175.047 33.4071 175.414 33.0079 175.888 32.7236C176.362 32.4393 176.922 32.2971 177.568 32.2971C178.215 32.2971 178.775 32.4393 179.248 32.7236C179.722 33.0079 180.088 33.4071 180.347 33.9211C180.608 34.4352 180.739 35.034 180.739 35.7175C180.739 36.401 180.608 36.9983 180.347 37.5095C180.088 38.0207 179.722 38.4185 179.248 38.7028C178.775 38.9871 178.215 39.1292 177.568 39.1292ZM177.577 37.88C177.927 37.88 178.22 37.7838 178.456 37.5914C178.691 37.3961 178.866 37.1347 178.981 36.8073C179.099 36.48 179.158 36.1152 179.158 35.7132C179.158 35.3082 179.099 34.9421 178.981 34.6147C178.866 34.2844 178.691 34.0217 178.456 33.8264C178.22 33.6311 177.927 33.5334 177.577 33.5334C177.218 33.5334 176.919 33.6311 176.681 33.8264C176.445 34.0217 176.269 34.2844 176.151 34.6147C176.036 34.9421 175.979 35.3082 175.979 35.7132C175.979 36.1152 176.036 36.48 176.151 36.8073C176.269 37.1347 176.445 37.3961 176.681 37.5914C176.919 37.7838 177.218 37.88 177.577 37.88ZM190.301 34.1322L188.879 34.2873C188.839 34.1437 188.769 34.0087 188.668 33.8824C188.571 33.756 188.439 33.6541 188.272 33.5765C188.105 33.499 187.902 33.4602 187.66 33.4602C187.336 33.4602 187.063 33.5306 186.842 33.6713C186.624 33.812 186.516 33.9944 186.519 34.2184C186.516 34.4108 186.586 34.5673 186.73 34.6879C186.876 34.8085 187.118 34.9076 187.454 34.9852L188.582 35.2264C189.208 35.3614 189.674 35.5753 189.978 35.8683C190.285 36.1612 190.44 36.5446 190.443 37.0184C190.44 37.4348 190.318 37.8024 190.077 38.1212C189.839 38.4371 189.507 38.6841 189.082 38.8622C188.657 39.0402 188.169 39.1292 187.617 39.1292C186.807 39.1292 186.156 38.9598 185.662 38.6209C185.168 38.2792 184.873 37.8039 184.778 37.195L186.299 37.0486C186.368 37.3473 186.514 37.5727 186.738 37.7249C186.962 37.8771 187.254 37.9532 187.613 37.9532C187.983 37.9532 188.281 37.8771 188.505 37.7249C188.732 37.5727 188.845 37.3846 188.845 37.1606C188.845 36.971 188.772 36.8145 188.625 36.691C188.482 36.5675 188.258 36.4728 187.953 36.4067L186.825 36.1698C186.19 36.0377 185.72 35.8151 185.416 35.5021C185.112 35.1862 184.961 34.787 184.964 34.3045C184.961 33.8967 185.071 33.5435 185.295 33.2448C185.522 32.9433 185.837 32.7107 186.239 32.547C186.644 32.3804 187.11 32.2971 187.639 32.2971C188.414 32.2971 189.024 32.4622 189.47 32.7925C189.918 33.1228 190.195 33.5693 190.301 34.1322ZM193.095 39L191.225 32.3833H192.815L193.978 37.0357H194.038L195.227 32.3833H196.799L197.988 37.0098H198.053L199.199 32.3833H200.793L198.919 39H197.295L196.054 34.5285H195.964L194.723 39H193.095ZM201.881 39V32.3833H203.441V39H201.881ZM202.665 31.4442C202.418 31.4442 202.206 31.3623 202.028 31.1986C201.85 31.0321 201.761 30.8325 201.761 30.5999C201.761 30.3644 201.85 30.1648 202.028 30.0011C202.206 29.8345 202.418 29.7512 202.665 29.7512C202.915 29.7512 203.128 29.8345 203.303 30.0011C203.481 30.1648 203.57 30.3644 203.57 30.5999C203.57 30.8325 203.481 31.0321 203.303 31.1986C203.128 31.3623 202.915 31.4442 202.665 31.4442ZM208.348 32.3833V33.5894H204.545V32.3833H208.348ZM205.484 30.798H207.043V37.0098C207.043 37.2195 207.075 37.3803 207.138 37.4923C207.204 37.6014 207.29 37.6761 207.396 37.7163C207.503 37.7565 207.62 37.7766 207.75 37.7766C207.847 37.7766 207.936 37.7694 208.017 37.7551C208.1 37.7407 208.163 37.7278 208.206 37.7163L208.469 38.9354C208.386 38.9641 208.267 38.9957 208.111 39.0302C207.959 39.0646 207.773 39.0847 207.551 39.0905C207.161 39.102 206.809 39.0431 206.496 38.9138C206.183 38.7817 205.935 38.5778 205.751 38.3021C205.57 38.0264 205.481 37.6818 205.484 37.2683V30.798ZM212.468 39.1292C211.807 39.1292 211.24 38.9842 210.766 38.6941C210.295 38.4041 209.932 38.0035 209.676 37.4923C209.424 36.9782 209.297 36.3866 209.297 35.7175C209.297 35.0455 209.426 34.4524 209.685 33.9384C209.943 33.4214 210.308 33.0194 210.779 32.7322C211.253 32.4421 211.813 32.2971 212.459 32.2971C212.996 32.2971 213.471 32.3962 213.885 32.5944C214.301 32.7896 214.633 33.0668 214.88 33.4258C215.127 33.7819 215.268 34.1983 215.302 34.675H213.812C213.751 34.3562 213.608 34.0906 213.381 33.8781C213.157 33.6627 212.857 33.555 212.481 33.555C212.162 33.555 211.882 33.6411 211.641 33.8135C211.399 33.9829 211.211 34.227 211.076 34.5458C210.944 34.8645 210.878 35.2465 210.878 35.6916C210.878 36.1425 210.944 36.5302 211.076 36.8547C211.208 37.1764 211.394 37.4248 211.632 37.6C211.873 37.7723 212.156 37.8584 212.481 37.8584C212.71 37.8584 212.916 37.8154 213.097 37.7292C213.28 37.6402 213.434 37.5124 213.558 37.3458C213.681 37.1793 213.766 36.9768 213.812 36.7384H215.302C215.265 37.2065 215.127 37.6215 214.889 37.9834C214.65 38.3423 214.326 38.6238 213.915 38.8277C213.504 39.0287 213.022 39.1292 212.468 39.1292ZM218.142 35.123V39H216.583V30.1777H218.108V33.5076H218.185C218.34 33.1343 218.58 32.8399 218.905 32.6245C219.232 32.4062 219.648 32.2971 220.154 32.2971C220.613 32.2971 221.014 32.3933 221.356 32.5857C221.697 32.7782 221.962 33.0596 222.148 33.4301C222.338 33.8005 222.433 34.2528 222.433 34.787V39H220.873V35.0282C220.873 34.5831 220.758 34.237 220.529 33.9901C220.302 33.7402 219.983 33.6153 219.572 33.6153C219.297 33.6153 219.05 33.6756 218.831 33.7962C218.616 33.914 218.447 34.0848 218.323 34.3088C218.202 34.5328 218.142 34.8042 218.142 35.123ZM227.031 39V32.3833H228.591V39H227.031ZM227.815 31.4442C227.568 31.4442 227.356 31.3623 227.178 31.1986C227 31.0321 226.911 30.8325 226.911 30.5999C226.911 30.3644 227 30.1648 227.178 30.0011C227.356 29.8345 227.568 29.7512 227.815 29.7512C228.065 29.7512 228.278 29.8345 228.453 30.0011C228.631 30.1648 228.72 30.3644 228.72 30.5999C228.72 30.8325 228.631 31.0321 228.453 31.1986C228.278 31.3623 228.065 31.4442 227.815 31.4442ZM231.754 35.123V39H230.194V32.3833H231.685V33.5076H231.762C231.914 33.1371 232.157 32.8428 232.49 32.6245C232.826 32.4062 233.241 32.2971 233.735 32.2971C234.192 32.2971 234.589 32.3948 234.928 32.59C235.27 32.7853 235.534 33.0682 235.721 33.4387C235.911 33.8091 236.004 34.2586 236.001 34.787V39H234.442V35.0282C234.442 34.586 234.327 34.2399 234.097 33.9901C233.87 33.7402 233.556 33.6153 233.154 33.6153C232.881 33.6153 232.638 33.6756 232.426 33.7962C232.216 33.914 232.051 34.0848 231.93 34.3088C231.812 34.5328 231.754 34.8042 231.754 35.123ZM240.89 32.3833V33.5894H237.087V32.3833H240.89ZM238.026 30.798H239.585V37.0098C239.585 37.2195 239.617 37.3803 239.68 37.4923C239.746 37.6014 239.832 37.6761 239.938 37.7163C240.045 37.7565 240.162 37.7766 240.292 37.7766C240.389 37.7766 240.478 37.7694 240.559 37.7551C240.642 37.7407 240.705 37.7278 240.748 37.7163L241.011 38.9354C240.928 38.9641 240.808 38.9957 240.653 39.0302C240.501 39.0646 240.315 39.0847 240.093 39.0905C239.703 39.102 239.351 39.0431 239.038 38.9138C238.725 38.7817 238.477 38.5778 238.293 38.3021C238.112 38.0264 238.023 37.6818 238.026 37.2683V30.798ZM245.01 39.1292C244.363 39.1292 243.803 38.9871 243.33 38.7028C242.856 38.4185 242.488 38.0207 242.227 37.5095C241.968 36.9983 241.839 36.401 241.839 35.7175C241.839 35.034 241.968 34.4352 242.227 33.9211C242.488 33.4071 242.856 33.0079 243.33 32.7236C243.803 32.4393 244.363 32.2971 245.01 32.2971C245.656 32.2971 246.216 32.4393 246.69 32.7236C247.164 33.0079 247.53 33.4071 247.788 33.9211C248.049 34.4352 248.18 35.034 248.18 35.7175C248.18 36.401 248.049 36.9983 247.788 37.5095C247.53 38.0207 247.164 38.4185 246.69 38.7028C246.216 38.9871 245.656 39.1292 245.01 39.1292ZM245.018 37.88C245.369 37.88 245.662 37.7838 245.897 37.5914C246.133 37.3961 246.308 37.1347 246.423 36.8073C246.54 36.48 246.599 36.1152 246.599 35.7132C246.599 35.3082 246.54 34.9421 246.423 34.6147C246.308 34.2844 246.133 34.0217 245.897 33.8264C245.662 33.6311 245.369 33.5334 245.018 33.5334C244.659 33.5334 244.361 33.6311 244.122 33.8264C243.887 34.0217 243.71 34.2844 243.592 34.6147C243.477 34.9421 243.42 35.3082 243.42 35.7132C243.42 36.1152 243.477 36.48 243.592 36.8073C243.71 37.1347 243.887 37.3961 244.122 37.5914C244.361 37.7838 244.659 37.88 245.018 37.88ZM254.417 39.1335C253.997 39.1335 253.62 39.0589 253.284 38.9095C252.951 38.7573 252.686 38.5333 252.491 38.2375C252.299 37.9417 252.203 37.577 252.203 37.1434C252.203 36.77 252.271 36.4613 252.409 36.2172C252.547 35.9731 252.735 35.7778 252.974 35.6313C253.212 35.4849 253.48 35.3743 253.779 35.2996C254.081 35.2221 254.392 35.1661 254.714 35.1316C255.102 35.0914 255.416 35.0555 255.657 35.0239C255.899 34.9895 256.074 34.9378 256.183 34.8689C256.295 34.7971 256.351 34.6865 256.351 34.5372V34.5113C256.351 34.1868 256.255 33.9355 256.062 33.7575C255.87 33.5794 255.593 33.4904 255.231 33.4904C254.849 33.4904 254.546 33.5737 254.322 33.7402C254.101 33.9068 253.951 34.1035 253.874 34.3304L252.418 34.1236C252.533 33.7216 252.722 33.3855 252.987 33.1156C253.251 32.8428 253.574 32.6389 253.956 32.5039C254.338 32.366 254.76 32.2971 255.222 32.2971C255.541 32.2971 255.858 32.3345 256.174 32.4091C256.49 32.4838 256.779 32.6073 257.04 32.7796C257.301 32.949 257.511 33.1802 257.669 33.4731C257.83 33.7661 257.91 34.1322 257.91 34.5716V39H256.411V38.0911H256.36C256.265 38.2749 256.131 38.4472 255.959 38.608C255.789 38.7659 255.575 38.8937 255.317 38.9914C255.061 39.0862 254.761 39.1335 254.417 39.1335ZM254.822 37.9877C255.135 37.9877 255.406 37.9259 255.636 37.8024C255.866 37.6761 256.042 37.5095 256.166 37.3027C256.292 37.096 256.355 36.8705 256.355 36.6264V35.8467C256.306 35.8869 256.223 35.9243 256.105 35.9587C255.99 35.9932 255.861 36.0233 255.718 36.0492C255.574 36.075 255.432 36.098 255.291 36.1181C255.15 36.1382 255.028 36.1554 254.925 36.1698C254.692 36.2014 254.484 36.2531 254.3 36.3249C254.117 36.3967 253.972 36.4972 253.865 36.6264C253.759 36.7528 253.706 36.9165 253.706 37.1175C253.706 37.4047 253.811 37.6215 254.02 37.768C254.23 37.9144 254.497 37.9877 254.822 37.9877ZM264.047 35.123V39H262.487V32.3833H263.978V33.5076H264.055C264.208 33.1371 264.45 32.8428 264.783 32.6245C265.119 32.4062 265.534 32.2971 266.028 32.2971C266.485 32.2971 266.883 32.3948 267.222 32.59C267.563 32.7853 267.827 33.0682 268.014 33.4387C268.204 33.8091 268.297 34.2586 268.294 34.787V39H266.735V35.0282C266.735 34.586 266.62 34.2399 266.39 33.9901C266.163 33.7402 265.849 33.6153 265.447 33.6153C265.174 33.6153 264.931 33.6756 264.719 33.7962C264.509 33.914 264.344 34.0848 264.223 34.3088C264.106 34.5328 264.047 34.8042 264.047 35.123ZM272.809 39.1292C272.145 39.1292 271.572 38.9914 271.09 38.7157C270.61 38.4371 270.241 38.0437 269.983 37.5354C269.724 37.0242 269.595 36.4225 269.595 35.7304C269.595 35.0498 269.724 34.4524 269.983 33.9384C270.244 33.4214 270.609 33.0194 271.077 32.7322C271.545 32.4421 272.095 32.2971 272.727 32.2971C273.135 32.2971 273.519 32.3632 273.881 32.4953C274.246 32.6245 274.568 32.8255 274.846 33.0984C275.128 33.3712 275.349 33.7187 275.51 34.1408C275.67 34.5601 275.751 35.0598 275.751 35.6399V36.1181H270.327V35.067H274.256C274.253 34.7683 274.189 34.5027 274.062 34.2701C273.936 34.0346 273.759 33.8493 273.532 33.7144C273.308 33.5794 273.047 33.5119 272.748 33.5119C272.43 33.5119 272.15 33.5894 271.908 33.7445C271.667 33.8967 271.479 34.0978 271.344 34.3476C271.212 34.5946 271.144 34.866 271.142 35.1618V36.0793C271.142 36.4642 271.212 36.7944 271.353 37.0701C271.493 37.3429 271.69 37.5526 271.943 37.6991C272.196 37.8426 272.491 37.9144 272.83 37.9144C273.057 37.9144 273.262 37.8829 273.446 37.8197C273.63 37.7536 273.789 37.6574 273.924 37.5311C274.059 37.4047 274.161 37.2482 274.23 37.0615L275.686 37.2252C275.594 37.61 275.419 37.946 275.161 38.2332C274.905 38.5175 274.578 38.7387 274.179 38.8966C273.779 39.0517 273.323 39.1292 272.809 39.1292ZM278.4 39L276.531 32.3833H278.12L279.283 37.0357H279.344L280.533 32.3833H282.105L283.294 37.0098H283.358L284.504 32.3833H286.098L284.224 39H282.6L281.36 34.5285H281.269L280.029 39H278.4ZM293.547 32.3833V33.5894H289.636V32.3833H293.547ZM290.614 39V31.7586C290.614 31.3135 290.706 30.943 290.889 30.6472C291.076 30.3514 291.326 30.1303 291.639 29.9838C291.952 29.8374 292.3 29.7642 292.682 29.7642C292.951 29.7642 293.191 29.7857 293.401 29.8288C293.611 29.8718 293.766 29.9106 293.866 29.9451L293.556 31.1513C293.49 31.1311 293.407 31.111 293.306 31.0909C293.206 31.068 293.094 31.0565 292.97 31.0565C292.68 31.0565 292.475 31.1268 292.354 31.2676C292.236 31.4054 292.177 31.6036 292.177 31.862V39H290.614ZM294.769 39V32.3833H296.328V39H294.769ZM295.553 31.4442C295.306 31.4442 295.093 31.3623 294.915 31.1986C294.737 31.0321 294.648 30.8325 294.648 30.5999C294.648 30.3644 294.737 30.1648 294.915 30.0011C295.093 29.8345 295.306 29.7512 295.553 29.7512C295.802 29.7512 296.015 29.8345 296.19 30.0011C296.368 30.1648 296.457 30.3644 296.457 30.5999C296.457 30.8325 296.368 31.0321 296.19 31.1986C296.015 31.3623 295.802 31.4442 295.553 31.4442ZM300.861 39.1292C300.197 39.1292 299.625 38.9914 299.142 38.7157C298.662 38.4371 298.293 38.0437 298.035 37.5354C297.777 37.0242 297.647 36.4225 297.647 35.7304C297.647 35.0498 297.777 34.4524 298.035 33.9384C298.296 33.4214 298.661 33.0194 299.129 32.7322C299.597 32.4421 300.147 32.2971 300.779 32.2971C301.187 32.2971 301.572 32.3632 301.933 32.4953C302.298 32.6245 302.62 32.8255 302.898 33.0984C303.18 33.3712 303.401 33.7187 303.562 34.1408C303.723 34.5601 303.803 35.0598 303.803 35.6399V36.1181H298.38V35.067H302.308C302.305 34.7683 302.241 34.5027 302.114 34.2701C301.988 34.0346 301.811 33.8493 301.585 33.7144C301.361 33.5794 301.099 33.5119 300.801 33.5119C300.482 33.5119 300.202 33.5894 299.961 33.7445C299.719 33.8967 299.531 34.0978 299.396 34.3476C299.264 34.5946 299.197 34.866 299.194 35.1618V36.0793C299.194 36.4642 299.264 36.7944 299.405 37.0701C299.546 37.3429 299.742 37.5526 299.995 37.6991C300.248 37.8426 300.544 37.9144 300.882 37.9144C301.109 37.9144 301.315 37.8829 301.498 37.8197C301.682 37.7536 301.842 37.6574 301.977 37.5311C302.112 37.4047 302.214 37.2482 302.282 37.0615L303.738 37.2252C303.647 37.61 303.471 37.946 303.213 38.2332C302.957 38.5175 302.63 38.7387 302.231 38.8966C301.832 39.0517 301.375 39.1292 300.861 39.1292ZM306.682 30.1777V39H305.122V30.1777H306.682ZM310.741 39.1163C310.221 39.1163 309.756 38.9828 309.345 38.7157C308.934 38.4486 308.61 38.0609 308.371 37.5526C308.133 37.0443 308.014 36.4268 308.014 35.7003C308.014 34.9651 308.135 34.3447 308.376 33.8393C308.62 33.331 308.949 32.9476 309.362 32.6891C309.776 32.4278 310.237 32.2971 310.745 32.2971C311.133 32.2971 311.451 32.3632 311.701 32.4953C311.951 32.6245 312.149 32.781 312.296 32.9648C312.442 33.1457 312.556 33.3166 312.636 33.4774H312.701V30.1777H314.264V39H312.731V37.9575H312.636C312.556 38.1183 312.439 38.2892 312.287 38.4701C312.135 38.6482 311.934 38.8004 311.684 38.9268C311.434 39.0531 311.12 39.1163 310.741 39.1163ZM311.176 37.8369C311.506 37.8369 311.787 37.7479 312.02 37.5698C312.253 37.3889 312.429 37.1376 312.55 36.816C312.671 36.4943 312.731 36.1195 312.731 35.6916C312.731 35.2637 312.671 34.8918 312.55 34.5759C312.432 34.26 312.257 34.0145 312.024 33.8393C311.795 33.6641 311.512 33.5765 311.176 33.5765C310.828 33.5765 310.538 33.667 310.306 33.8479C310.073 34.0288 309.898 34.2787 309.78 34.5975C309.662 34.9162 309.603 35.281 309.603 35.6916C309.603 36.1052 309.662 36.4742 309.78 36.7987C309.901 37.1204 310.077 37.3745 310.31 37.5612C310.545 37.745 310.834 37.8369 311.176 37.8369Z" fill="#3F4445"/>
<rect x="12" y="64" width="352" height="129" rx="10.2458" fill="white"/>
<rect x="33.0715" y="149.639" width="197.544" height="26.4672" rx="5.21945" fill="#399A6D"/>
<path d="M50.6348 166.373V158.171H51.6673V166.373H50.6348ZM54.0138 160.442V161.222H54.0367C54.4612 160.66 55.0577 160.304 55.9181 160.304C57.1571 160.304 57.9142 160.981 57.9142 162.209V166.373H56.985V162.289C56.985 161.52 56.4802 161.084 55.6428 161.084C54.7021 161.084 54.0138 161.75 54.0138 162.725V166.373H53.0845V160.442H54.0138ZM61.4398 166.545C59.8222 166.545 58.8127 165.329 58.8127 163.425C58.8127 161.452 59.9484 160.304 61.4168 160.304C62.2543 160.304 62.8967 160.717 63.2753 161.28H63.2982V158.171H64.2275V166.373H63.2982V165.65H63.2753C62.8279 166.224 62.2772 166.545 61.4398 166.545ZM61.4742 165.765C62.7935 165.765 63.3556 164.778 63.3556 163.436C63.3556 162.06 62.6902 161.096 61.4627 161.096C60.3385 161.096 59.7649 162.105 59.7649 163.436C59.7649 164.778 60.3385 165.765 61.4742 165.765ZM70.1898 166.373H69.2606V165.559H69.2376C68.8132 166.132 68.3084 166.511 67.448 166.511C66.232 166.511 65.4519 165.777 65.4519 164.549V160.442H66.3811V164.526C66.3811 165.295 66.8744 165.742 67.7119 165.742C68.6526 165.742 69.2606 165.031 69.2606 164.09V160.442H70.1898V166.373ZM73.6948 166.545C72.0658 166.545 71.1595 165.777 71.0678 164.446H72.0199C72.1461 165.478 72.8344 165.765 73.7178 165.765C74.6929 165.765 75.0944 165.341 75.0944 164.79C75.0944 164.125 74.6355 163.952 73.5457 163.723C72.3756 163.482 71.3316 163.241 71.3316 161.945C71.3316 160.958 72.0888 160.316 73.4654 160.316C74.9338 160.316 75.6565 161.016 75.7942 162.174H74.842C74.7503 161.394 74.3258 161.05 73.4425 161.05C72.5935 161.05 72.2494 161.429 72.2494 161.899C72.2494 162.541 72.823 162.668 73.844 162.874C75.0371 163.115 76.0351 163.379 76.0351 164.744C76.0351 165.937 75.06 166.545 73.6948 166.545ZM76.434 161.199V160.442H77.2944V158.572H78.2237V160.442H79.3708V161.199H78.2237V165.054C78.2237 165.467 78.4416 165.604 78.8202 165.604C79.0037 165.604 79.2102 165.559 79.3135 165.524H79.3479V166.327C79.1299 166.373 78.8776 166.407 78.6022 166.407C77.8451 166.407 77.2944 166.098 77.2944 165.26V161.199H76.434ZM81.2596 160.442V161.429H81.2825C81.6382 160.855 82.2577 160.373 83.0492 160.373C83.2213 160.373 83.3131 160.396 83.4278 160.442V161.337H83.3934C83.2557 161.291 83.1639 161.28 82.9804 161.28C82.0626 161.28 81.2596 161.968 81.2596 163.081V166.373H80.3304V160.442H81.2596ZM84.2626 166.373V160.442H85.1919V166.373H84.2626ZM84.2626 159.318V158.171H85.1919V159.318H84.2626ZM91.116 166.43C90.508 166.43 90.1868 166.155 90.095 165.547H90.0836C89.7279 166.006 89.1199 166.488 88.1104 166.488C86.9861 166.488 86.1028 165.96 86.1028 164.836C86.1028 163.436 87.2041 163.149 88.684 162.92C89.5214 162.794 90.1065 162.714 90.1065 162.071C90.1065 161.406 89.6247 161.027 88.7758 161.027C87.8121 161.027 87.3303 161.44 87.2959 162.335H86.4011C86.4355 161.188 87.1926 160.327 88.7643 160.327C90.0262 160.327 90.9554 160.798 90.9554 162.209V165.031C90.9554 165.513 91.0702 165.777 91.5864 165.662H91.6208V166.339C91.5061 166.385 91.357 166.43 91.116 166.43ZM88.3169 165.777C89.5559 165.777 90.118 164.87 90.118 164.182V163.172C89.8082 163.367 89.2691 163.517 88.7643 163.608C87.8351 163.78 87.0894 163.941 87.0894 164.813C87.0894 165.604 87.7089 165.777 88.3169 165.777ZM92.3409 166.373V158.171H93.2701V166.373H92.3409ZM96.5332 166.373V158.171H97.8525L100.514 164.985H100.537L103.175 158.171H104.518V166.373H103.531V159.628H103.508C103.508 159.628 103.29 160.27 103.141 160.66L100.893 166.373H100.101L97.8525 160.66C97.6919 160.247 97.4854 159.628 97.4854 159.628H97.4624V166.373H96.5332ZM110.576 166.43C109.968 166.43 109.647 166.155 109.555 165.547H109.543C109.188 166.006 108.58 166.488 107.57 166.488C106.446 166.488 105.563 165.96 105.563 164.836C105.563 163.436 106.664 163.149 108.144 162.92C108.981 162.794 109.566 162.714 109.566 162.071C109.566 161.406 109.084 161.027 108.235 161.027C107.272 161.027 106.79 161.44 106.756 162.335H105.861C105.895 161.188 106.652 160.327 108.224 160.327C109.486 160.327 110.415 160.798 110.415 162.209V165.031C110.415 165.513 110.53 165.777 111.046 165.662H111.081V166.339C110.966 166.385 110.817 166.43 110.576 166.43ZM107.777 165.777C109.016 165.777 109.578 164.87 109.578 164.182V163.172C109.268 163.367 108.729 163.517 108.224 163.608C107.295 163.78 106.549 163.941 106.549 164.813C106.549 165.604 107.169 165.777 107.777 165.777ZM111.766 166.373V160.442H112.695V166.373H111.766ZM111.766 159.318V158.171H112.695V159.318H111.766ZM114.891 160.442V161.222H114.914C115.339 160.66 115.935 160.304 116.796 160.304C118.034 160.304 118.792 160.981 118.792 162.209V166.373H117.862V162.289C117.862 161.52 117.358 161.084 116.52 161.084C115.579 161.084 114.891 161.75 114.891 162.725V166.373H113.962V160.442H114.891ZM119.532 161.199V160.442H120.393V158.572H121.322V160.442H122.469V161.199H121.322V165.054C121.322 165.467 121.54 165.604 121.918 165.604C122.102 165.604 122.308 165.559 122.412 165.524H122.446V166.327C122.228 166.373 121.976 166.407 121.7 166.407C120.943 166.407 120.393 166.098 120.393 165.26V161.199H119.532ZM125.908 166.534C124.095 166.534 123.04 165.134 123.04 163.413C123.04 161.692 124.164 160.293 125.85 160.293C127.629 160.293 128.581 161.67 128.581 163.631H123.992C124.061 164.836 124.715 165.754 125.908 165.754C126.768 165.754 127.342 165.341 127.548 164.538H128.455C128.179 165.811 127.25 166.534 125.908 166.534ZM125.85 161.027C124.749 161.027 124.153 161.853 124.015 162.931H127.583C127.525 161.75 126.917 161.027 125.85 161.027ZM130.419 160.442V161.222H130.442C130.866 160.66 131.463 160.304 132.323 160.304C133.562 160.304 134.319 160.981 134.319 162.209V166.373H133.39V162.289C133.39 161.52 132.885 161.084 132.048 161.084C131.107 161.084 130.419 161.75 130.419 162.725V166.373H129.489V160.442H130.419ZM140.208 166.43C139.6 166.43 139.279 166.155 139.187 165.547H139.175C138.82 166.006 138.212 166.488 137.202 166.488C136.078 166.488 135.195 165.96 135.195 164.836C135.195 163.436 136.296 163.149 137.776 162.92C138.613 162.794 139.198 162.714 139.198 162.071C139.198 161.406 138.716 161.027 137.868 161.027C136.904 161.027 136.422 161.44 136.388 162.335H135.493C135.527 161.188 136.284 160.327 137.856 160.327C139.118 160.327 140.047 160.798 140.047 162.209V165.031C140.047 165.513 140.162 165.777 140.678 165.662H140.713V166.339C140.598 166.385 140.449 166.43 140.208 166.43ZM137.409 165.777C138.648 165.777 139.21 164.87 139.21 164.182V163.172C138.9 163.367 138.361 163.517 137.856 163.608C136.927 163.78 136.181 163.941 136.181 164.813C136.181 165.604 136.801 165.777 137.409 165.777ZM142.327 160.442V161.222H142.35C142.775 160.66 143.371 160.304 144.232 160.304C145.471 160.304 146.228 160.981 146.228 162.209V166.373H145.299V162.289C145.299 161.52 144.794 161.084 143.956 161.084C143.016 161.084 142.327 161.75 142.327 162.725V166.373H141.398V160.442H142.327ZM149.994 166.534C148.228 166.534 147.126 165.134 147.126 163.413C147.126 161.692 148.228 160.293 149.994 160.293C151.394 160.293 152.323 161.096 152.53 162.358H151.589C151.451 161.555 150.889 161.062 149.994 161.062C148.732 161.062 148.079 162.105 148.079 163.413C148.079 164.721 148.732 165.754 149.994 165.754C150.958 165.754 151.532 165.203 151.612 164.285H152.53C152.403 165.708 151.474 166.534 149.994 166.534ZM155.943 166.534C154.131 166.534 153.075 165.134 153.075 163.413C153.075 161.692 154.199 160.293 155.886 160.293C157.664 160.293 158.616 161.67 158.616 163.631H154.027C154.096 164.836 154.75 165.754 155.943 165.754C156.804 165.754 157.377 165.341 157.584 164.538H158.49C158.215 165.811 157.285 166.534 155.943 166.534ZM155.886 161.027C154.785 161.027 154.188 161.853 154.05 162.931H157.618C157.561 161.75 156.953 161.027 155.886 161.027ZM160.972 159.077V158.171H167.465V159.077H164.735V166.373H163.703V159.077H160.972ZM169.622 166.534C167.81 166.534 166.754 165.134 166.754 163.413C166.754 161.692 167.878 160.293 169.565 160.293C171.343 160.293 172.295 161.67 172.295 163.631H167.706C167.775 164.836 168.429 165.754 169.622 165.754C170.483 165.754 171.056 165.341 171.263 164.538H172.169C171.894 165.811 170.964 166.534 169.622 166.534ZM169.565 161.027C168.463 161.027 167.867 161.853 167.729 162.931H171.297C171.24 161.75 170.632 161.027 169.565 161.027ZM175.739 166.534C173.972 166.534 172.871 165.134 172.871 163.413C172.871 161.692 173.972 160.293 175.739 160.293C177.139 160.293 178.068 161.096 178.274 162.358H177.334C177.196 161.555 176.634 161.062 175.739 161.062C174.477 161.062 173.823 162.105 173.823 163.413C173.823 164.721 174.477 165.754 175.739 165.754C176.703 165.754 177.276 165.203 177.357 164.285H178.274C178.148 165.708 177.219 166.534 175.739 166.534ZM180.082 158.171V161.222H180.105C180.529 160.66 181.126 160.304 181.986 160.304C183.225 160.304 183.982 160.981 183.982 162.209V166.373H183.053V162.289C183.053 161.52 182.548 161.084 181.711 161.084C180.77 161.084 180.082 161.75 180.082 162.725V166.373H179.153V158.171H180.082ZM186.143 160.442V161.222H186.166C186.59 160.66 187.187 160.304 188.047 160.304C189.286 160.304 190.043 160.981 190.043 162.209V166.373H189.114V162.289C189.114 161.52 188.609 161.084 187.772 161.084C186.831 161.084 186.143 161.75 186.143 162.725V166.373H185.213V160.442H186.143ZM191.274 166.373V160.442H192.203V166.373H191.274ZM191.274 159.318V158.171H192.203V159.318H191.274ZM196.005 166.534C194.239 166.534 193.137 165.134 193.137 163.413C193.137 161.692 194.239 160.293 196.005 160.293C197.405 160.293 198.334 161.096 198.541 162.358H197.6C197.462 161.555 196.9 161.062 196.005 161.062C194.743 161.062 194.09 162.105 194.09 163.413C194.09 164.721 194.743 165.754 196.005 165.754C196.969 165.754 197.543 165.203 197.623 164.285H198.541C198.414 165.708 197.485 166.534 196.005 166.534ZM199.419 166.373V160.442H200.348V166.373H199.419ZM199.419 159.318V158.171H200.348V159.318H199.419ZM206.272 166.43C205.664 166.43 205.343 166.155 205.251 165.547H205.24C204.884 166.006 204.276 166.488 203.267 166.488C202.142 166.488 201.259 165.96 201.259 164.836C201.259 163.436 202.36 163.149 203.84 162.92C204.678 162.794 205.263 162.714 205.263 162.071C205.263 161.406 204.781 161.027 203.932 161.027C202.968 161.027 202.487 161.44 202.452 162.335H201.557C201.592 161.188 202.349 160.327 203.921 160.327C205.182 160.327 206.112 160.798 206.112 162.209V165.031C206.112 165.513 206.226 165.777 206.743 165.662H206.777V166.339C206.662 166.385 206.513 166.43 206.272 166.43ZM203.473 165.777C204.712 165.777 205.274 164.87 205.274 164.182V163.172C204.964 163.367 204.425 163.517 203.921 163.608C202.991 163.78 202.246 163.941 202.246 164.813C202.246 165.604 202.865 165.777 203.473 165.777ZM208.392 160.442V161.222H208.415C208.839 160.66 209.436 160.304 210.296 160.304C211.535 160.304 212.292 160.981 212.292 162.209V166.373H211.363V162.289C211.363 161.52 210.858 161.084 210.021 161.084C209.08 161.084 208.392 161.75 208.392 162.725V166.373H207.463V160.442H208.392Z" fill="white"/>
<rect x="33.0715" y="149.639" width="197.544" height="26.4672" rx="5.21945" stroke="#40CF8E" stroke-width="1.15988"/>
<rect x="33.0333" y="112.033" width="99.3369" height="24.5813" rx="4.87608" fill="#399A6D"/>
<path d="M49.4199 128.324V120.661H54.8321V121.508H50.3844V123.93H54.4248V124.744H50.3844V127.434H54.9607V128.324H49.4199ZM56.8262 122.783V123.512H56.8477C57.2442 122.987 57.8015 122.654 58.6053 122.654C59.7628 122.654 60.4701 123.287 60.4701 124.433V128.324H59.602V124.509C59.602 123.79 59.1304 123.383 58.3481 123.383C57.4693 123.383 56.8262 124.005 56.8262 124.916V128.324H55.9581V122.783H56.8262ZM63.9888 128.474C62.2955 128.474 61.3095 127.166 61.3095 125.559C61.3095 123.951 62.3598 122.644 63.9352 122.644C65.5964 122.644 66.4859 123.93 66.4859 125.762H62.199C62.2633 126.888 62.8742 127.745 63.9888 127.745C64.7926 127.745 65.3284 127.359 65.5214 126.609H66.368C66.1108 127.799 65.2427 128.474 63.9888 128.474ZM63.9352 123.33C62.9063 123.33 62.349 124.101 62.2204 125.109H65.5535C65.4999 124.005 64.9319 123.33 63.9352 123.33ZM68.2028 122.783V123.705H68.2243C68.5565 123.169 69.1352 122.719 69.8747 122.719C70.0355 122.719 70.1212 122.74 70.2284 122.783V123.619H70.1962C70.0676 123.576 69.9819 123.565 69.8104 123.565C68.953 123.565 68.2028 124.208 68.2028 125.248V128.324H67.3347V122.783H68.2028ZM73.0068 130.167C71.5706 130.167 70.7561 129.588 70.6597 128.635H71.4635C71.5492 129.246 72.1279 129.481 72.9853 129.481C74.0035 129.481 74.5715 129.02 74.5715 128.056V127.274H74.55C74.1428 127.799 73.7034 128.131 72.9103 128.131C71.4742 128.131 70.4882 126.984 70.4882 125.387C70.4882 123.662 71.5706 122.654 72.8567 122.654C73.6605 122.654 74.1749 122.965 74.55 123.49H74.5715V122.783H75.4396V128.024C75.4396 129.481 74.475 130.167 73.0068 130.167ZM72.9532 127.402C74.2285 127.402 74.6358 126.513 74.6358 125.344C74.6358 124.133 74.1214 123.383 72.9425 123.383C71.9029 123.383 71.3777 124.198 71.3777 125.398C71.3777 126.609 71.9243 127.402 72.9532 127.402ZM77.3255 130.157C76.9932 130.157 76.7789 130.135 76.5431 130.039V129.267H76.586C76.7039 129.331 76.8861 129.385 77.1754 129.385C77.5398 129.385 77.7863 129.246 78.0007 128.71L78.215 128.163L76.0501 122.783H76.9932L78.3007 126.234C78.4722 126.695 78.6758 127.316 78.6758 127.316H78.6973C78.6973 127.316 78.8902 126.695 79.0617 126.234L80.3263 122.783H81.248L78.8795 128.774C78.4293 129.921 78.0007 130.157 77.3255 130.157ZM83.0853 128.324L85.904 120.661H86.9864L89.8157 128.324H88.7655L87.9509 125.987H84.8965L84.0713 128.324H83.0853ZM86.0861 122.633L85.1752 125.205H87.683L86.8042 122.633C86.6542 122.204 86.4612 121.551 86.4612 121.551H86.4398C86.4398 121.551 86.2362 122.194 86.0861 122.633ZM94.7541 128.324H93.886V127.563H93.8646C93.4681 128.099 92.9965 128.452 92.1927 128.452C91.0567 128.452 90.3279 127.767 90.3279 126.62V122.783H91.196V126.598C91.196 127.316 91.6568 127.734 92.4392 127.734C93.318 127.734 93.886 127.07 93.886 126.191V122.783H94.7541V128.324ZM98.0715 128.485C96.5603 128.485 95.6172 127.349 95.6172 125.57C95.6172 123.726 96.6782 122.654 98.05 122.654C98.8324 122.654 99.4325 123.04 99.7862 123.565H99.8076V120.661H100.676V128.324H99.8076V127.649H99.7862C99.3682 128.185 98.8538 128.485 98.0715 128.485ZM98.1036 127.756C99.3361 127.756 99.8612 126.834 99.8612 125.58C99.8612 124.294 99.2396 123.394 98.0929 123.394C97.0426 123.394 96.5067 124.337 96.5067 125.58C96.5067 126.834 97.0426 127.756 98.1036 127.756ZM101.852 128.324V122.783H102.72V128.324H101.852ZM101.852 121.733V120.661H102.72V121.733H101.852ZM103.549 123.49V122.783H104.353V121.036H105.221V122.783H106.293V123.49H105.221V127.091C105.221 127.477 105.425 127.606 105.779 127.606C105.95 127.606 106.143 127.563 106.24 127.531H106.272V128.281C106.068 128.324 105.832 128.356 105.575 128.356C104.868 128.356 104.353 128.067 104.353 127.284V123.49H103.549ZM109.506 128.474C107.855 128.474 106.826 127.166 106.826 125.559C106.826 123.951 107.855 122.644 109.506 122.644C111.167 122.644 112.174 123.951 112.174 125.559C112.174 127.166 111.167 128.474 109.506 128.474ZM109.506 127.745C110.685 127.745 111.285 126.781 111.285 125.559C111.285 124.337 110.685 123.362 109.506 123.362C108.327 123.362 107.716 124.337 107.716 125.559C107.716 126.781 108.327 127.745 109.506 127.745ZM113.908 122.783V123.705H113.93C114.262 123.169 114.841 122.719 115.58 122.719C115.741 122.719 115.826 122.74 115.934 122.783V123.619H115.902C115.773 123.576 115.687 123.565 115.516 123.565C114.658 123.565 113.908 124.208 113.908 125.248V128.324H113.04V122.783H113.908Z" fill="white"/>
<rect x="33.0333" y="112.033" width="99.3369" height="24.5813" rx="4.87608" stroke="#40CF8E" stroke-width="1.08357"/>
<rect x="220.824" y="112.033" width="119.337" height="24.5813" rx="4.87608" fill="#399A6D"/>
<path d="M237.21 128.324V120.661H242.622V121.508H238.175V123.93H242.215V124.744H238.175V127.434H242.751V128.324H237.21ZM243.78 128.324V120.661H244.649V128.324H243.78ZM248.231 128.474C246.538 128.474 245.552 127.166 245.552 125.559C245.552 123.951 246.602 122.644 248.177 122.644C249.839 122.644 250.728 123.93 250.728 125.762H246.441C246.505 126.888 247.116 127.745 248.231 127.745C249.035 127.745 249.571 127.359 249.764 126.609H250.61C250.353 127.799 249.485 128.474 248.231 128.474ZM248.177 123.33C247.149 123.33 246.591 124.101 246.463 125.109H249.796C249.742 124.005 249.174 123.33 248.177 123.33ZM253.945 128.474C252.295 128.474 251.266 127.166 251.266 125.559C251.266 123.951 252.295 122.644 253.945 122.644C255.253 122.644 256.121 123.394 256.314 124.573H255.435C255.307 123.823 254.781 123.362 253.945 123.362C252.767 123.362 252.156 124.337 252.156 125.559C252.156 126.781 252.767 127.745 253.945 127.745C254.846 127.745 255.382 127.231 255.457 126.373H256.314C256.196 127.702 255.328 128.474 253.945 128.474ZM256.781 123.49V122.783H257.585V121.036H258.453V122.783H259.524V123.49H258.453V127.091C258.453 127.477 258.656 127.606 259.01 127.606C259.181 127.606 259.374 127.563 259.471 127.531H259.503V128.281C259.299 128.324 259.064 128.356 258.806 128.356C258.099 128.356 257.585 128.067 257.585 127.284V123.49H256.781ZM261.289 122.783V123.705H261.31C261.643 123.169 262.221 122.719 262.961 122.719C263.121 122.719 263.207 122.74 263.314 122.783V123.619H263.282C263.154 123.576 263.068 123.565 262.896 123.565C262.039 123.565 261.289 124.208 261.289 125.248V128.324H260.421V122.783H261.289ZM264.094 128.324V122.783H264.962V128.324H264.094ZM264.094 121.733V120.661H264.962V121.733H264.094ZM268.514 128.474C266.864 128.474 265.835 127.166 265.835 125.559C265.835 123.951 266.864 122.644 268.514 122.644C269.822 122.644 270.69 123.394 270.883 124.573H270.004C269.875 123.823 269.35 123.362 268.514 123.362C267.335 123.362 266.724 124.337 266.724 125.559C266.724 126.781 267.335 127.745 268.514 127.745C269.414 127.745 269.95 127.231 270.025 126.373H270.883C270.765 127.702 269.897 128.474 268.514 128.474ZM276.159 128.377C275.591 128.377 275.291 128.12 275.205 127.552H275.194C274.862 127.981 274.294 128.431 273.351 128.431C272.301 128.431 271.476 127.938 271.476 126.888C271.476 125.58 272.504 125.312 273.887 125.098C274.669 124.98 275.216 124.905 275.216 124.305C275.216 123.683 274.766 123.33 273.973 123.33C273.072 123.33 272.622 123.715 272.59 124.551H271.754C271.786 123.48 272.494 122.676 273.962 122.676C275.141 122.676 276.009 123.115 276.009 124.433V127.07C276.009 127.52 276.116 127.767 276.598 127.659H276.631V128.292C276.523 128.335 276.384 128.377 276.159 128.377ZM273.544 127.767C274.701 127.767 275.227 126.92 275.227 126.277V125.334C274.937 125.516 274.434 125.655 273.962 125.741C273.094 125.902 272.397 126.052 272.397 126.866C272.397 127.606 272.976 127.767 273.544 127.767ZM277.303 128.324V120.661H278.171V128.324H277.303ZM281.241 128.324V120.661H282.206V128.324H281.241ZM284.398 122.783V123.512H284.419C284.816 122.987 285.373 122.654 286.177 122.654C287.334 122.654 288.042 123.287 288.042 124.433V128.324H287.174V124.509C287.174 123.79 286.702 123.383 285.92 123.383C285.041 123.383 284.398 124.005 284.398 124.916V128.324H283.53V122.783H284.398ZM291.293 128.485C289.771 128.485 288.924 127.767 288.838 126.523H289.728C289.846 127.488 290.489 127.756 291.314 127.756C292.225 127.756 292.6 127.359 292.6 126.845C292.6 126.223 292.171 126.063 291.153 125.848C290.06 125.623 289.085 125.398 289.085 124.187C289.085 123.265 289.792 122.665 291.078 122.665C292.45 122.665 293.125 123.319 293.254 124.401H292.364C292.278 123.673 291.882 123.351 291.057 123.351C290.264 123.351 289.942 123.705 289.942 124.144C289.942 124.744 290.478 124.862 291.432 125.055C292.546 125.28 293.479 125.527 293.479 126.802C293.479 127.917 292.568 128.485 291.293 128.485ZM294.31 130.103V122.783H295.178V123.565H295.199C295.617 122.997 296.175 122.654 296.978 122.654C298.382 122.654 299.358 123.726 299.358 125.57C299.358 127.349 298.447 128.485 296.946 128.485C296.196 128.485 295.66 128.26 295.199 127.67H295.178V130.103H294.31ZM296.882 127.756C297.943 127.756 298.468 126.834 298.468 125.58C298.468 124.337 297.943 123.394 296.893 123.394C295.682 123.394 295.124 124.38 295.124 125.58C295.124 126.781 295.607 127.756 296.882 127.756ZM302.592 128.474C300.898 128.474 299.912 127.166 299.912 125.559C299.912 123.951 300.963 122.644 302.538 122.644C304.199 122.644 305.089 123.93 305.089 125.762H300.802C300.866 126.888 301.477 127.745 302.592 127.745C303.395 127.745 303.931 127.359 304.124 126.609H304.971C304.714 127.799 303.846 128.474 302.592 128.474ZM302.538 123.33C301.509 123.33 300.952 124.101 300.823 125.109H304.156C304.103 124.005 303.535 123.33 302.538 123.33ZM308.306 128.474C306.656 128.474 305.627 127.166 305.627 125.559C305.627 123.951 306.656 122.644 308.306 122.644C309.614 122.644 310.482 123.394 310.675 124.573H309.796C309.667 123.823 309.142 123.362 308.306 123.362C307.127 123.362 306.516 124.337 306.516 125.559C306.516 126.781 307.127 127.745 308.306 127.745C309.206 127.745 309.742 127.231 309.817 126.373H310.675C310.557 127.702 309.689 128.474 308.306 128.474ZM311.141 123.49V122.783H311.945V121.036H312.813V122.783H313.885V123.49H312.813V127.091C312.813 127.477 313.017 127.606 313.371 127.606C313.542 127.606 313.735 127.563 313.831 127.531H313.864V128.281C313.66 128.324 313.424 128.356 313.167 128.356C312.46 128.356 311.945 128.067 311.945 127.284V123.49H311.141ZM317.098 128.474C315.447 128.474 314.418 127.166 314.418 125.559C314.418 123.951 315.447 122.644 317.098 122.644C318.759 122.644 319.766 123.951 319.766 125.559C319.766 127.166 318.759 128.474 317.098 128.474ZM317.098 127.745C318.277 127.745 318.877 126.781 318.877 125.559C318.877 124.337 318.277 123.362 317.098 123.362C315.919 123.362 315.308 124.337 315.308 125.559C315.308 126.781 315.919 127.745 317.098 127.745ZM321.5 122.783V123.705H321.521C321.854 123.169 322.432 122.719 323.172 122.719C323.333 122.719 323.418 122.74 323.526 122.783V123.619H323.493C323.365 123.576 323.279 123.565 323.108 123.565C322.25 123.565 321.5 124.208 321.5 125.248V128.324H320.632V122.783H321.5Z" fill="white"/>
<rect x="220.824" y="112.033" width="119.337" height="24.5813" rx="4.87608" stroke="#40CF8E" stroke-width="1.08357"/>
<rect x="144.005" y="112.033" width="64.3369" height="24.5813" rx="4.87608" fill="#399A6D"/>
<path d="M161.806 128.324L159.823 120.661H160.831L162.042 125.645C162.17 126.159 162.331 126.941 162.331 126.941H162.352C162.352 126.941 162.535 126.127 162.674 125.623L164.057 120.661H165.096L166.436 125.623C166.575 126.138 166.747 126.941 166.747 126.941H166.768C166.768 126.941 166.95 126.116 167.068 125.645L168.343 120.661H169.319L167.186 128.324H166.264L164.86 122.922C164.742 122.472 164.582 121.754 164.582 121.754H164.56C164.56 121.754 164.399 122.472 164.271 122.922L162.77 128.324H161.806ZM171.894 128.474C170.2 128.474 169.214 127.166 169.214 125.559C169.214 123.951 170.265 122.644 171.84 122.644C173.501 122.644 174.391 123.93 174.391 125.762H170.104C170.168 126.888 170.779 127.745 171.894 127.745C172.697 127.745 173.233 127.359 173.426 126.609H174.273C174.016 127.799 173.148 128.474 171.894 128.474ZM171.84 123.33C170.811 123.33 170.254 124.101 170.125 125.109H173.458C173.405 124.005 172.837 123.33 171.84 123.33ZM175.272 128.324V120.661H176.14V128.324H175.272ZM179.497 128.485C177.986 128.485 177.043 127.349 177.043 125.57C177.043 123.726 178.104 122.654 179.476 122.654C180.258 122.654 180.858 123.04 181.212 123.565H181.233V120.661H182.101V128.324H181.233V127.649H181.212C180.794 128.185 180.279 128.485 179.497 128.485ZM179.529 127.756C180.762 127.756 181.287 126.834 181.287 125.58C181.287 124.294 180.665 123.394 179.519 123.394C178.468 123.394 177.932 124.337 177.932 125.58C177.932 126.834 178.468 127.756 179.529 127.756ZM185.646 128.474C183.953 128.474 182.967 127.166 182.967 125.559C182.967 123.951 184.017 122.644 185.592 122.644C187.254 122.644 188.143 123.93 188.143 125.762H183.856C183.921 126.888 184.531 127.745 185.646 127.745C186.45 127.745 186.986 127.359 187.179 126.609H188.025C187.768 127.799 186.9 128.474 185.646 128.474ZM185.592 123.33C184.564 123.33 184.006 124.101 183.878 125.109H187.211C187.157 124.005 186.589 123.33 185.592 123.33ZM189.86 122.783V123.705H189.881C190.214 123.169 190.792 122.719 191.532 122.719C191.693 122.719 191.778 122.74 191.886 122.783V123.619H191.853C191.725 123.576 191.639 123.565 191.468 123.565C190.61 123.565 189.86 124.208 189.86 125.248V128.324H188.992V122.783H189.86Z" fill="white"/>
<rect x="144.005" y="112.033" width="64.3369" height="24.5813" rx="4.87608" stroke="#40CF8E" stroke-width="1.08357"/>
<rect x="241.364" y="149.601" width="97.9588" height="24.5813" rx="4.87608" fill="#399A6D"/>
<path d="M261.079 159.076V158.229H267.145V159.076H264.594V165.892H263.63V159.076H261.079ZM271.51 165.892H270.642V165.131H270.62C270.224 165.667 269.752 166.02 268.948 166.02C267.812 166.02 267.084 165.334 267.084 164.188V160.351H267.952V164.166C267.952 164.884 268.413 165.302 269.195 165.302C270.074 165.302 270.642 164.638 270.642 163.759V160.351H271.51V165.892ZM273.552 160.351V161.273H273.573C273.905 160.737 274.484 160.287 275.224 160.287C275.384 160.287 275.47 160.308 275.577 160.351V161.187H275.545C275.417 161.144 275.331 161.133 275.159 161.133C274.302 161.133 273.552 161.776 273.552 162.816V165.892H272.684V160.351H273.552ZM278.994 166.052C278.244 166.052 277.697 165.785 277.247 165.163H277.225V165.892H276.357V158.229H277.225V161.144H277.247C277.665 160.576 278.222 160.222 279.026 160.222C280.43 160.222 281.384 161.294 281.384 163.137C281.384 164.916 280.494 166.052 278.994 166.052ZM278.929 165.324C279.99 165.324 280.494 164.402 280.494 163.148C280.494 161.905 279.99 160.962 278.94 160.962C277.729 160.962 277.172 161.948 277.172 163.148C277.172 164.391 277.751 165.324 278.929 165.324ZM282.25 165.892V160.351H283.118V165.892H282.25ZM282.25 159.301V158.229H283.118V159.301H282.25ZM285.169 160.351V161.08H285.191C285.587 160.555 286.144 160.222 286.948 160.222C288.106 160.222 288.813 160.855 288.813 162.001V165.892H287.945V162.076C287.945 161.358 287.473 160.951 286.691 160.951C285.812 160.951 285.169 161.573 285.169 162.484V165.892H284.301V160.351H285.169ZM292.332 166.042C290.638 166.042 289.652 164.734 289.652 163.127C289.652 161.519 290.703 160.212 292.278 160.212C293.939 160.212 294.829 161.498 294.829 163.33H290.542C290.606 164.456 291.217 165.313 292.332 165.313C293.135 165.313 293.671 164.927 293.864 164.177H294.711C294.454 165.367 293.586 166.042 292.332 166.042ZM292.278 160.897C291.249 160.897 290.692 161.669 290.563 162.677H293.896C293.843 161.573 293.275 160.897 292.278 160.897ZM297.03 159.076V158.229H303.096V159.076H300.545V165.892H299.581V159.076H297.03ZM305.111 166.042C303.417 166.042 302.431 164.734 302.431 163.127C302.431 161.519 303.482 160.212 305.057 160.212C306.718 160.212 307.608 161.498 307.608 163.33H303.321C303.385 164.456 303.996 165.313 305.111 165.313C305.915 165.313 306.45 164.927 306.643 164.177H307.49C307.233 165.367 306.365 166.042 305.111 166.042ZM305.057 160.897C304.028 160.897 303.471 161.669 303.342 162.677H306.675C306.622 161.573 306.054 160.897 305.057 160.897ZM310.825 166.042C309.175 166.042 308.146 164.734 308.146 163.127C308.146 161.519 309.175 160.212 310.825 160.212C312.133 160.212 313.001 160.962 313.194 162.141H312.315C312.186 161.39 311.661 160.93 310.825 160.93C309.646 160.93 309.035 161.905 309.035 163.127C309.035 164.348 309.646 165.313 310.825 165.313C311.725 165.313 312.261 164.799 312.336 163.941H313.194C313.076 165.27 312.208 166.042 310.825 166.042ZM314.882 158.229V161.08H314.904C315.3 160.555 315.858 160.222 316.661 160.222C317.819 160.222 318.526 160.855 318.526 162.001V165.892H317.658V162.076C317.658 161.358 317.186 160.951 316.404 160.951C315.525 160.951 314.882 161.573 314.882 162.484V165.892H314.014V158.229H314.882Z" fill="white"/>
<rect x="241.364" y="149.601" width="97.9588" height="24.5813" rx="4.87608" stroke="#40CF8E" stroke-width="1.08357"/>
<path d="M65.198 94.2295V85.4077H66.7961V89.1423H70.8839V85.4077H72.4863V94.2295H70.8839V90.4819H66.7961V94.2295H65.198ZM77.0846 94.3587C76.4213 94.3587 75.8484 94.2209 75.3659 93.9452C74.8864 93.6666 74.5173 93.2732 74.2589 92.7649C74.0004 92.2538 73.8712 91.6522 73.8712 90.9601C73.8712 90.2795 74.0004 89.6822 74.2589 89.1681C74.5202 88.6512 74.8849 88.2492 75.353 87.962C75.8211 87.672 76.371 87.527 77.0028 87.527C77.4106 87.527 77.7954 87.593 78.1572 87.7251C78.5219 87.8543 78.8435 88.0554 79.1221 88.3282C79.4035 88.601 79.6246 88.9485 79.7854 89.3706C79.9463 89.7899 80.0267 90.2895 80.0267 90.8696V91.3478H74.6035V90.2967H78.532C78.5291 89.9981 78.4645 89.7324 78.3381 89.4998C78.2118 89.2643 78.0352 89.0791 77.8083 88.9442C77.5843 88.8092 77.323 88.7417 77.0243 88.7417C76.7056 88.7417 76.4256 88.8192 76.1844 88.9743C75.9431 89.1265 75.755 89.3275 75.6201 89.5774C75.488 89.8243 75.4205 90.0957 75.4176 90.3915V91.309C75.4176 91.6938 75.488 92.024 75.6287 92.2997C75.7694 92.5725 75.9661 92.7822 76.2188 92.9286C76.4715 93.0722 76.7673 93.144 77.1062 93.144C77.333 93.144 77.5384 93.1124 77.7221 93.0492C77.9059 92.9832 78.0653 92.887 78.2003 92.7606C78.3352 92.6343 78.4372 92.4778 78.5061 92.2911L79.9621 92.4548C79.8702 92.8396 79.695 93.1756 79.4365 93.4628C79.181 93.747 78.8536 93.9682 78.4544 94.1261C78.0553 94.2812 77.5987 94.3587 77.0846 94.3587ZM81.3458 94.2295V87.6131H82.8578V88.7159H82.9267C83.0473 88.3339 83.2541 88.0396 83.547 87.8328C83.8428 87.6232 84.1802 87.5184 84.5593 87.5184C84.6454 87.5184 84.7416 87.5227 84.8479 87.5313C84.957 87.537 85.0475 87.5471 85.1192 87.5614V88.9958C85.0532 88.9729 84.9484 88.9528 84.8048 88.9355C84.6641 88.9154 84.5277 88.9054 84.3956 88.9054C84.1113 88.9054 83.8557 88.9671 83.6288 89.0906C83.4048 89.2112 83.2282 89.3792 83.099 89.5946C82.9698 89.81 82.9052 90.0584 82.9052 90.3398V94.2295H81.3458ZM88.8119 94.3587C88.1485 94.3587 87.5756 94.2209 87.0932 93.9452C86.6136 93.6666 86.2446 93.2732 85.9861 92.7649C85.7277 92.2538 85.5985 91.6522 85.5985 90.9601C85.5985 90.2795 85.7277 89.6822 85.9861 89.1681C86.2475 88.6512 86.6122 88.2492 87.0802 87.962C87.5483 87.672 88.0983 87.527 88.73 87.527C89.1378 87.527 89.5226 87.593 89.8844 87.7251C90.2492 87.8543 90.5708 88.0554 90.8493 88.3282C91.1308 88.601 91.3519 88.9485 91.5127 89.3706C91.6735 89.7899 91.7539 90.2895 91.7539 90.8696V91.3478H86.3307V90.2967H90.2592C90.2563 89.9981 90.1917 89.7324 90.0654 89.4998C89.939 89.2643 89.7624 89.0791 89.5355 88.9442C89.3115 88.8092 89.0502 88.7417 88.7516 88.7417C88.4328 88.7417 88.1528 88.8192 87.9116 88.9743C87.6704 89.1265 87.4823 89.3275 87.3473 89.5774C87.2152 89.8243 87.1477 90.0957 87.1449 90.3915V91.309C87.1449 91.6938 87.2152 92.024 87.3559 92.2997C87.4966 92.5725 87.6934 92.7822 87.9461 92.9286C88.1988 93.0722 88.4946 93.144 88.8334 93.144C89.0603 93.144 89.2656 93.1124 89.4494 93.0492C89.6332 92.9832 89.7926 92.887 89.9275 92.7606C90.0625 92.6343 90.1644 92.4778 90.2334 92.2911L91.6893 92.4548C91.5974 92.8396 91.4222 93.1756 91.1638 93.4628C90.9082 93.747 90.5808 93.9682 90.1817 94.1261C89.7825 94.2812 89.3259 94.3587 88.8119 94.3587ZM97.9858 94.363C97.5666 94.363 97.1889 94.2884 96.853 94.139C96.5198 93.9868 96.2556 93.7628 96.0604 93.4671C95.868 93.1713 95.7718 92.8066 95.7718 92.3729C95.7718 91.9996 95.8407 91.6909 95.9785 91.4468C96.1164 91.2027 96.3045 91.0075 96.5428 90.861C96.7812 90.7145 97.0497 90.604 97.3483 90.5293C97.6498 90.4518 97.9614 90.3958 98.2831 90.3613C98.6707 90.3211 98.9852 90.2852 99.2264 90.2536C99.4676 90.2192 99.6428 90.1675 99.7519 90.0986C99.8639 90.0268 99.9199 89.9162 99.9199 89.7669V89.741C99.9199 89.4165 99.8237 89.1653 99.6313 88.9872C99.4389 88.8092 99.1618 88.7202 98.8 88.7202C98.418 88.7202 98.1151 88.8034 97.8911 88.97C97.6699 89.1366 97.5206 89.3333 97.4431 89.5601L95.9871 89.3534C96.102 88.9513 96.2915 88.6153 96.5557 88.3454C96.8199 88.0726 97.143 87.8687 97.5249 87.7337C97.9069 87.5959 98.329 87.527 98.7913 87.527C99.1101 87.527 99.4274 87.5643 99.7433 87.639C100.059 87.7136 100.348 87.8371 100.609 88.0094C100.87 88.1789 101.08 88.41 101.238 88.7029C101.399 88.9958 101.479 89.362 101.479 89.8014V94.2295H99.9802V93.3206H99.9285C99.8338 93.5044 99.7002 93.6767 99.5279 93.8375C99.3585 93.9954 99.1446 94.1232 98.8861 94.2209C98.6305 94.3156 98.3304 94.363 97.9858 94.363ZM98.3907 93.2172C98.7038 93.2172 98.9751 93.1555 99.2049 93.032C99.4346 92.9056 99.6112 92.7391 99.7347 92.5323C99.861 92.3256 99.9242 92.1001 99.9242 91.856V91.0764C99.8754 91.1166 99.7921 91.1539 99.6744 91.1884C99.5595 91.2228 99.4303 91.253 99.2867 91.2788C99.1431 91.3047 99.001 91.3277 98.8603 91.3478C98.7195 91.3679 98.5975 91.3851 98.4941 91.3994C98.2615 91.431 98.0533 91.4827 97.8695 91.5545C97.6857 91.6263 97.5407 91.7268 97.4345 91.856C97.3282 91.9824 97.2751 92.1461 97.2751 92.3471C97.2751 92.6343 97.3799 92.8511 97.5895 92.9975C97.7992 93.144 98.0662 93.2172 98.3907 93.2172ZM103.047 94.2295V87.6131H104.559V88.7159H104.628C104.749 88.3339 104.955 88.0396 105.248 87.8328C105.544 87.6232 105.882 87.5184 106.261 87.5184C106.347 87.5184 106.443 87.5227 106.549 87.5313C106.658 87.537 106.749 87.5471 106.821 87.5614V88.9958C106.755 88.9729 106.65 88.9528 106.506 88.9355C106.365 88.9154 106.229 88.9054 106.097 88.9054C105.813 88.9054 105.557 88.9671 105.33 89.0906C105.106 89.2112 104.93 89.3792 104.8 89.5946C104.671 89.81 104.607 90.0584 104.607 90.3398V94.2295H103.047ZM110.513 94.3587C109.85 94.3587 109.277 94.2209 108.794 93.9452C108.315 93.6666 107.946 93.2732 107.687 92.7649C107.429 92.2538 107.3 91.6522 107.3 90.9601C107.3 90.2795 107.429 89.6822 107.687 89.1681C107.949 88.6512 108.313 88.2492 108.782 87.962C109.25 87.672 109.8 87.527 110.431 87.527C110.839 87.527 111.224 87.593 111.586 87.7251C111.95 87.8543 112.272 88.0554 112.551 88.3282C112.832 88.601 113.053 88.9485 113.214 89.3706C113.375 89.7899 113.455 90.2895 113.455 90.8696V91.3478H108.032V90.2967H111.961C111.958 89.9981 111.893 89.7324 111.767 89.4998C111.64 89.2643 111.464 89.0791 111.237 88.9442C111.013 88.8092 110.752 88.7417 110.453 88.7417C110.134 88.7417 109.854 88.8192 109.613 88.9743C109.372 89.1265 109.184 89.3275 109.049 89.5774C108.917 89.8243 108.849 90.0957 108.846 90.3915V91.309C108.846 91.6938 108.917 92.024 109.057 92.2997C109.198 92.5725 109.395 92.7822 109.647 92.9286C109.9 93.0722 110.196 93.144 110.535 93.144C110.762 93.144 110.967 93.1124 111.151 93.0492C111.335 92.9832 111.494 92.887 111.629 92.7606C111.764 92.6343 111.866 92.4778 111.935 92.2911L113.391 92.4548C113.299 92.8396 113.124 93.1756 112.865 93.4628C112.61 93.747 112.282 93.9682 111.883 94.1261C111.484 94.2812 111.027 94.3587 110.513 94.3587ZM120.669 94.3587C120.009 94.3587 119.442 94.2137 118.968 93.9237C118.497 93.6336 118.134 93.233 117.878 92.7219C117.625 92.2078 117.499 91.6163 117.499 90.9472C117.499 90.2752 117.628 89.6822 117.887 89.1681C118.145 88.6512 118.51 88.2492 118.981 87.962C119.455 87.672 120.015 87.527 120.661 87.527C121.198 87.527 121.673 87.6261 122.086 87.8242C122.503 88.0195 122.835 88.2966 123.081 88.6556C123.328 89.0116 123.469 89.428 123.504 89.9047H122.013C121.953 89.586 121.809 89.3203 121.582 89.1078C121.358 88.8925 121.058 88.7848 120.682 88.7848C120.363 88.7848 120.083 88.8709 119.842 89.0432C119.601 89.2127 119.413 89.4568 119.278 89.7755C119.146 90.0943 119.08 90.4762 119.08 90.9213C119.08 91.3722 119.146 91.7598 119.278 92.0843C119.41 92.406 119.595 92.6544 119.834 92.8295C120.075 93.0018 120.358 93.088 120.682 93.088C120.912 93.088 121.117 93.0449 121.298 92.9588C121.482 92.8697 121.636 92.742 121.759 92.5754C121.883 92.4088 121.967 92.2064 122.013 91.968H123.504C123.466 92.4361 123.328 92.8511 123.09 93.2129C122.852 93.5719 122.527 93.8533 122.117 94.0572C121.706 94.2582 121.224 94.3587 120.669 94.3587ZM127.67 94.3587C127.024 94.3587 126.464 94.2166 125.99 93.9323C125.516 93.648 125.149 93.2502 124.887 92.7391C124.629 92.2279 124.5 91.6306 124.5 90.9472C124.5 90.2637 124.629 89.6649 124.887 89.1509C125.149 88.6369 125.516 88.2377 125.99 87.9534C126.464 87.6691 127.024 87.527 127.67 87.527C128.316 87.527 128.876 87.6691 129.35 87.9534C129.824 88.2377 130.19 88.6369 130.448 89.1509C130.71 89.6649 130.84 90.2637 130.84 90.9472C130.84 91.6306 130.71 92.2279 130.448 92.7391C130.19 93.2502 129.824 93.648 129.35 93.9323C128.876 94.2166 128.316 94.3587 127.67 94.3587ZM127.679 93.1095C128.029 93.1095 128.322 93.0133 128.557 92.8209C128.793 92.6257 128.968 92.3643 129.083 92.037C129.201 91.7096 129.26 91.3449 129.26 90.9428C129.26 90.5379 129.201 90.1718 129.083 89.8444C128.968 89.5142 128.793 89.2514 128.557 89.0562C128.322 88.8609 128.029 88.7632 127.679 88.7632C127.32 88.7632 127.021 88.8609 126.783 89.0562C126.547 89.2514 126.371 89.5142 126.253 89.8444C126.138 90.1718 126.081 90.5379 126.081 90.9428C126.081 91.3449 126.138 91.7096 126.253 92.037C126.371 92.3643 126.547 92.6257 126.783 92.8209C127.021 93.0133 127.32 93.1095 127.679 93.1095ZM132.164 94.2295V87.6131H133.654V88.7374H133.732C133.87 88.3583 134.098 88.0625 134.417 87.85C134.736 87.6347 135.116 87.527 135.558 87.527C136.006 87.527 136.384 87.6361 136.691 87.8544C137.001 88.0697 137.22 88.3641 137.346 88.7374H137.415C137.561 88.3698 137.808 88.0769 138.156 87.8587C138.506 87.6375 138.921 87.527 139.401 87.527C140.009 87.527 140.506 87.7194 140.891 88.1042C141.276 88.489 141.468 89.0504 141.468 89.7884V94.2295H139.905V90.0297C139.905 89.619 139.795 89.3189 139.577 89.1294C139.359 88.937 139.092 88.8408 138.776 88.8408C138.4 88.8408 138.105 88.9585 137.893 89.194C137.683 89.4266 137.578 89.7296 137.578 90.1029V94.2295H136.049V89.965C136.049 89.6233 135.946 89.3505 135.739 89.1466C135.535 88.9427 135.268 88.8408 134.938 88.8408C134.714 88.8408 134.51 88.8982 134.326 89.0131C134.143 89.1251 133.996 89.2844 133.887 89.4912C133.778 89.6951 133.723 89.9335 133.723 90.2063V94.2295H132.164ZM143.05 96.7106V87.6131H144.584V88.7072H144.674C144.754 88.5464 144.868 88.3756 145.014 88.1946C145.161 88.0109 145.359 87.8543 145.609 87.7251C145.859 87.593 146.177 87.527 146.565 87.527C147.076 87.527 147.537 87.6576 147.948 87.919C148.361 88.1774 148.689 88.5608 148.93 89.0691C149.174 89.5745 149.296 90.1948 149.296 90.9299C149.296 91.6565 149.177 92.2739 148.939 92.7822C148.7 93.2905 148.376 93.6781 147.965 93.9452C147.554 94.2123 147.089 94.3458 146.569 94.3458C146.19 94.3458 145.876 94.2826 145.626 94.1563C145.376 94.0299 145.175 93.8777 145.023 93.6997C144.874 93.5187 144.757 93.3479 144.674 93.1871H144.609V96.7106H143.05ZM144.579 90.9213C144.579 91.3492 144.64 91.7239 144.76 92.0456C144.884 92.3672 145.06 92.6185 145.29 92.7994C145.523 92.9774 145.804 93.0665 146.134 93.0665C146.479 93.0665 146.768 92.9746 147 92.7908C147.233 92.6041 147.408 92.35 147.526 92.0283C147.646 91.7038 147.707 91.3348 147.707 90.9213C147.707 90.5107 147.648 90.146 147.53 89.8272C147.412 89.5084 147.237 89.2586 147.004 89.0777C146.772 88.8968 146.482 88.8063 146.134 88.8063C145.801 88.8063 145.518 88.8939 145.286 89.0691C145.053 89.2442 144.877 89.4898 144.756 89.8057C144.638 90.1215 144.579 90.4934 144.579 90.9213ZM152.535 94.363C152.116 94.363 151.738 94.2884 151.402 94.139C151.069 93.9868 150.805 93.7628 150.61 93.4671C150.417 93.1713 150.321 92.8066 150.321 92.3729C150.321 91.9996 150.39 91.6909 150.528 91.4468C150.666 91.2027 150.854 91.0075 151.092 90.861C151.331 90.7145 151.599 90.604 151.898 90.5293C152.199 90.4518 152.511 90.3958 152.833 90.3613C153.22 90.3211 153.535 90.2852 153.776 90.2536C154.017 90.2192 154.192 90.1675 154.301 90.0986C154.413 90.0268 154.469 89.9162 154.469 89.7669V89.741C154.469 89.4165 154.373 89.1653 154.181 88.9872C153.988 88.8092 153.711 88.7202 153.349 88.7202C152.967 88.7202 152.665 88.8034 152.441 88.97C152.219 89.1366 152.07 89.3333 151.993 89.5601L150.537 89.3534C150.651 88.9513 150.841 88.6153 151.105 88.3454C151.369 88.0726 151.692 87.8687 152.074 87.7337C152.456 87.5959 152.878 87.527 153.341 87.527C153.66 87.527 153.977 87.5643 154.293 87.639C154.609 87.7136 154.897 87.8371 155.159 88.0094C155.42 88.1789 155.63 88.41 155.787 88.7029C155.948 88.9958 156.029 89.362 156.029 89.8014V94.2295H154.53V93.3206H154.478C154.383 93.5044 154.25 93.6767 154.077 93.8375C153.908 93.9954 153.694 94.1232 153.436 94.2209C153.18 94.3156 152.88 94.363 152.535 94.363ZM152.94 93.2172C153.253 93.2172 153.525 93.1555 153.754 93.032C153.984 92.9056 154.161 92.7391 154.284 92.5323C154.411 92.3256 154.474 92.1001 154.474 91.856V91.0764C154.425 91.1166 154.342 91.1539 154.224 91.1884C154.109 91.2228 153.98 91.253 153.836 91.2788C153.693 91.3047 153.55 91.3277 153.41 91.3478C153.269 91.3679 153.147 91.3851 153.044 91.3994C152.811 91.431 152.603 91.4827 152.419 91.5545C152.235 91.6263 152.09 91.7268 151.984 91.856C151.878 91.9824 151.825 92.1461 151.825 92.3471C151.825 92.6343 151.929 92.8511 152.139 92.9975C152.349 93.144 152.616 93.2172 152.94 93.2172ZM160.901 87.6131V88.8192H157.097V87.6131H160.901ZM158.036 86.028H159.595V92.2394C159.595 92.449 159.627 92.6099 159.69 92.7219C159.756 92.831 159.842 92.9056 159.949 92.9458C160.055 92.9861 160.173 93.0062 160.302 93.0062C160.399 93.0062 160.488 92.999 160.569 92.9846C160.652 92.9703 160.715 92.9573 160.758 92.9458L161.021 94.1649C160.938 94.1936 160.819 94.2252 160.664 94.2596C160.511 94.2941 160.325 94.3142 160.104 94.32C159.713 94.3314 159.361 94.2726 159.048 94.1433C158.735 94.0112 158.487 93.8074 158.303 93.5317C158.122 93.256 158.033 92.9114 158.036 92.4979V86.028ZM162.205 94.2295V87.6131H163.764V94.2295H162.205ZM162.989 86.6741C162.742 86.6741 162.529 86.5922 162.351 86.4286C162.173 86.262 162.084 86.0624 162.084 85.8298C162.084 85.5943 162.173 85.3948 162.351 85.2311C162.529 85.0645 162.742 84.9812 162.989 84.9812C163.238 84.9812 163.451 85.0645 163.626 85.2311C163.804 85.3948 163.893 85.5943 163.893 85.8298C163.893 86.0624 163.804 86.262 163.626 86.4286C163.451 86.5922 163.238 86.6741 162.989 86.6741ZM165.436 94.2295V85.4077H166.996V88.7072H167.06C167.141 88.5464 167.254 88.3756 167.401 88.1946C167.547 88.0109 167.745 87.8543 167.995 87.7251C168.245 87.593 168.564 87.527 168.951 87.527C169.462 87.527 169.923 87.6576 170.334 87.919C170.748 88.1774 171.075 88.5608 171.316 89.0691C171.56 89.5745 171.682 90.1948 171.682 90.9299C171.682 91.6565 171.563 92.2739 171.325 92.7822C171.086 93.2905 170.762 93.6781 170.351 93.9452C169.941 94.2123 169.475 94.3458 168.956 94.3458C168.577 94.3458 168.262 94.2826 168.012 94.1563C167.762 94.0299 167.561 93.8777 167.409 93.6997C167.26 93.5187 167.144 93.3479 167.06 93.1871H166.97V94.2295H165.436ZM166.966 90.9213C166.966 91.3492 167.026 91.7239 167.146 92.0456C167.27 92.3672 167.447 92.6185 167.676 92.7994C167.909 92.9774 168.19 93.0665 168.521 93.0665C168.865 93.0665 169.154 92.9746 169.386 92.7908C169.619 92.6041 169.794 92.35 169.912 92.0283C170.032 91.7038 170.093 91.3348 170.093 90.9213C170.093 90.5107 170.034 90.146 169.916 89.8272C169.798 89.5084 169.623 89.2586 169.391 89.0777C169.158 88.8968 168.868 88.8063 168.521 88.8063C168.187 88.8063 167.905 88.8939 167.672 89.0691C167.439 89.2442 167.263 89.4898 167.142 89.8057C167.024 90.1215 166.966 90.4934 166.966 90.9213ZM174.567 85.4077V94.2295H173.008V85.4077H174.567ZM179.1 94.3587C178.436 94.3587 177.864 94.2209 177.381 93.9452C176.902 93.6666 176.533 93.2732 176.274 92.7649C176.016 92.2538 175.886 91.6522 175.886 90.9601C175.886 90.2795 176.016 89.6822 176.274 89.1681C176.535 88.6512 176.9 88.2492 177.368 87.962C177.836 87.672 178.386 87.527 179.018 87.527C179.426 87.527 179.811 87.593 180.172 87.7251C180.537 87.8543 180.859 88.0554 181.137 88.3282C181.419 88.601 181.64 88.9485 181.801 89.3706C181.961 89.7899 182.042 90.2895 182.042 90.8696V91.3478H176.619V90.2967H180.547C180.544 89.9981 180.48 89.7324 180.353 89.4998C180.227 89.2643 180.05 89.0791 179.823 88.9442C179.599 88.8092 179.338 88.7417 179.04 88.7417C178.721 88.7417 178.441 88.8192 178.2 88.9743C177.958 89.1265 177.77 89.3275 177.635 89.5774C177.503 89.8243 177.436 90.0957 177.433 90.3915V91.309C177.433 91.6938 177.503 92.024 177.644 92.2997C177.785 92.5725 177.981 92.7822 178.234 92.9286C178.487 93.0722 178.783 93.144 179.121 93.144C179.348 93.144 179.554 93.1124 179.737 93.0492C179.921 92.9832 180.081 92.887 180.215 92.7606C180.35 92.6343 180.452 92.4778 180.521 92.2911L181.977 92.4548C181.885 92.8396 181.71 93.1756 181.452 93.4628C181.196 93.747 180.869 93.9682 180.47 94.1261C180.07 94.2812 179.614 94.3587 179.1 94.3587ZM186.37 94.2295V87.6131H187.882V88.7159H187.951C188.071 88.3339 188.278 88.0396 188.571 87.8328C188.867 87.6232 189.204 87.5184 189.583 87.5184C189.669 87.5184 189.766 87.5227 189.872 87.5313C189.981 87.537 190.071 87.5471 190.143 87.5614V88.9958C190.077 88.9729 189.972 88.9528 189.829 88.9355C189.688 88.9154 189.552 88.9054 189.42 88.9054C189.135 88.9054 188.88 88.9671 188.653 89.0906C188.429 89.2112 188.252 89.3792 188.123 89.5946C187.994 89.81 187.929 90.0584 187.929 90.3398V94.2295H186.37ZM193.793 94.3587C193.147 94.3587 192.587 94.2166 192.113 93.9323C191.639 93.648 191.271 93.2502 191.01 92.7391C190.752 92.2279 190.622 91.6306 190.622 90.9472C190.622 90.2637 190.752 89.6649 191.01 89.1509C191.271 88.6369 191.639 88.2377 192.113 87.9534C192.587 87.6691 193.147 87.527 193.793 87.527C194.439 87.527 194.999 87.6691 195.473 87.9534C195.947 88.2377 196.313 88.6369 196.571 89.1509C196.832 89.6649 196.963 90.2637 196.963 90.9472C196.963 91.6306 196.832 92.2279 196.571 92.7391C196.313 93.2502 195.947 93.648 195.473 93.9323C194.999 94.2166 194.439 94.3587 193.793 94.3587ZM193.801 93.1095C194.152 93.1095 194.445 93.0133 194.68 92.8209C194.916 92.6257 195.091 92.3643 195.206 92.037C195.323 91.7096 195.382 91.3449 195.382 90.9428C195.382 90.5379 195.323 90.1718 195.206 89.8444C195.091 89.5142 194.916 89.2514 194.68 89.0562C194.445 88.8609 194.152 88.7632 193.801 88.7632C193.442 88.7632 193.144 88.8609 192.905 89.0562C192.67 89.2514 192.493 89.5142 192.376 89.8444C192.261 90.1718 192.203 90.5379 192.203 90.9428C192.203 91.3449 192.261 91.7096 192.376 92.037C192.493 92.3643 192.67 92.6257 192.905 92.8209C193.144 93.0133 193.442 93.1095 193.801 93.1095ZM199.846 85.4077V94.2295H198.287V85.4077H199.846ZM204.379 94.3587C203.715 94.3587 203.142 94.2209 202.66 93.9452C202.18 93.6666 201.811 93.2732 201.553 92.7649C201.294 92.2538 201.165 91.6522 201.165 90.9601C201.165 90.2795 201.294 89.6822 201.553 89.1681C201.814 88.6512 202.179 88.2492 202.647 87.962C203.115 87.672 203.665 87.527 204.297 87.527C204.704 87.527 205.089 87.593 205.451 87.7251C205.816 87.8543 206.137 88.0554 206.416 88.3282C206.697 88.601 206.919 88.9485 207.079 89.3706C207.24 89.7899 207.321 90.2895 207.321 90.8696V91.3478H201.897V90.2967H205.826C205.823 89.9981 205.758 89.7324 205.632 89.4998C205.506 89.2643 205.329 89.0791 205.102 88.9442C204.878 88.8092 204.617 88.7417 204.318 88.7417C203.999 88.7417 203.72 88.8192 203.478 88.9743C203.237 89.1265 203.049 89.3275 202.914 89.5774C202.782 89.8243 202.714 90.0957 202.712 90.3915V91.309C202.712 91.6938 202.782 92.024 202.923 92.2997C203.063 92.5725 203.26 92.7822 203.513 92.9286C203.765 93.0722 204.061 93.144 204.4 93.144C204.627 93.144 204.832 93.1124 205.016 93.0492C205.2 92.9832 205.359 92.887 205.494 92.7606C205.629 92.6343 205.731 92.4778 205.8 92.2911L207.256 92.4548C207.164 92.8396 206.989 93.1756 206.73 93.4628C206.475 93.747 206.148 93.9682 205.748 94.1261C205.349 94.2812 204.893 94.3587 204.379 94.3587ZM213.869 89.362L212.448 89.5171C212.407 89.3735 212.337 89.2385 212.237 89.1121C212.139 88.9858 212.007 88.8838 211.84 88.8063C211.674 88.7288 211.47 88.69 211.229 88.69C210.904 88.69 210.631 88.7604 210.41 88.9011C210.192 89.0418 210.084 89.2241 210.087 89.4481C210.084 89.6405 210.155 89.797 210.298 89.9177C210.445 90.0383 210.686 90.1373 211.022 90.2149L212.15 90.4561C212.776 90.5911 213.242 90.805 213.546 91.0979C213.853 91.3908 214.008 91.7742 214.011 92.248C214.008 92.6644 213.886 93.032 213.645 93.3508C213.407 93.6666 213.075 93.9136 212.65 94.0917C212.225 94.2697 211.737 94.3587 211.186 94.3587C210.376 94.3587 209.724 94.1893 209.23 93.8504C208.736 93.5087 208.442 93.0334 208.347 92.4246L209.867 92.2782C209.936 92.5768 210.083 92.8023 210.307 92.9545C210.531 93.1067 210.822 93.1828 211.181 93.1828C211.552 93.1828 211.849 93.1067 212.073 92.9545C212.3 92.8023 212.413 92.6142 212.413 92.3902C212.413 92.2006 212.34 92.0441 212.193 91.9207C212.05 91.7972 211.826 91.7024 211.522 91.6364L210.393 91.3994C209.758 91.2673 209.289 91.0448 208.984 90.7318C208.68 90.4159 208.529 90.0167 208.532 89.5343C208.529 89.1265 208.64 88.7733 208.864 88.4746C209.091 88.1731 209.405 87.9405 209.807 87.7768C210.212 87.6103 210.679 87.527 211.207 87.527C211.982 87.527 212.593 87.6921 213.038 88.0223C213.486 88.3526 213.763 88.7991 213.869 89.362ZM216.258 94.3243C215.996 94.3243 215.772 94.2324 215.586 94.0486C215.399 93.8648 215.307 93.6408 215.31 93.3766C215.307 93.1181 215.399 92.897 215.586 92.7132C215.772 92.5295 215.996 92.4376 216.258 92.4376C216.51 92.4376 216.73 92.5295 216.917 92.7132C217.106 92.897 217.202 93.1181 217.205 93.3766C217.202 93.5518 217.156 93.7112 217.067 93.8547C216.981 93.9983 216.866 94.1132 216.723 94.1993C216.582 94.2826 216.427 94.3243 216.258 94.3243ZM216.258 89.6032C215.996 89.6032 215.772 89.5113 215.586 89.3275C215.399 89.1409 215.307 88.9169 215.31 88.6556C215.307 88.3971 215.399 88.176 215.586 87.9922C215.772 87.8055 215.996 87.7122 216.258 87.7122C216.51 87.7122 216.73 87.8055 216.917 87.9922C217.106 88.176 217.202 88.3971 217.205 88.6556C217.202 88.8279 217.156 88.9858 217.067 89.1294C216.981 89.273 216.866 89.3878 216.723 89.474C216.582 89.5601 216.427 89.6032 216.258 89.6032Z" fill="#3F4445"/>
<rect x="32" y="79" width="21.1803" height="21.1803" rx="2.48628" fill="#161616"/>
<path d="M43.0535 95.7981C43.5175 95.7981 43.8393 95.394 44.0788 94.7878L47.8807 84.8564C48.0005 84.5496 48.0678 84.2802 48.0678 84.0557C48.0678 83.644 47.8059 83.3821 47.3943 83.3821C47.1697 83.3821 46.9003 83.4494 46.6009 83.5692L36.6022 87.401C36.0784 87.6031 35.6518 87.9324 35.6518 88.3964C35.6518 88.9951 36.1158 89.1822 36.707 89.3619L40.8682 90.5892L42.0806 94.683C42.2602 95.3117 42.4548 95.7981 43.0535 95.7981ZM41.1675 89.5714L37.2309 88.3515C37.1785 88.3365 37.1636 88.3141 37.1636 88.2916C37.1636 88.2617 37.171 88.2392 37.2309 88.2168L44.6775 85.4028C45.2089 85.2007 45.7178 84.9388 46.2342 84.6993C45.7852 85.066 45.2538 85.4851 44.8871 85.8518L41.1675 89.5714ZM43.1658 94.3013C43.1358 94.3013 43.1209 94.2714 43.0984 94.219L41.8785 90.2824L45.5981 86.5703C45.9723 86.1961 46.3989 85.6572 46.7581 85.2007C46.5186 85.7171 46.2492 86.2335 46.0471 86.7799L43.2331 94.219C43.2107 94.2789 43.1957 94.3013 43.1658 94.3013Z" fill="white"/>
</svg>
